<svg viewBox="-2.5,-814.03125,1016.890625,1691.625" xmlns="http://www.w3.org/2000/svg" xmlns:xlink="http://www.w3.org/1999/xlink"><g fill="none" stroke="#555" stroke-opacity="0.4" stroke-width="1.5"><path d="&#10;        M232,-599.1666666666667&#10;        C116,-599.1666666666667&#10;         116,0&#10;         0,0&#10;      "/><path d="&#10;        M232,-304.16666666666674&#10;        C116,-304.16666666666674&#10;         116,0&#10;         0,0&#10;      "/><path d="&#10;        M232,-36.25&#10;        C116,-36.25&#10;         116,0&#10;         0,0&#10;      "/><path d="&#10;        M232,275.83333333333326&#10;        C116,275.83333333333326&#10;         116,0&#10;         0,0&#10;      "/><path d="&#10;        M232,663.7499999999999&#10;        C116,663.7499999999999&#10;         116,0&#10;         0,0&#10;      "/><path d="&#10;        M464,-772.9166666666667&#10;        C348,-772.9166666666667&#10;         348,-599.1666666666667&#10;         232,-599.1666666666667&#10;      "/><path d="&#10;        M464,-642.9166666666667&#10;        C348,-642.9166666666667&#10;         348,-599.1666666666667&#10;         232,-599.1666666666667&#10;      "/><path d="&#10;        M464,-527.9166666666667&#10;        C348,-527.9166666666667&#10;         348,-599.1666666666667&#10;         232,-599.1666666666667&#10;      "/><path d="&#10;        M464,-452.91666666666674&#10;        C348,-452.91666666666674&#10;         348,-599.1666666666667&#10;         232,-599.1666666666667&#10;      "/><path d="&#10;        M464,-377.91666666666674&#10;        C348,-377.91666666666674&#10;         348,-304.16666666666674&#10;         232,-304.16666666666674&#10;      "/><path d="&#10;        M464,-322.91666666666674&#10;        C348,-322.91666666666674&#10;         348,-304.16666666666674&#10;         232,-304.16666666666674&#10;      "/><path d="&#10;        M464,-282.91666666666674&#10;        C348,-282.91666666666674&#10;         348,-304.16666666666674&#10;         232,-304.16666666666674&#10;      "/><path d="&#10;        M464,-232.9166666666667&#10;        C348,-232.9166666666667&#10;         348,-304.16666666666674&#10;         232,-304.16666666666674&#10;      "/><path d="&#10;        M464,-132.9166666666667&#10;        C348,-132.9166666666667&#10;         348,-36.25&#10;         232,-36.25&#10;      "/><path d="&#10;        M464,-32.916666666666714&#10;        C348,-32.916666666666714&#10;         348,-36.25&#10;         232,-36.25&#10;      "/><path d="&#10;        M464,57.083333333333286&#10;        C348,57.083333333333286&#10;         348,-36.25&#10;         232,-36.25&#10;      "/><path d="&#10;        M464,167.0833333333333&#10;        C348,167.0833333333333&#10;         348,275.83333333333326&#10;         232,275.83333333333326&#10;      "/><path d="&#10;        M464,257.08333333333326&#10;        C348,257.08333333333326&#10;         348,275.83333333333326&#10;         232,275.83333333333326&#10;      "/><path d="&#10;        M464,312.08333333333326&#10;        C348,312.08333333333326&#10;         348,275.83333333333326&#10;         232,275.83333333333326&#10;      "/><path d="&#10;        M464,367.08333333333326&#10;        C348,367.08333333333326&#10;         348,275.83333333333326&#10;         232,275.83333333333326&#10;      "/><path d="&#10;        M464,467.08333333333326&#10;        C348,467.08333333333326&#10;         348,663.7499999999999&#10;         232,663.7499999999999&#10;      "/><path d="&#10;        M464,562.0833333333333&#10;        C348,562.0833333333333&#10;         348,663.7499999999999&#10;         232,663.7499999999999&#10;      "/><path d="&#10;        M464,627.0833333333333&#10;        C348,627.0833333333333&#10;         348,663.7499999999999&#10;         232,663.7499999999999&#10;      "/><path d="&#10;        M464,702.0833333333333&#10;        C348,702.0833333333333&#10;         348,663.7499999999999&#10;         232,663.7499999999999&#10;      "/><path d="&#10;        M464,777.0833333333333&#10;        C348,777.0833333333333&#10;         348,663.7499999999999&#10;         232,663.7499999999999&#10;      "/><path d="&#10;        M464,847.0833333333333&#10;        C348,847.0833333333333&#10;         348,663.7499999999999&#10;         232,663.7499999999999&#10;      "/><path d="&#10;        M696,-807.9166666666667&#10;        C580,-807.9166666666667&#10;         580,-772.9166666666667&#10;         464,-772.9166666666667&#10;      "/><path d="&#10;        M696,-797.9166666666667&#10;        C580,-797.9166666666667&#10;         580,-772.9166666666667&#10;         464,-772.9166666666667&#10;      "/><path d="&#10;        M696,-787.9166666666667&#10;        C580,-787.9166666666667&#10;         580,-772.9166666666667&#10;         464,-772.9166666666667&#10;      "/><path d="&#10;        M696,-777.9166666666667&#10;        C580,-777.9166666666667&#10;         580,-772.9166666666667&#10;         464,-772.9166666666667&#10;      "/><path d="&#10;        M696,-767.9166666666667&#10;        C580,-767.9166666666667&#10;         580,-772.9166666666667&#10;         464,-772.9166666666667&#10;      "/><path d="&#10;        M696,-757.9166666666667&#10;        C580,-757.9166666666667&#10;         580,-772.9166666666667&#10;         464,-772.9166666666667&#10;      "/><path d="&#10;        M696,-747.9166666666667&#10;        C580,-747.9166666666667&#10;         580,-772.9166666666667&#10;         464,-772.9166666666667&#10;      "/><path d="&#10;        M696,-737.9166666666667&#10;        C580,-737.9166666666667&#10;         580,-772.9166666666667&#10;         464,-772.9166666666667&#10;      "/><path d="&#10;        M696,-717.9166666666667&#10;        C580,-717.9166666666667&#10;         580,-642.9166666666667&#10;         464,-642.9166666666667&#10;      "/><path d="&#10;        M696,-707.9166666666667&#10;        C580,-707.9166666666667&#10;         580,-642.9166666666667&#10;         464,-642.9166666666667&#10;      "/><path d="&#10;        M696,-697.9166666666667&#10;        C580,-697.9166666666667&#10;         580,-642.9166666666667&#10;         464,-642.9166666666667&#10;      "/><path d="&#10;        M696,-687.9166666666667&#10;        C580,-687.9166666666667&#10;         580,-642.9166666666667&#10;         464,-642.9166666666667&#10;      "/><path d="&#10;        M696,-677.9166666666667&#10;        C580,-677.9166666666667&#10;         580,-642.9166666666667&#10;         464,-642.9166666666667&#10;      "/><path d="&#10;        M696,-667.9166666666667&#10;        C580,-667.9166666666667&#10;         580,-642.9166666666667&#10;         464,-642.9166666666667&#10;      "/><path d="&#10;        M696,-657.9166666666667&#10;        C580,-657.9166666666667&#10;         580,-642.9166666666667&#10;         464,-642.9166666666667&#10;      "/><path d="&#10;        M696,-647.9166666666667&#10;        C580,-647.9166666666667&#10;         580,-642.9166666666667&#10;         464,-642.9166666666667&#10;      "/><path d="&#10;        M696,-637.9166666666667&#10;        C580,-637.9166666666667&#10;         580,-642.9166666666667&#10;         464,-642.9166666666667&#10;      "/><path d="&#10;        M696,-627.9166666666667&#10;        C580,-627.9166666666667&#10;         580,-642.9166666666667&#10;         464,-642.9166666666667&#10;      "/><path d="&#10;        M696,-617.9166666666667&#10;        C580,-617.9166666666667&#10;         580,-642.9166666666667&#10;         464,-642.9166666666667&#10;      "/><path d="&#10;        M696,-607.9166666666667&#10;        C580,-607.9166666666667&#10;         580,-642.9166666666667&#10;         464,-642.9166666666667&#10;      "/><path d="&#10;        M696,-597.9166666666667&#10;        C580,-597.9166666666667&#10;         580,-642.9166666666667&#10;         464,-642.9166666666667&#10;      "/><path d="&#10;        M696,-587.9166666666667&#10;        C580,-587.9166666666667&#10;         580,-642.9166666666667&#10;         464,-642.9166666666667&#10;      "/><path d="&#10;        M696,-577.9166666666667&#10;        C580,-577.9166666666667&#10;         580,-642.9166666666667&#10;         464,-642.9166666666667&#10;      "/><path d="&#10;        M696,-567.9166666666667&#10;        C580,-567.9166666666667&#10;         580,-642.9166666666667&#10;         464,-642.9166666666667&#10;      "/><path d="&#10;        M696,-547.9166666666667&#10;        C580,-547.9166666666667&#10;         580,-527.9166666666667&#10;         464,-527.9166666666667&#10;      "/><path d="&#10;        M696,-537.9166666666667&#10;        C580,-537.9166666666667&#10;         580,-527.9166666666667&#10;         464,-527.9166666666667&#10;      "/><path d="&#10;        M696,-527.9166666666667&#10;        C580,-527.9166666666667&#10;         580,-527.9166666666667&#10;         464,-527.9166666666667&#10;      "/><path d="&#10;        M696,-517.9166666666667&#10;        C580,-517.9166666666667&#10;         580,-527.9166666666667&#10;         464,-527.9166666666667&#10;      "/><path d="&#10;        M696,-507.91666666666674&#10;        C580,-507.91666666666674&#10;         580,-527.9166666666667&#10;         464,-527.9166666666667&#10;      "/><path d="&#10;        M696,-487.91666666666674&#10;        C580,-487.91666666666674&#10;         580,-452.91666666666674&#10;         464,-452.91666666666674&#10;      "/><path d="&#10;        M696,-477.91666666666674&#10;        C580,-477.91666666666674&#10;         580,-452.91666666666674&#10;         464,-452.91666666666674&#10;      "/><path d="&#10;        M696,-467.91666666666674&#10;        C580,-467.91666666666674&#10;         580,-452.91666666666674&#10;         464,-452.91666666666674&#10;      "/><path d="&#10;        M696,-457.91666666666674&#10;        C580,-457.91666666666674&#10;         580,-452.91666666666674&#10;         464,-452.91666666666674&#10;      "/><path d="&#10;        M696,-447.91666666666674&#10;        C580,-447.91666666666674&#10;         580,-452.91666666666674&#10;         464,-452.91666666666674&#10;      "/><path d="&#10;        M696,-437.91666666666674&#10;        C580,-437.91666666666674&#10;         580,-452.91666666666674&#10;         464,-452.91666666666674&#10;      "/><path d="&#10;        M696,-427.91666666666674&#10;        C580,-427.91666666666674&#10;         580,-452.91666666666674&#10;         464,-452.91666666666674&#10;      "/><path d="&#10;        M696,-417.91666666666674&#10;        C580,-417.91666666666674&#10;         580,-452.91666666666674&#10;         464,-452.91666666666674&#10;      "/><path d="&#10;        M696,-397.91666666666674&#10;        C580,-397.91666666666674&#10;         580,-377.91666666666674&#10;         464,-377.91666666666674&#10;      "/><path d="&#10;        M696,-387.91666666666674&#10;        C580,-387.91666666666674&#10;         580,-377.91666666666674&#10;         464,-377.91666666666674&#10;      "/><path d="&#10;        M696,-377.91666666666674&#10;        C580,-377.91666666666674&#10;         580,-377.91666666666674&#10;         464,-377.91666666666674&#10;      "/><path d="&#10;        M696,-367.91666666666674&#10;        C580,-367.91666666666674&#10;         580,-377.91666666666674&#10;         464,-377.91666666666674&#10;      "/><path d="&#10;        M696,-357.91666666666674&#10;        C580,-357.91666666666674&#10;         580,-377.91666666666674&#10;         464,-377.91666666666674&#10;      "/><path d="&#10;        M696,-337.91666666666674&#10;        C580,-337.91666666666674&#10;         580,-322.91666666666674&#10;         464,-322.91666666666674&#10;      "/><path d="&#10;        M696,-327.91666666666674&#10;        C580,-327.91666666666674&#10;         580,-322.91666666666674&#10;         464,-322.91666666666674&#10;      "/><path d="&#10;        M696,-317.91666666666674&#10;        C580,-317.91666666666674&#10;         580,-322.91666666666674&#10;         464,-322.91666666666674&#10;      "/><path d="&#10;        M696,-307.91666666666674&#10;        C580,-307.91666666666674&#10;         580,-322.91666666666674&#10;         464,-322.91666666666674&#10;      "/><path d="&#10;        M696,-287.91666666666674&#10;        C580,-287.91666666666674&#10;         580,-282.91666666666674&#10;         464,-282.91666666666674&#10;      "/><path d="&#10;        M696,-277.91666666666674&#10;        C580,-277.91666666666674&#10;         580,-282.91666666666674&#10;         464,-282.91666666666674&#10;      "/><path d="&#10;        M696,-257.91666666666674&#10;        C580,-257.91666666666674&#10;         580,-232.9166666666667&#10;         464,-232.9166666666667&#10;      "/><path d="&#10;        M696,-247.9166666666667&#10;        C580,-247.9166666666667&#10;         580,-232.9166666666667&#10;         464,-232.9166666666667&#10;      "/><path d="&#10;        M696,-237.9166666666667&#10;        C580,-237.9166666666667&#10;         580,-232.9166666666667&#10;         464,-232.9166666666667&#10;      "/><path d="&#10;        M696,-227.9166666666667&#10;        C580,-227.9166666666667&#10;         580,-232.9166666666667&#10;         464,-232.9166666666667&#10;      "/><path d="&#10;        M696,-217.9166666666667&#10;        C580,-217.9166666666667&#10;         580,-232.9166666666667&#10;         464,-232.9166666666667&#10;      "/><path d="&#10;        M696,-207.9166666666667&#10;        C580,-207.9166666666667&#10;         580,-232.9166666666667&#10;         464,-232.9166666666667&#10;      "/><path d="&#10;        M696,-187.9166666666667&#10;        C580,-187.9166666666667&#10;         580,-132.9166666666667&#10;         464,-132.9166666666667&#10;      "/><path d="&#10;        M696,-177.9166666666667&#10;        C580,-177.9166666666667&#10;         580,-132.9166666666667&#10;         464,-132.9166666666667&#10;      "/><path d="&#10;        M696,-167.9166666666667&#10;        C580,-167.9166666666667&#10;         580,-132.9166666666667&#10;         464,-132.9166666666667&#10;      "/><path d="&#10;        M696,-157.9166666666667&#10;        C580,-157.9166666666667&#10;         580,-132.9166666666667&#10;         464,-132.9166666666667&#10;      "/><path d="&#10;        M696,-147.9166666666667&#10;        C580,-147.9166666666667&#10;         580,-132.9166666666667&#10;         464,-132.9166666666667&#10;      "/><path d="&#10;        M696,-137.9166666666667&#10;        C580,-137.9166666666667&#10;         580,-132.9166666666667&#10;         464,-132.9166666666667&#10;      "/><path d="&#10;        M696,-127.91666666666671&#10;        C580,-127.91666666666671&#10;         580,-132.9166666666667&#10;         464,-132.9166666666667&#10;      "/><path d="&#10;        M696,-117.91666666666671&#10;        C580,-117.91666666666671&#10;         580,-132.9166666666667&#10;         464,-132.9166666666667&#10;      "/><path d="&#10;        M696,-107.91666666666671&#10;        C580,-107.91666666666671&#10;         580,-132.9166666666667&#10;         464,-132.9166666666667&#10;      "/><path d="&#10;        M696,-97.91666666666671&#10;        C580,-97.91666666666671&#10;         580,-132.9166666666667&#10;         464,-132.9166666666667&#10;      "/><path d="&#10;        M696,-87.91666666666671&#10;        C580,-87.91666666666671&#10;         580,-132.9166666666667&#10;         464,-132.9166666666667&#10;      "/><path d="&#10;        M696,-77.91666666666671&#10;        C580,-77.91666666666671&#10;         580,-132.9166666666667&#10;         464,-132.9166666666667&#10;      "/><path d="&#10;        M696,-57.916666666666714&#10;        C580,-57.916666666666714&#10;         580,-32.916666666666714&#10;         464,-32.916666666666714&#10;      "/><path d="&#10;        M696,-47.916666666666714&#10;        C580,-47.916666666666714&#10;         580,-32.916666666666714&#10;         464,-32.916666666666714&#10;      "/><path d="&#10;        M696,-37.916666666666714&#10;        C580,-37.916666666666714&#10;         580,-32.916666666666714&#10;         464,-32.916666666666714&#10;      "/><path d="&#10;        M696,-27.916666666666714&#10;        C580,-27.916666666666714&#10;         580,-32.916666666666714&#10;         464,-32.916666666666714&#10;      "/><path d="&#10;        M696,-17.916666666666714&#10;        C580,-17.916666666666714&#10;         580,-32.916666666666714&#10;         464,-32.916666666666714&#10;      "/><path d="&#10;        M696,-7.916666666666714&#10;        C580,-7.916666666666714&#10;         580,-32.916666666666714&#10;         464,-32.916666666666714&#10;      "/><path d="&#10;        M696,12.083333333333286&#10;        C580,12.083333333333286&#10;         580,57.083333333333286&#10;         464,57.083333333333286&#10;      "/><path d="&#10;        M696,22.083333333333286&#10;        C580,22.083333333333286&#10;         580,57.083333333333286&#10;         464,57.083333333333286&#10;      "/><path d="&#10;        M696,32.083333333333286&#10;        C580,32.083333333333286&#10;         580,57.083333333333286&#10;         464,57.083333333333286&#10;      "/><path d="&#10;        M696,42.083333333333286&#10;        C580,42.083333333333286&#10;         580,57.083333333333286&#10;         464,57.083333333333286&#10;      "/><path d="&#10;        M696,52.083333333333286&#10;        C580,52.083333333333286&#10;         580,57.083333333333286&#10;         464,57.083333333333286&#10;      "/><path d="&#10;        M696,62.083333333333286&#10;        C580,62.083333333333286&#10;         580,57.083333333333286&#10;         464,57.083333333333286&#10;      "/><path d="&#10;        M696,72.08333333333329&#10;        C580,72.08333333333329&#10;         580,57.083333333333286&#10;         464,57.083333333333286&#10;      "/><path d="&#10;        M696,82.08333333333329&#10;        C580,82.08333333333329&#10;         580,57.083333333333286&#10;         464,57.083333333333286&#10;      "/><path d="&#10;        M696,92.08333333333329&#10;        C580,92.08333333333329&#10;         580,57.083333333333286&#10;         464,57.083333333333286&#10;      "/><path d="&#10;        M696,102.08333333333329&#10;        C580,102.08333333333329&#10;         580,57.083333333333286&#10;         464,57.083333333333286&#10;      "/><path d="&#10;        M696,122.08333333333329&#10;        C580,122.08333333333329&#10;         580,167.0833333333333&#10;         464,167.0833333333333&#10;      "/><path d="&#10;        M696,132.0833333333333&#10;        C580,132.0833333333333&#10;         580,167.0833333333333&#10;         464,167.0833333333333&#10;      "/><path d="&#10;        M696,142.0833333333333&#10;        C580,142.0833333333333&#10;         580,167.0833333333333&#10;         464,167.0833333333333&#10;      "/><path d="&#10;        M696,152.0833333333333&#10;        C580,152.0833333333333&#10;         580,167.0833333333333&#10;         464,167.0833333333333&#10;      "/><path d="&#10;        M696,162.0833333333333&#10;        C580,162.0833333333333&#10;         580,167.0833333333333&#10;         464,167.0833333333333&#10;      "/><path d="&#10;        M696,172.0833333333333&#10;        C580,172.0833333333333&#10;         580,167.0833333333333&#10;         464,167.0833333333333&#10;      "/><path d="&#10;        M696,182.0833333333333&#10;        C580,182.0833333333333&#10;         580,167.0833333333333&#10;         464,167.0833333333333&#10;      "/><path d="&#10;        M696,192.0833333333333&#10;        C580,192.0833333333333&#10;         580,167.0833333333333&#10;         464,167.0833333333333&#10;      "/><path d="&#10;        M696,202.0833333333333&#10;        C580,202.0833333333333&#10;         580,167.0833333333333&#10;         464,167.0833333333333&#10;      "/><path d="&#10;        M696,212.0833333333333&#10;        C580,212.0833333333333&#10;         580,167.0833333333333&#10;         464,167.0833333333333&#10;      "/><path d="&#10;        M696,232.0833333333333&#10;        C580,232.0833333333333&#10;         580,257.08333333333326&#10;         464,257.08333333333326&#10;      "/><path d="&#10;        M696,242.0833333333333&#10;        C580,242.0833333333333&#10;         580,257.08333333333326&#10;         464,257.08333333333326&#10;      "/><path d="&#10;        M696,252.0833333333333&#10;        C580,252.0833333333333&#10;         580,257.08333333333326&#10;         464,257.08333333333326&#10;      "/><path d="&#10;        M696,262.08333333333326&#10;        C580,262.08333333333326&#10;         580,257.08333333333326&#10;         464,257.08333333333326&#10;      "/><path d="&#10;        M696,272.08333333333326&#10;        C580,272.08333333333326&#10;         580,257.08333333333326&#10;         464,257.08333333333326&#10;      "/><path d="&#10;        M696,282.08333333333326&#10;        C580,282.08333333333326&#10;         580,257.08333333333326&#10;         464,257.08333333333326&#10;      "/><path d="&#10;        M696,302.08333333333326&#10;        C580,302.08333333333326&#10;         580,312.08333333333326&#10;         464,312.08333333333326&#10;      "/><path d="&#10;        M696,312.08333333333326&#10;        C580,312.08333333333326&#10;         580,312.08333333333326&#10;         464,312.08333333333326&#10;      "/><path d="&#10;        M696,322.08333333333326&#10;        C580,322.08333333333326&#10;         580,312.08333333333326&#10;         464,312.08333333333326&#10;      "/><path d="&#10;        M696,342.08333333333326&#10;        C580,342.08333333333326&#10;         580,367.08333333333326&#10;         464,367.08333333333326&#10;      "/><path d="&#10;        M696,352.08333333333326&#10;        C580,352.08333333333326&#10;         580,367.08333333333326&#10;         464,367.08333333333326&#10;      "/><path d="&#10;        M696,362.08333333333326&#10;        C580,362.08333333333326&#10;         580,367.08333333333326&#10;         464,367.08333333333326&#10;      "/><path d="&#10;        M696,372.08333333333326&#10;        C580,372.08333333333326&#10;         580,367.08333333333326&#10;         464,367.08333333333326&#10;      "/><path d="&#10;        M696,382.08333333333326&#10;        C580,382.08333333333326&#10;         580,367.08333333333326&#10;         464,367.08333333333326&#10;      "/><path d="&#10;        M696,392.08333333333326&#10;        C580,392.08333333333326&#10;         580,367.08333333333326&#10;         464,367.08333333333326&#10;      "/><path d="&#10;        M696,412.08333333333326&#10;        C580,412.08333333333326&#10;         580,467.08333333333326&#10;         464,467.08333333333326&#10;      "/><path d="&#10;        M696,422.08333333333326&#10;        C580,422.08333333333326&#10;         580,467.08333333333326&#10;         464,467.08333333333326&#10;      "/><path d="&#10;        M696,432.08333333333326&#10;        C580,432.08333333333326&#10;         580,467.08333333333326&#10;         464,467.08333333333326&#10;      "/><path d="&#10;        M696,442.08333333333326&#10;        C580,442.08333333333326&#10;         580,467.08333333333326&#10;         464,467.08333333333326&#10;      "/><path d="&#10;        M696,452.08333333333326&#10;        C580,452.08333333333326&#10;         580,467.08333333333326&#10;         464,467.08333333333326&#10;      "/><path d="&#10;        M696,462.08333333333326&#10;        C580,462.08333333333326&#10;         580,467.08333333333326&#10;         464,467.08333333333326&#10;      "/><path d="&#10;        M696,472.08333333333326&#10;        C580,472.08333333333326&#10;         580,467.08333333333326&#10;         464,467.08333333333326&#10;      "/><path d="&#10;        M696,482.08333333333326&#10;        C580,482.08333333333326&#10;         580,467.08333333333326&#10;         464,467.08333333333326&#10;      "/><path d="&#10;        M696,492.08333333333326&#10;        C580,492.08333333333326&#10;         580,467.08333333333326&#10;         464,467.08333333333326&#10;      "/><path d="&#10;        M696,502.08333333333326&#10;        C580,502.08333333333326&#10;         580,467.08333333333326&#10;         464,467.08333333333326&#10;      "/><path d="&#10;        M696,512.0833333333333&#10;        C580,512.0833333333333&#10;         580,467.08333333333326&#10;         464,467.08333333333326&#10;      "/><path d="&#10;        M696,522.0833333333333&#10;        C580,522.0833333333333&#10;         580,467.08333333333326&#10;         464,467.08333333333326&#10;      "/><path d="&#10;        M696,542.0833333333333&#10;        C580,542.0833333333333&#10;         580,562.0833333333333&#10;         464,562.0833333333333&#10;      "/><path d="&#10;        M696,552.0833333333333&#10;        C580,552.0833333333333&#10;         580,562.0833333333333&#10;         464,562.0833333333333&#10;      "/><path d="&#10;        M696,562.0833333333333&#10;        C580,562.0833333333333&#10;         580,562.0833333333333&#10;         464,562.0833333333333&#10;      "/><path d="&#10;        M696,572.0833333333333&#10;        C580,572.0833333333333&#10;         580,562.0833333333333&#10;         464,562.0833333333333&#10;      "/><path d="&#10;        M696,582.0833333333333&#10;        C580,582.0833333333333&#10;         580,562.0833333333333&#10;         464,562.0833333333333&#10;      "/><path d="&#10;        M696,602.0833333333333&#10;        C580,602.0833333333333&#10;         580,627.0833333333333&#10;         464,627.0833333333333&#10;      "/><path d="&#10;        M696,612.0833333333333&#10;        C580,612.0833333333333&#10;         580,627.0833333333333&#10;         464,627.0833333333333&#10;      "/><path d="&#10;        M696,622.0833333333333&#10;        C580,622.0833333333333&#10;         580,627.0833333333333&#10;         464,627.0833333333333&#10;      "/><path d="&#10;        M696,632.0833333333333&#10;        C580,632.0833333333333&#10;         580,627.0833333333333&#10;         464,627.0833333333333&#10;      "/><path d="&#10;        M696,642.0833333333333&#10;        C580,642.0833333333333&#10;         580,627.0833333333333&#10;         464,627.0833333333333&#10;      "/><path d="&#10;        M696,652.0833333333333&#10;        C580,652.0833333333333&#10;         580,627.0833333333333&#10;         464,627.0833333333333&#10;      "/><path d="&#10;        M696,672.0833333333333&#10;        C580,672.0833333333333&#10;         580,702.0833333333333&#10;         464,702.0833333333333&#10;      "/><path d="&#10;        M696,682.0833333333333&#10;        C580,682.0833333333333&#10;         580,702.0833333333333&#10;         464,702.0833333333333&#10;      "/><path d="&#10;        M696,692.0833333333333&#10;        C580,692.0833333333333&#10;         580,702.0833333333333&#10;         464,702.0833333333333&#10;      "/><path d="&#10;        M696,702.0833333333333&#10;        C580,702.0833333333333&#10;         580,702.0833333333333&#10;         464,702.0833333333333&#10;      "/><path d="&#10;        M696,712.0833333333333&#10;        C580,712.0833333333333&#10;         580,702.0833333333333&#10;         464,702.0833333333333&#10;      "/><path d="&#10;        M696,722.0833333333333&#10;        C580,722.0833333333333&#10;         580,702.0833333333333&#10;         464,702.0833333333333&#10;      "/><path d="&#10;        M696,732.0833333333333&#10;        C580,732.0833333333333&#10;         580,702.0833333333333&#10;         464,702.0833333333333&#10;      "/><path d="&#10;        M696,752.0833333333333&#10;        C580,752.0833333333333&#10;         580,777.0833333333333&#10;         464,777.0833333333333&#10;      "/><path d="&#10;        M696,762.0833333333333&#10;        C580,762.0833333333333&#10;         580,777.0833333333333&#10;         464,777.0833333333333&#10;      "/><path d="&#10;        M696,772.0833333333333&#10;        C580,772.0833333333333&#10;         580,777.0833333333333&#10;         464,777.0833333333333&#10;      "/><path d="&#10;        M696,782.0833333333333&#10;        C580,782.0833333333333&#10;         580,777.0833333333333&#10;         464,777.0833333333333&#10;      "/><path d="&#10;        M696,792.0833333333333&#10;        C580,792.0833333333333&#10;         580,777.0833333333333&#10;         464,777.0833333333333&#10;      "/><path d="&#10;        M696,802.0833333333333&#10;        C580,802.0833333333333&#10;         580,777.0833333333333&#10;         464,777.0833333333333&#10;      "/><path d="&#10;        M696,822.0833333333333&#10;        C580,822.0833333333333&#10;         580,847.0833333333333&#10;         464,847.0833333333333&#10;      "/><path d="&#10;        M696,832.0833333333333&#10;        C580,832.0833333333333&#10;         580,847.0833333333333&#10;         464,847.0833333333333&#10;      "/><path d="&#10;        M696,842.0833333333333&#10;        C580,842.0833333333333&#10;         580,847.0833333333333&#10;         464,847.0833333333333&#10;      "/><path d="&#10;        M696,852.0833333333333&#10;        C580,852.0833333333333&#10;         580,847.0833333333333&#10;         464,847.0833333333333&#10;      "/><path d="&#10;        M696,862.0833333333333&#10;        C580,862.0833333333333&#10;         580,847.0833333333333&#10;         464,847.0833333333333&#10;      "/><path d="&#10;        M696,872.0833333333333&#10;        C580,872.0833333333333&#10;         580,847.0833333333333&#10;         464,847.0833333333333&#10;      "/></g><g><circle cx="0" cy="0" fill="#555" r="2.5"/><circle cx="232" cy="-599.1666666666667" fill="#555" r="2.5"/><circle cx="232" cy="-304.16666666666674" fill="#555" r="2.5"/><circle cx="232" cy="-36.25" fill="#555" r="2.5"/><circle cx="232" cy="275.83333333333326" fill="#555" r="2.5"/><circle cx="232" cy="663.7499999999999" fill="#555" r="2.5"/><circle cx="464" cy="-772.9166666666667" fill="#555" r="2.5"/><circle cx="464" cy="-642.9166666666667" fill="#555" r="2.5"/><circle cx="464" cy="-527.9166666666667" fill="#555" r="2.5"/><circle cx="464" cy="-452.91666666666674" fill="#555" r="2.5"/><circle cx="464" cy="-377.91666666666674" fill="#555" r="2.5"/><circle cx="464" cy="-322.91666666666674" fill="#555" r="2.5"/><circle cx="464" cy="-282.91666666666674" fill="#555" r="2.5"/><circle cx="464" cy="-232.9166666666667" fill="#555" r="2.5"/><circle cx="464" cy="-132.9166666666667" fill="#555" r="2.5"/><circle cx="464" cy="-32.916666666666714" fill="#555" r="2.5"/><circle cx="464" cy="57.083333333333286" fill="#555" r="2.5"/><circle cx="464" cy="167.0833333333333" fill="#555" r="2.5"/><circle cx="464" cy="257.08333333333326" fill="#555" r="2.5"/><circle cx="464" cy="312.08333333333326" fill="#555" r="2.5"/><circle cx="464" cy="367.08333333333326" fill="#555" r="2.5"/><circle cx="464" cy="467.08333333333326" fill="#555" r="2.5"/><circle cx="464" cy="562.0833333333333" fill="#555" r="2.5"/><circle cx="464" cy="627.0833333333333" fill="#555" r="2.5"/><circle cx="464" cy="702.0833333333333" fill="#555" r="2.5"/><circle cx="464" cy="777.0833333333333" fill="#555" r="2.5"/><circle cx="464" cy="847.0833333333333" fill="#555" r="2.5"/><circle cx="696" cy="-807.9166666666667" fill="#999" r="2.5"/><circle cx="696" cy="-797.9166666666667" fill="#999" r="2.5"/><circle cx="696" cy="-787.9166666666667" fill="#999" r="2.5"/><circle cx="696" cy="-777.9166666666667" fill="#999" r="2.5"/><circle cx="696" cy="-767.9166666666667" fill="#999" r="2.5"/><circle cx="696" cy="-757.9166666666667" fill="#999" r="2.5"/><circle cx="696" cy="-747.9166666666667" fill="#999" r="2.5"/><circle cx="696" cy="-737.9166666666667" fill="#999" r="2.5"/><circle cx="696" cy="-717.9166666666667" fill="#999" r="2.5"/><circle cx="696" cy="-707.9166666666667" fill="#999" r="2.5"/><circle cx="696" cy="-697.9166666666667" fill="#999" r="2.5"/><circle cx="696" cy="-687.9166666666667" fill="#999" r="2.5"/><circle cx="696" cy="-677.9166666666667" fill="#999" r="2.5"/><circle cx="696" cy="-667.9166666666667" fill="#999" r="2.5"/><circle cx="696" cy="-657.9166666666667" fill="#999" r="2.5"/><circle cx="696" cy="-647.9166666666667" fill="#999" r="2.5"/><circle cx="696" cy="-637.9166666666667" fill="#999" r="2.5"/><circle cx="696" cy="-627.9166666666667" fill="#999" r="2.5"/><circle cx="696" cy="-617.9166666666667" fill="#999" r="2.5"/><circle cx="696" cy="-607.9166666666667" fill="#999" r="2.5"/><circle cx="696" cy="-597.9166666666667" fill="#999" r="2.5"/><circle cx="696" cy="-587.9166666666667" fill="#999" r="2.5"/><circle cx="696" cy="-577.9166666666667" fill="#999" r="2.5"/><circle cx="696" cy="-567.9166666666667" fill="#999" r="2.5"/><circle cx="696" cy="-547.9166666666667" fill="#999" r="2.5"/><circle cx="696" cy="-537.9166666666667" fill="#999" r="2.5"/><circle cx="696" cy="-527.9166666666667" fill="#999" r="2.5"/><circle cx="696" cy="-517.9166666666667" fill="#999" r="2.5"/><circle cx="696" cy="-507.91666666666674" fill="#999" r="2.5"/><circle cx="696" cy="-487.91666666666674" fill="#999" r="2.5"/><circle cx="696" cy="-477.91666666666674" fill="#999" r="2.5"/><circle cx="696" cy="-467.91666666666674" fill="#999" r="2.5"/><circle cx="696" cy="-457.91666666666674" fill="#999" r="2.5"/><circle cx="696" cy="-447.91666666666674" fill="#999" r="2.5"/><circle cx="696" cy="-437.91666666666674" fill="#999" r="2.5"/><circle cx="696" cy="-427.91666666666674" fill="#999" r="2.5"/><circle cx="696" cy="-417.91666666666674" fill="#999" r="2.5"/><circle cx="696" cy="-397.91666666666674" fill="#999" r="2.5"/><circle cx="696" cy="-387.91666666666674" fill="#999" r="2.5"/><circle cx="696" cy="-377.91666666666674" fill="#999" r="2.5"/><circle cx="696" cy="-367.91666666666674" fill="#999" r="2.5"/><circle cx="696" cy="-357.91666666666674" fill="#999" r="2.5"/><circle cx="696" cy="-337.91666666666674" fill="#999" r="2.5"/><circle cx="696" cy="-327.91666666666674" fill="#999" r="2.5"/><circle cx="696" cy="-317.91666666666674" fill="#999" r="2.5"/><circle cx="696" cy="-307.91666666666674" fill="#999" r="2.5"/><circle cx="696" cy="-287.91666666666674" fill="#999" r="2.5"/><circle cx="696" cy="-277.91666666666674" fill="#999" r="2.5"/><circle cx="696" cy="-257.91666666666674" fill="#999" r="2.5"/><circle cx="696" cy="-247.9166666666667" fill="#999" r="2.5"/><circle cx="696" cy="-237.9166666666667" fill="#999" r="2.5"/><circle cx="696" cy="-227.9166666666667" fill="#999" r="2.5"/><circle cx="696" cy="-217.9166666666667" fill="#999" r="2.5"/><circle cx="696" cy="-207.9166666666667" fill="#999" r="2.5"/><circle cx="696" cy="-187.9166666666667" fill="#999" r="2.5"/><circle cx="696" cy="-177.9166666666667" fill="#999" r="2.5"/><circle cx="696" cy="-167.9166666666667" fill="#999" r="2.5"/><circle cx="696" cy="-157.9166666666667" fill="#999" r="2.5"/><circle cx="696" cy="-147.9166666666667" fill="#999" r="2.5"/><circle cx="696" cy="-137.9166666666667" fill="#999" r="2.5"/><circle cx="696" cy="-127.91666666666671" fill="#999" r="2.5"/><circle cx="696" cy="-117.91666666666671" fill="#999" r="2.5"/><circle cx="696" cy="-107.91666666666671" fill="#999" r="2.5"/><circle cx="696" cy="-97.91666666666671" fill="#999" r="2.5"/><circle cx="696" cy="-87.91666666666671" fill="#999" r="2.5"/><circle cx="696" cy="-77.91666666666671" fill="#999" r="2.5"/><circle cx="696" cy="-57.916666666666714" fill="#999" r="2.5"/><circle cx="696" cy="-47.916666666666714" fill="#999" r="2.5"/><circle cx="696" cy="-37.916666666666714" fill="#999" r="2.5"/><circle cx="696" cy="-27.916666666666714" fill="#999" r="2.5"/><circle cx="696" cy="-17.916666666666714" fill="#999" r="2.5"/><circle cx="696" cy="-7.916666666666714" fill="#999" r="2.5"/><circle cx="696" cy="12.083333333333286" fill="#999" r="2.5"/><circle cx="696" cy="22.083333333333286" fill="#999" r="2.5"/><circle cx="696" cy="32.083333333333286" fill="#999" r="2.5"/><circle cx="696" cy="42.083333333333286" fill="#999" r="2.5"/><circle cx="696" cy="52.083333333333286" fill="#999" r="2.5"/><circle cx="696" cy="62.083333333333286" fill="#999" r="2.5"/><circle cx="696" cy="72.08333333333329" fill="#999" r="2.5"/><circle cx="696" cy="82.08333333333329" fill="#999" r="2.5"/><circle cx="696" cy="92.08333333333329" fill="#999" r="2.5"/><circle cx="696" cy="102.08333333333329" fill="#999" r="2.5"/><circle cx="696" cy="122.08333333333329" fill="#999" r="2.5"/><circle cx="696" cy="132.0833333333333" fill="#999" r="2.5"/><circle cx="696" cy="142.0833333333333" fill="#999" r="2.5"/><circle cx="696" cy="152.0833333333333" fill="#999" r="2.5"/><circle cx="696" cy="162.0833333333333" fill="#999" r="2.5"/><circle cx="696" cy="172.0833333333333" fill="#999" r="2.5"/><circle cx="696" cy="182.0833333333333" fill="#999" r="2.5"/><circle cx="696" cy="192.0833333333333" fill="#999" r="2.5"/><circle cx="696" cy="202.0833333333333" fill="#999" r="2.5"/><circle cx="696" cy="212.0833333333333" fill="#999" r="2.5"/><circle cx="696" cy="232.0833333333333" fill="#999" r="2.5"/><circle cx="696" cy="242.0833333333333" fill="#999" r="2.5"/><circle cx="696" cy="252.0833333333333" fill="#999" r="2.5"/><circle cx="696" cy="262.08333333333326" fill="#999" r="2.5"/><circle cx="696" cy="272.08333333333326" fill="#999" r="2.5"/><circle cx="696" cy="282.08333333333326" fill="#999" r="2.5"/><circle cx="696" cy="302.08333333333326" fill="#999" r="2.5"/><circle cx="696" cy="312.08333333333326" fill="#999" r="2.5"/><circle cx="696" cy="322.08333333333326" fill="#999" r="2.5"/><circle cx="696" cy="342.08333333333326" fill="#999" r="2.5"/><circle cx="696" cy="352.08333333333326" fill="#999" r="2.5"/><circle cx="696" cy="362.08333333333326" fill="#999" r="2.5"/><circle cx="696" cy="372.08333333333326" fill="#999" r="2.5"/><circle cx="696" cy="382.08333333333326" fill="#999" r="2.5"/><circle cx="696" cy="392.08333333333326" fill="#999" r="2.5"/><circle cx="696" cy="412.08333333333326" fill="#999" r="2.5"/><circle cx="696" cy="422.08333333333326" fill="#999" r="2.5"/><circle cx="696" cy="432.08333333333326" fill="#999" r="2.5"/><circle cx="696" cy="442.08333333333326" fill="#999" r="2.5"/><circle cx="696" cy="452.08333333333326" fill="#999" r="2.5"/><circle cx="696" cy="462.08333333333326" fill="#999" r="2.5"/><circle cx="696" cy="472.08333333333326" fill="#999" r="2.5"/><circle cx="696" cy="482.08333333333326" fill="#999" r="2.5"/><circle cx="696" cy="492.08333333333326" fill="#999" r="2.5"/><circle cx="696" cy="502.08333333333326" fill="#999" r="2.5"/><circle cx="696" cy="512.0833333333333" fill="#999" r="2.5"/><circle cx="696" cy="522.0833333333333" fill="#999" r="2.5"/><circle cx="696" cy="542.0833333333333" fill="#999" r="2.5"/><circle cx="696" cy="552.0833333333333" fill="#999" r="2.5"/><circle cx="696" cy="562.0833333333333" fill="#999" r="2.5"/><circle cx="696" cy="572.0833333333333" fill="#999" r="2.5"/><circle cx="696" cy="582.0833333333333" fill="#999" r="2.5"/><circle cx="696" cy="602.0833333333333" fill="#999" r="2.5"/><circle cx="696" cy="612.0833333333333" fill="#999" r="2.5"/><circle cx="696" cy="622.0833333333333" fill="#999" r="2.5"/><circle cx="696" cy="632.0833333333333" fill="#999" r="2.5"/><circle cx="696" cy="642.0833333333333" fill="#999" r="2.5"/><circle cx="696" cy="652.0833333333333" fill="#999" r="2.5"/><circle cx="696" cy="672.0833333333333" fill="#999" r="2.5"/><circle cx="696" cy="682.0833333333333" fill="#999" r="2.5"/><circle cx="696" cy="692.0833333333333" fill="#999" r="2.5"/><circle cx="696" cy="702.0833333333333" fill="#999" r="2.5"/><circle cx="696" cy="712.0833333333333" fill="#999" r="2.5"/><circle cx="696" cy="722.0833333333333" fill="#999" r="2.5"/><circle cx="696" cy="732.0833333333333" fill="#999" r="2.5"/><circle cx="696" cy="752.0833333333333" fill="#999" r="2.5"/><circle cx="696" cy="762.0833333333333" fill="#999" r="2.5"/><circle cx="696" cy="772.0833333333333" fill="#999" r="2.5"/><circle cx="696" cy="782.0833333333333" fill="#999" r="2.5"/><circle cx="696" cy="792.0833333333333" fill="#999" r="2.5"/><circle cx="696" cy="802.0833333333333" fill="#999" r="2.5"/><circle cx="696" cy="822.0833333333333" fill="#999" r="2.5"/><circle cx="696" cy="832.0833333333333" fill="#999" r="2.5"/><circle cx="696" cy="842.0833333333333" fill="#999" r="2.5"/><circle cx="696" cy="852.0833333333333" fill="#999" r="2.5"/><circle cx="696" cy="862.0833333333333" fill="#999" r="2.5"/><circle cx="696" cy="872.0833333333333" fill="#999" r="2.5"/></g><g font-family="sans-serif" font-size="10" stroke-linejoin="round" stroke-width="3"><text x="464" y="847.0833333333333" dy="0.31em" dx="-6" text-anchor="end" stroke="white">Redefines the category</text><text x="464" y="777.0833333333333" dy="0.31em" dx="-6" text-anchor="end" stroke="white">Makes lives better</text><text x="464" y="702.0833333333333" dy="0.31em" dx="-6" text-anchor="end" stroke="white">Has a clear vision of the future</text><text x="464" y="627.0833333333333" dy="0.31em" dx="-6" text-anchor="end" stroke="white">Engaging experience at every touch point</text><text x="464" y="562.0833333333333" dy="0.31em" dx="-6" text-anchor="end" stroke="white">Delivers sustainable value</text><text x="464" y="467.08333333333326" dy="0.31em" dx="-6" text-anchor="end" stroke="white">Builds a strong emotional connection</text><text x="464" y="367.08333333333326" dy="0.31em" dx="-6" text-anchor="end" stroke="white">Redefines the category</text><text x="464" y="312.08333333333326" dy="0.31em" dx="-6" text-anchor="end" stroke="white">Makes lives better</text><text x="464" y="257.08333333333326" dy="0.31em" dx="-6" text-anchor="end" stroke="white">Has a clear vision of the future</text><text x="464" y="167.0833333333333" dy="0.31em" dx="-6" text-anchor="end" stroke="white">Builds a strong emotional connection</text><text x="464" y="57.083333333333286" dy="0.31em" dx="-6" text-anchor="end" stroke="white">Redefines the category</text><text x="464" y="-32.916666666666714" dy="0.31em" dx="-6" text-anchor="end" stroke="white">Makes lives better</text><text x="464" y="-132.9166666666667" dy="0.31em" dx="-6" text-anchor="end" stroke="white">Builds a strong emotional connection</text><text x="464" y="-232.9166666666667" dy="0.31em" dx="-6" text-anchor="end" stroke="white">Redefines the category</text><text x="464" y="-282.91666666666674" dy="0.31em" dx="-6" text-anchor="end" stroke="white">Makes lives better</text><text x="464" y="-322.91666666666674" dy="0.31em" dx="-6" text-anchor="end" stroke="white">Engaging experience at every touch point</text><text x="464" y="-377.91666666666674" dy="0.31em" dx="-6" text-anchor="end" stroke="white">Builds a strong emotional connection</text><text x="464" y="-452.91666666666674" dy="0.31em" dx="-6" text-anchor="end" stroke="white">Redefines the category</text><text x="464" y="-527.9166666666667" dy="0.31em" dx="-6" text-anchor="end" stroke="white">Makes lives better</text><text x="464" y="-642.9166666666667" dy="0.31em" dx="-6" text-anchor="end" stroke="white">Has a clear vision of the future</text><text x="464" y="-772.9166666666667" dy="0.31em" dx="-6" text-anchor="end" stroke="white">Builds a strong emotional connection</text><text x="232" y="663.7499999999999" dy="0.31em" dx="-6" text-anchor="end" stroke="white">iFood</text><text x="232" y="275.83333333333326" dy="0.31em" dx="-6" text-anchor="end" stroke="white">Nubank</text><text x="232" y="-36.25" dy="0.31em" dx="-6" text-anchor="end" stroke="white">Netflix</text><text x="232" y="-304.16666666666674" dy="0.31em" dx="-6" text-anchor="end" stroke="white">Natura</text><text x="232" y="-599.1666666666667" dy="0.31em" dx="-6" text-anchor="end" stroke="white">Magalu</text><text x="0" y="0" dy="0.31em" dx="-6" text-anchor="end" stroke="white"/><text x="0" y="0" dy="0.31em" dx="-6" text-anchor="end"/><text x="232" y="-599.1666666666667" dy="0.31em" dx="-6" text-anchor="end">Magalu</text><text x="232" y="-304.16666666666674" dy="0.31em" dx="-6" text-anchor="end">Natura</text><text x="232" y="-36.25" dy="0.31em" dx="-6" text-anchor="end">Netflix</text><text x="232" y="275.83333333333326" dy="0.31em" dx="-6" text-anchor="end">Nubank</text><text x="232" y="663.7499999999999" dy="0.31em" dx="-6" text-anchor="end">iFood</text><text x="464" y="-772.9166666666667" dy="0.31em" dx="-6" text-anchor="end">Builds a strong emotional connection</text><text x="464" y="-642.9166666666667" dy="0.31em" dx="-6" text-anchor="end">Has a clear vision of the future</text><text x="464" y="-527.9166666666667" dy="0.31em" dx="-6" text-anchor="end">Makes lives better</text><text x="464" y="-452.91666666666674" dy="0.31em" dx="-6" text-anchor="end">Redefines the category</text><text x="464" y="-377.91666666666674" dy="0.31em" dx="-6" text-anchor="end">Builds a strong emotional connection</text><text x="464" y="-322.91666666666674" dy="0.31em" dx="-6" text-anchor="end">Engaging experience at every touch point</text><text x="464" y="-282.91666666666674" dy="0.31em" dx="-6" text-anchor="end">Makes lives better</text><text x="464" y="-232.9166666666667" dy="0.31em" dx="-6" text-anchor="end">Redefines the category</text><text x="464" y="-132.9166666666667" dy="0.31em" dx="-6" text-anchor="end">Builds a strong emotional connection</text><text x="464" y="-32.916666666666714" dy="0.31em" dx="-6" text-anchor="end">Makes lives better</text><text x="464" y="57.083333333333286" dy="0.31em" dx="-6" text-anchor="end">Redefines the category</text><text x="464" y="167.0833333333333" dy="0.31em" dx="-6" text-anchor="end">Builds a strong emotional connection</text><text x="464" y="257.08333333333326" dy="0.31em" dx="-6" text-anchor="end">Has a clear vision of the future</text><text x="464" y="312.08333333333326" dy="0.31em" dx="-6" text-anchor="end">Makes lives better</text><text x="464" y="367.08333333333326" dy="0.31em" dx="-6" text-anchor="end">Redefines the category</text><text x="464" y="467.08333333333326" dy="0.31em" dx="-6" text-anchor="end">Builds a strong emotional connection</text><text x="464" y="562.0833333333333" dy="0.31em" dx="-6" text-anchor="end">Delivers sustainable value</text><text x="464" y="627.0833333333333" dy="0.31em" dx="-6" text-anchor="end">Engaging experience at every touch point</text><text x="464" y="702.0833333333333" dy="0.31em" dx="-6" text-anchor="end">Has a clear vision of the future</text><text x="464" y="777.0833333333333" dy="0.31em" dx="-6" text-anchor="end">Makes lives better</text><text x="464" y="847.0833333333333" dy="0.31em" dx="-6" text-anchor="end">Redefines the category</text><text x="696" y="-807.9166666666667" dy="0.31em" dx="6">Compartilhamentos de publicações com sentimento positivo</text><text x="696" y="-797.9166666666667" dy="0.31em" dx="6">Instagram - Média de comentários por publicação</text><text x="696" y="-787.9166666666667" dy="0.31em" dx="6">Instagram - Média de curtidas por publicação</text><text x="696" y="-777.9166666666667" dy="0.31em" dx="6">Instagram - Total de comentários</text><text x="696" y="-767.9166666666667" dy="0.31em" dx="6">Respostas em publicações com sentimento positivo</text><text x="696" y="-757.9166666666667" dy="0.31em" dx="6">Twitter - Total de interações</text><text x="696" y="-747.9166666666667" dy="0.31em" dx="6">Volume acumulado de menções positivas no ano</text><text x="696" y="-737.9166666666667" dy="0.31em" dx="6">Volume total de menções</text><text x="696" y="-717.9166666666667" dy="0.31em" dx="6">Análise de domínio do site - Total de visitas</text><text x="696" y="-707.9166666666667" dy="0.31em" dx="6">Análise de domínio do site - Tráfego orgânico</text><text x="696" y="-697.9166666666667" dy="0.31em" dx="6">Análise de domínio do site - Tráfego pago Adwords</text><text x="696" y="-687.9166666666667" dy="0.31em" dx="6">Análise de domínio do site - Visitantes únicos</text><text x="696" y="-677.9166666666667" dy="0.31em" dx="6">Facebook - Curtidas nas publicações da página</text><text x="696" y="-667.9166666666667" dy="0.31em" dx="6">Facebook - Pessoas falando sobre</text><text x="696" y="-657.9166666666667" dy="0.31em" dx="6">Facebook - Seguidores</text><text x="696" y="-647.9166666666667" dy="0.31em" dx="6">Glassdoor - Avaliação da liderança corporativa</text><text x="696" y="-637.9166666666667" dy="0.31em" dx="6">Glassdoor - Avaliação dos benefícios oferecidos pela empresa</text><text x="696" y="-627.9166666666667" dy="0.31em" dx="6">Instagram - Total de curtidas</text><text x="696" y="-617.9166666666667" dy="0.31em" dx="6">Instagram - Total de seguidores</text><text x="696" y="-607.9166666666667" dy="0.31em" dx="6">Previsão de menções positivas sobre inovação</text><text x="696" y="-597.9166666666667" dy="0.31em" dx="6">Total de menções Positivas sobre Inovação</text><text x="696" y="-587.9166666666667" dy="0.31em" dx="6">Twitter - Publicações</text><text x="696" y="-577.9166666666667" dy="0.31em" dx="6">Volume total de menções</text><text x="696" y="-567.9166666666667" dy="0.31em" dx="6">Volume total de publicações positivas</text><text x="696" y="-547.9166666666667" dy="0.31em" dx="6">ReclameAqui - Índice de solução das reclamações</text><text x="696" y="-537.9166666666667" dy="0.31em" dx="6">Total de menções Positivas sobre Inovação</text><text x="696" y="-527.9166666666667" dy="0.31em" dx="6">Volume acumulado de menções positivas no ano</text><text x="696" y="-517.9166666666667" dy="0.31em" dx="6">Volume total de menções</text><text x="696" y="-507.91666666666674" dy="0.31em" dx="6">Volume total de publicações positivas</text><text x="696" y="-487.91666666666674" dy="0.31em" dx="6">Análise de domínio do site - Visitantes únicos</text><text x="696" y="-477.91666666666674" dy="0.31em" dx="6">Facebook - Curtidas nas publicações da página</text><text x="696" y="-467.91666666666674" dy="0.31em" dx="6">Facebook - Pessoas falando sobre</text><text x="696" y="-457.91666666666674" dy="0.31em" dx="6">Facebook - Seguidores</text><text x="696" y="-447.91666666666674" dy="0.31em" dx="6">Instagram - Total de curtidas</text><text x="696" y="-437.91666666666674" dy="0.31em" dx="6">Instagram - Total de seguidores</text><text x="696" y="-427.91666666666674" dy="0.31em" dx="6">Total de menções Positivas sobre Inovação</text><text x="696" y="-417.91666666666674" dy="0.31em" dx="6">Volume total de publicações positivas</text><text x="696" y="-397.91666666666674" dy="0.31em" dx="6">Compartilhamentos de publicações com sentimento positivo</text><text x="696" y="-387.91666666666674" dy="0.31em" dx="6">Instagram - Total de comentários</text><text x="696" y="-377.91666666666674" dy="0.31em" dx="6">Perspectiva de crescimento em menções negativas de influenciadores</text><text x="696" y="-367.91666666666674" dy="0.31em" dx="6">Perspectiva de crescimento em menções positivas de influenciadores</text><text x="696" y="-357.91666666666674" dy="0.31em" dx="6">Volume estimado de menções negativas para o próximo ano</text><text x="696" y="-337.91666666666674" dy="0.31em" dx="6">Análise de domínio do site - Tempo média por visita</text><text x="696" y="-327.91666666666674" dy="0.31em" dx="6">Compartilhamentos de publicações com sentimento positivo</text><text x="696" y="-317.91666666666674" dy="0.31em" dx="6">Perspectiva de crescimento em menções negativas de influenciadores</text><text x="696" y="-307.91666666666674" dy="0.31em" dx="6">Perspectiva de crescimento em menções positivas de influenciadores</text><text x="696" y="-287.91666666666674" dy="0.31em" dx="6">ReclameAqui - Avaliação do consumidor</text><text x="696" y="-277.91666666666674" dy="0.31em" dx="6">ReclameAqui - Índice de solução das reclamações</text><text x="696" y="-257.91666666666674" dy="0.31em" dx="6">Facebook - Curtidas nas publicações da página</text><text x="696" y="-247.9166666666667" dy="0.31em" dx="6">Facebook - Pessoas falando sobre</text><text x="696" y="-237.9166666666667" dy="0.31em" dx="6">Facebook - Seguidores</text><text x="696" y="-227.9166666666667" dy="0.31em" dx="6">Instagram - Total de seguidores</text><text x="696" y="-217.9166666666667" dy="0.31em" dx="6">Youtube - Inscritos no canal</text><text x="696" y="-207.9166666666667" dy="0.31em" dx="6">Youtube - Total de Visualizações acumuladas</text><text x="696" y="-187.9166666666667" dy="0.31em" dx="6">Compartilhamentos de publicações com sentimento positivo</text><text x="696" y="-177.9166666666667" dy="0.31em" dx="6">Estimativa de menções influentes com sentimento positivo</text><text x="696" y="-167.9166666666667" dy="0.31em" dx="6">Estimativa futura de menções positivas</text><text x="696" y="-157.9166666666667" dy="0.31em" dx="6">Instagram - Média de comentários por publicação</text><text x="696" y="-147.9166666666667" dy="0.31em" dx="6">Instagram - Média de curtidas por publicação</text><text x="696" y="-137.9166666666667" dy="0.31em" dx="6">Instagram - Total de comentários</text><text x="696" y="-127.91666666666671" dy="0.31em" dx="6">Previsão de crescimento no volume de menções</text><text x="696" y="-117.91666666666671" dy="0.31em" dx="6">Respostas em publicações com sentimento positivo</text><text x="696" y="-107.91666666666671" dy="0.31em" dx="6">Total de menções influentes com sentimento positivo</text><text x="696" y="-97.91666666666671" dy="0.31em" dx="6">Twitter - Total de interações</text><text x="696" y="-87.91666666666671" dy="0.31em" dx="6">Volume total de menções</text><text x="696" y="-77.91666666666671" dy="0.31em" dx="6">Volume total de publicações positivas</text><text x="696" y="-57.916666666666714" dy="0.31em" dx="6">ReclameAqui - Avaliação do consumidor</text><text x="696" y="-47.916666666666714" dy="0.31em" dx="6">Total de menções Positivas sobre Inovação</text><text x="696" y="-37.916666666666714" dy="0.31em" dx="6">Total de menções influentes com sentimento positivo</text><text x="696" y="-27.916666666666714" dy="0.31em" dx="6">Volume acumulado de menções positivas no ano</text><text x="696" y="-17.916666666666714" dy="0.31em" dx="6">Volume total de menções</text><text x="696" y="-7.916666666666714" dy="0.31em" dx="6">Volume total de publicações positivas</text><text x="696" y="12.083333333333286" dy="0.31em" dx="6">Análise de domínio do site - Visitantes únicos</text><text x="696" y="22.083333333333286" dy="0.31em" dx="6">Facebook - Curtidas nas publicações da página</text><text x="696" y="32.083333333333286" dy="0.31em" dx="6">Facebook - Pessoas falando sobre</text><text x="696" y="42.083333333333286" dy="0.31em" dx="6">Facebook - Seguidores</text><text x="696" y="52.083333333333286" dy="0.31em" dx="6">Instagram - Total de curtidas</text><text x="696" y="62.083333333333286" dy="0.31em" dx="6">Instagram - Total de seguidores</text><text x="696" y="72.08333333333329" dy="0.31em" dx="6">Total de menções Positivas sobre Inovação</text><text x="696" y="82.08333333333329" dy="0.31em" dx="6">Volume total de menções</text><text x="696" y="92.08333333333329" dy="0.31em" dx="6">Volume total de publicações positivas</text><text x="696" y="102.08333333333329" dy="0.31em" dx="6">Youtube - Total de Visualizações acumuladas</text><text x="696" y="122.08333333333329" dy="0.31em" dx="6">Estimativa de menções influentes com sentimento positivo</text><text x="696" y="132.0833333333333" dy="0.31em" dx="6">Estimativa futura de menções positivas</text><text x="696" y="142.0833333333333" dy="0.31em" dx="6">Instagram - Média de comentários por publicação</text><text x="696" y="152.0833333333333" dy="0.31em" dx="6">Instagram - Média de curtidas por publicação</text><text x="696" y="162.0833333333333" dy="0.31em" dx="6">Instagram - Total de comentários</text><text x="696" y="172.0833333333333" dy="0.31em" dx="6">Previsão de crescimento no volume de menções</text><text x="696" y="182.0833333333333" dy="0.31em" dx="6">Respostas em publicações com sentimento positivo</text><text x="696" y="192.0833333333333" dy="0.31em" dx="6">Total de menções influentes com sentimento positivo</text><text x="696" y="202.0833333333333" dy="0.31em" dx="6">Twitter - Total de interações</text><text x="696" y="212.0833333333333" dy="0.31em" dx="6">Volume total de menções</text><text x="696" y="232.0833333333333" dy="0.31em" dx="6">Análise de domínio do site - Tráfego orgânico</text><text x="696" y="242.0833333333333" dy="0.31em" dx="6">Estimativa futura de menções positivas</text><text x="696" y="252.0833333333333" dy="0.31em" dx="6">Glassdoor - Avaliação da liderança corporativa</text><text x="696" y="262.08333333333326" dy="0.31em" dx="6">Previsão de crescimento no volume de menções</text><text x="696" y="272.08333333333326" dy="0.31em" dx="6">Previsão de menções positivas sobre inovação</text><text x="696" y="282.08333333333326" dy="0.31em" dx="6">Twitter - Publicações</text><text x="696" y="302.08333333333326" dy="0.31em" dx="6">Total de menções influentes com sentimento positivo</text><text x="696" y="312.08333333333326" dy="0.31em" dx="6">Volume acumulado de menções positivas no ano</text><text x="696" y="322.08333333333326" dy="0.31em" dx="6">Volume total de menções</text><text x="696" y="342.08333333333326" dy="0.31em" dx="6">Análise de domínio do site - Visitantes únicos</text><text x="696" y="352.08333333333326" dy="0.31em" dx="6">Facebook - Pessoas falando sobre</text><text x="696" y="362.08333333333326" dy="0.31em" dx="6">Glassdoor - Avaliação Geral</text><text x="696" y="372.08333333333326" dy="0.31em" dx="6">Instagram - Total de seguidores</text><text x="696" y="382.08333333333326" dy="0.31em" dx="6">Volume total de menções</text><text x="696" y="392.08333333333326" dy="0.31em" dx="6">Youtube - Inscritos no canal</text><text x="696" y="412.08333333333326" dy="0.31em" dx="6">Compartilhamentos de publicações com sentimento positivo</text><text x="696" y="422.08333333333326" dy="0.31em" dx="6">Estimativa de menções influentes com sentimento positivo</text><text x="696" y="432.08333333333326" dy="0.31em" dx="6">Estimativa futura de menções positivas</text><text x="696" y="442.08333333333326" dy="0.31em" dx="6">Instagram - Média de comentários por publicação</text><text x="696" y="452.08333333333326" dy="0.31em" dx="6">Instagram - Seguindo</text><text x="696" y="462.08333333333326" dy="0.31em" dx="6">Perspectiva de crescimento em menções positivas de influenciadores</text><text x="696" y="472.08333333333326" dy="0.31em" dx="6">Previsão de crescimento no volume de menções</text><text x="696" y="482.08333333333326" dy="0.31em" dx="6">Respostas em publicações com sentimento positivo</text><text x="696" y="492.08333333333326" dy="0.31em" dx="6">Total de menções influentes com sentimento positivo</text><text x="696" y="502.08333333333326" dy="0.31em" dx="6">Twitter - Total de interações</text><text x="696" y="512.0833333333333" dy="0.31em" dx="6">Volume acumulado de menções positivas no ano</text><text x="696" y="522.0833333333333" dy="0.31em" dx="6">Volume total de publicações positivas</text><text x="696" y="542.0833333333333" dy="0.31em" dx="6">Compartilhamentos de publicações com sentimento positivo</text><text x="696" y="552.0833333333333" dy="0.31em" dx="6">Glassdoor - Perspectiva Positiva</text><text x="696" y="562.0833333333333" dy="0.31em" dx="6">Perspectiva de crescimento em menções positivas de influenciadores</text><text x="696" y="572.0833333333333" dy="0.31em" dx="6">ReclameAqui - Disposição para fazer negócios</text><text x="696" y="582.0833333333333" dy="0.31em" dx="6">Youtube - Interações por publicação</text><text x="696" y="602.0833333333333" dy="0.31em" dx="6">Análise de domínio do site - Tempo média por visita</text><text x="696" y="612.0833333333333" dy="0.31em" dx="6">Compartilhamentos de publicações com sentimento positivo</text><text x="696" y="622.0833333333333" dy="0.31em" dx="6">Estimativa de menções influentes com sentimento positivo</text><text x="696" y="632.0833333333333" dy="0.31em" dx="6">Respostas em publicações com sentimento positivo</text><text x="696" y="642.0833333333333" dy="0.31em" dx="6">Total de menções influentes com sentimento positivo</text><text x="696" y="652.0833333333333" dy="0.31em" dx="6">Volume total de publicações positivas</text><text x="696" y="672.0833333333333" dy="0.31em" dx="6">Análise de domínio do site - Total de visitas</text><text x="696" y="682.0833333333333" dy="0.31em" dx="6">Análise de domínio do site - Tráfego orgânico</text><text x="696" y="692.0833333333333" dy="0.31em" dx="6">Estimativa futura de menções positivas</text><text x="696" y="702.0833333333333" dy="0.31em" dx="6">Glassdoor - Avaliação da liderança corporativa</text><text x="696" y="712.0833333333333" dy="0.31em" dx="6">Glassdoor - Avaliação dos benefícios oferecidos pela empresa</text><text x="696" y="722.0833333333333" dy="0.31em" dx="6">Glassdoor - Recomenda</text><text x="696" y="732.0833333333333" dy="0.31em" dx="6">Twitter - Publicações</text><text x="696" y="752.0833333333333" dy="0.31em" dx="6">ReclameAqui - Avaliação do consumidor</text><text x="696" y="762.0833333333333" dy="0.31em" dx="6">Total de menções Positivas sobre Inovação</text><text x="696" y="772.0833333333333" dy="0.31em" dx="6">Total de menções influentes com sentimento positivo</text><text x="696" y="782.0833333333333" dy="0.31em" dx="6">Volume acumulado de menções positivas no ano</text><text x="696" y="792.0833333333333" dy="0.31em" dx="6">Volume total de menções</text><text x="696" y="802.0833333333333" dy="0.31em" dx="6">Volume total de publicações positivas</text><text x="696" y="822.0833333333333" dy="0.31em" dx="6">Facebook - Pessoas falando sobre</text><text x="696" y="832.0833333333333" dy="0.31em" dx="6">Glassdoor - Avaliação Geral</text><text x="696" y="842.0833333333333" dy="0.31em" dx="6">Volume total de menções</text><text x="696" y="852.0833333333333" dy="0.31em" dx="6">Volume total de publicações positivas</text><text x="696" y="862.0833333333333" dy="0.31em" dx="6">Youtube - Inscritos no canal</text><text x="696" y="872.0833333333333" dy="0.31em" dx="6">Youtube - Total de Visualizações acumuladas</text></g></svg>