<svg xmlns='http://www.w3.org/2000/svg' version='1.1' width='746px' height='633px'><svg xmlns="http://www.w3.org/2000/svg" fill="currentColor" style="width: 735px; height: 546.409px;" x="10.5" y="86.30000305175781"><g id="wrapper-g"><g id="axes"><g class="fl-facets"><g class="fl-facet" transform="translate(0, 0)" opacity="1"><g class="fl-facet-title"><rect class="fl-facet-title-bg" height="24.037999999999997" width="0" fill="rgb(238, 238, 238)" x="81.17708333333333" opacity="1"/><text class="fl-facet-title-text" font-size="19.324666666666666" font-weight="600" dx="0" dy="17.816399999999998" x="81.17708333333333" opacity="1">NUBANK</text></g><g class="fl-facet-primary" transform="translate(0, 24.037999999999997)"><g class="fl-radial" transform="translate(117.83333333333333, 117.83333333333331)" opacity="1"><g class="group-labels"/><g class="y-lines"><circle class="fl-radial-x-line" fill="none" stroke="#cccccc" stroke-width="0.2828" stroke-dasharray="2.8279999999999994 4.713333333333333" r="13.14002997022582"/><circle class="fl-radial-x-line" fill="none" stroke="#cccccc" stroke-width="0.2828" stroke-dasharray="2.8279999999999994 4.713333333333333" r="39.42008991067745"/><circle class="fl-radial-x-line" fill="none" stroke="#cccccc" stroke-width="0.2828" stroke-dasharray="2.8279999999999994 4.713333333333333" r="65.70014985112908"/></g><g class="x-lines"><line class="fl-radial-y-line" x1="0" y1="0" x2="0" y2="-99.69867256211802" stroke="#d076ab" stroke-width="0.4713333333333333"/><line class="fl-radial-y-line" x1="0" y1="0" x2="86.34158316238079" y2="-49.849336281059024" stroke="#d076ab" stroke-width="0.4713333333333333"/><line class="fl-radial-y-line" x1="0" y1="0" x2="86.3415831623808" y2="49.84933628105899" stroke="#d076ab" stroke-width="0.4713333333333333"/><line class="fl-radial-y-line" x1="0" y1="0" x2="1.2209566023243788e-14" y2="99.69867256211802" stroke="#d076ab" stroke-width="0.4713333333333333"/><line class="fl-radial-y-line" x1="0" y1="0" x2="-86.34158316238077" y2="49.84933628105905" stroke="#d076ab" stroke-width="0.4713333333333333"/><line class="fl-radial-y-line" x1="0" y1="0" x2="-86.34158316238079" y2="-49.849336281059024" stroke="#d076ab" stroke-width="0.4713333333333333"/></g><g class="y-labels"><g class="fl-radial-y-label" opacity="1" text-anchor="middle" font-weight="400" font-size="7.541333333333333" transform="translate(0, -13.140029907226562)"><text class="bg" stroke="#ffffff" stroke-width="2.8279999999999994" dy="0.33em">0.4</text><text class="fg" dy="0.33em" fill="#aaaaaa">0.4</text></g><g class="fl-radial-y-label" opacity="1" text-anchor="middle" font-weight="400" font-size="7.541333333333333" transform="translate(0, -39.42008972167969)"><text class="bg" stroke="#ffffff" stroke-width="2.8279999999999994" dy="0.33em">0.6</text><text class="fg" dy="0.33em" fill="#aaaaaa">0.6</text></g><g class="fl-radial-y-label" opacity="1" text-anchor="middle" font-weight="400" font-size="7.541333333333333" transform="translate(0, -65.70014953613281)"><text class="bg" stroke="#ffffff" stroke-width="2.8279999999999994" dy="0.33em">0.8</text><text class="fg" dy="0.33em" fill="#aaaaaa">0.8</text></g></g><g class="x-labels"><g class="fl-radial-x-label" opacity="1" text-anchor="middle" font-size="3.7706666666666666" font-weight="400" fill="#050505" transform="translate(0, -99.69866943359375)"><text class="bg" stroke="#ffffff" stroke-width="0.9426666666666667" dy="0.33em">SUM of Clear Vision W</text><text class="fg" dy="0.33em">SUM of Clear Vision W</text></g><g class="fl-radial-x-label" opacity="1" text-anchor="middle" font-size="3.7706666666666666" font-weight="400" fill="#050505" transform="translate(86.34158325195312, -49.849334716796875)"><text class="bg" stroke="#ffffff" stroke-width="0.9426666666666667" dy="0.33em">SUM of Redefines Category W</text><text class="fg" dy="0.33em">SUM of Redefines Category W</text></g><g class="fl-radial-x-label" opacity="1" text-anchor="middle" font-size="3.7706666666666666" font-weight="400" fill="#050505" transform="translate(86.34158325195312, 49.849334716796875)"><text class="bg" stroke="#ffffff" stroke-width="0.9426666666666667" dy="0.33em">SUM of Deliver Value W</text><text class="fg" dy="0.33em">SUM of Deliver Value W</text></g><g class="fl-radial-x-label" opacity="1" text-anchor="middle" font-size="3.7706666666666666" font-weight="400" fill="#050505" transform="translate(1.2209565735559532e-14, 99.69866943359375)"><text class="bg" stroke="#ffffff" stroke-width="0.9426666666666667" dy="0.33em">SUM of Builds Connection W</text><text class="fg" dy="0.33em">SUM of Builds Connection W</text></g><g class="fl-radial-x-label" opacity="1" text-anchor="middle" font-size="3.7706666666666666" font-weight="400" fill="#050505" transform="translate(-86.34158325195312, 49.849334716796875)"><text class="bg" stroke="#ffffff" stroke-width="0.9426666666666667" dy="0.33em">SUM of Engaging Experience W</text><text class="fg" dy="0.33em">SUM of Engaging Experience W</text></g><g class="fl-radial-x-label" opacity="1" text-anchor="middle" font-size="3.7706666666666666" font-weight="400" fill="#050505" transform="translate(-86.34158325195312, -49.849334716796875)"><text class="bg" stroke="#ffffff" stroke-width="0.9426666666666667" dy="0.33em">SUM of Life Better W</text><text class="fg" dy="0.33em">SUM of Life Better W</text></g></g></g></g></g><g class="fl-facet" transform="translate(249.66666666666666, 0)" opacity="1"><g class="fl-facet-title"><rect class="fl-facet-title-bg" height="24.037999999999997" width="0" fill="rgb(238, 238, 238)" x="83.33333333333333" opacity="1"/><text class="fl-facet-title-text" font-size="19.324666666666666" font-weight="600" dx="0" dy="17.816399999999998" x="83.33333333333333" opacity="1">NATURA</text></g><g class="fl-facet-primary" transform="translate(0, 24.037999999999997)"><g class="fl-radial" transform="translate(117.83333333333333, 117.83333333333331)" opacity="1"><g class="group-labels"/><g class="y-lines"><circle class="fl-radial-x-line" fill="none" stroke="#cccccc" stroke-width="0.2828" stroke-dasharray="2.8279999999999994 4.713333333333333" r="13.14002997022582"/><circle class="fl-radial-x-line" fill="none" stroke="#cccccc" stroke-width="0.2828" stroke-dasharray="2.8279999999999994 4.713333333333333" r="39.42008991067745"/><circle class="fl-radial-x-line" fill="none" stroke="#cccccc" stroke-width="0.2828" stroke-dasharray="2.8279999999999994 4.713333333333333" r="65.70014985112908"/></g><g class="x-lines"><line class="fl-radial-y-line" x1="0" y1="0" x2="0" y2="-99.69867256211802" stroke="#d076ab" stroke-width="0.4713333333333333"/><line class="fl-radial-y-line" x1="0" y1="0" x2="86.34158316238079" y2="-49.849336281059024" stroke="#d076ab" stroke-width="0.4713333333333333"/><line class="fl-radial-y-line" x1="0" y1="0" x2="86.3415831623808" y2="49.84933628105899" stroke="#d076ab" stroke-width="0.4713333333333333"/><line class="fl-radial-y-line" x1="0" y1="0" x2="1.2209566023243788e-14" y2="99.69867256211802" stroke="#d076ab" stroke-width="0.4713333333333333"/><line class="fl-radial-y-line" x1="0" y1="0" x2="-86.34158316238077" y2="49.84933628105905" stroke="#d076ab" stroke-width="0.4713333333333333"/><line class="fl-radial-y-line" x1="0" y1="0" x2="-86.34158316238079" y2="-49.849336281059024" stroke="#d076ab" stroke-width="0.4713333333333333"/></g><g class="y-labels"><g class="fl-radial-y-label" opacity="1" text-anchor="middle" font-weight="400" font-size="7.541333333333333" transform="translate(0, -13.140029907226562)"><text class="bg" stroke="#ffffff" stroke-width="2.8279999999999994" dy="0.33em">0.4</text><text class="fg" dy="0.33em" fill="#aaaaaa">0.4</text></g><g class="fl-radial-y-label" opacity="1" text-anchor="middle" font-weight="400" font-size="7.541333333333333" transform="translate(0, -39.42008972167969)"><text class="bg" stroke="#ffffff" stroke-width="2.8279999999999994" dy="0.33em">0.6</text><text class="fg" dy="0.33em" fill="#aaaaaa">0.6</text></g><g class="fl-radial-y-label" opacity="1" text-anchor="middle" font-weight="400" font-size="7.541333333333333" transform="translate(0, -65.70014953613281)"><text class="bg" stroke="#ffffff" stroke-width="2.8279999999999994" dy="0.33em">0.8</text><text class="fg" dy="0.33em" fill="#aaaaaa">0.8</text></g></g><g class="x-labels"><g class="fl-radial-x-label" opacity="1" text-anchor="middle" font-size="3.7706666666666666" font-weight="400" fill="#050505" transform="translate(0, -99.69866943359375)"><text class="bg" stroke="#ffffff" stroke-width="0.9426666666666667" dy="0.33em">SUM of Clear Vision W</text><text class="fg" dy="0.33em">SUM of Clear Vision W</text></g><g class="fl-radial-x-label" opacity="1" text-anchor="middle" font-size="3.7706666666666666" font-weight="400" fill="#050505" transform="translate(86.34158325195312, -49.849334716796875)"><text class="bg" stroke="#ffffff" stroke-width="0.9426666666666667" dy="0.33em">SUM of Redefines Category W</text><text class="fg" dy="0.33em">SUM of Redefines Category W</text></g><g class="fl-radial-x-label" opacity="1" text-anchor="middle" font-size="3.7706666666666666" font-weight="400" fill="#050505" transform="translate(86.34158325195312, 49.849334716796875)"><text class="bg" stroke="#ffffff" stroke-width="0.9426666666666667" dy="0.33em">SUM of Deliver Value W</text><text class="fg" dy="0.33em">SUM of Deliver Value W</text></g><g class="fl-radial-x-label" opacity="1" text-anchor="middle" font-size="3.7706666666666666" font-weight="400" fill="#050505" transform="translate(1.2209565735559532e-14, 99.69866943359375)"><text class="bg" stroke="#ffffff" stroke-width="0.9426666666666667" dy="0.33em">SUM of Builds Connection W</text><text class="fg" dy="0.33em">SUM of Builds Connection W</text></g><g class="fl-radial-x-label" opacity="1" text-anchor="middle" font-size="3.7706666666666666" font-weight="400" fill="#050505" transform="translate(-86.34158325195312, 49.849334716796875)"><text class="bg" stroke="#ffffff" stroke-width="0.9426666666666667" dy="0.33em">SUM of Engaging Experience W</text><text class="fg" dy="0.33em">SUM of Engaging Experience W</text></g><g class="fl-radial-x-label" opacity="1" text-anchor="middle" font-size="3.7706666666666666" font-weight="400" fill="#050505" transform="translate(-86.34158325195312, -49.849334716796875)"><text class="bg" stroke="#ffffff" stroke-width="0.9426666666666667" dy="0.33em">SUM of Life Better W</text><text class="fg" dy="0.33em">SUM of Life Better W</text></g></g></g></g></g><g class="fl-facet" transform="translate(499.3333333333333, 0)" opacity="1"><g class="fl-facet-title"><rect class="fl-facet-title-bg" height="24.037999999999997" width="0" fill="rgb(238, 238, 238)" x="82.32552083333333" opacity="1"/><text class="fl-facet-title-text" font-size="19.324666666666666" font-weight="600" dx="0" dy="17.816399999999998" x="82.32552083333333" opacity="1">MAGALU</text></g><g class="fl-facet-primary" transform="translate(0, 24.037999999999997)"><g class="fl-radial" transform="translate(117.83333333333333, 117.83333333333331)" opacity="1"><g class="group-labels"/><g class="y-lines"><circle class="fl-radial-x-line" fill="none" stroke="#cccccc" stroke-width="0.2828" stroke-dasharray="2.8279999999999994 4.713333333333333" r="13.14002997022582"/><circle class="fl-radial-x-line" fill="none" stroke="#cccccc" stroke-width="0.2828" stroke-dasharray="2.8279999999999994 4.713333333333333" r="39.42008991067745"/><circle class="fl-radial-x-line" fill="none" stroke="#cccccc" stroke-width="0.2828" stroke-dasharray="2.8279999999999994 4.713333333333333" r="65.70014985112908"/></g><g class="x-lines"><line class="fl-radial-y-line" x1="0" y1="0" x2="0" y2="-99.69867256211802" stroke="#d076ab" stroke-width="0.4713333333333333"/><line class="fl-radial-y-line" x1="0" y1="0" x2="86.34158316238079" y2="-49.849336281059024" stroke="#d076ab" stroke-width="0.4713333333333333"/><line class="fl-radial-y-line" x1="0" y1="0" x2="86.3415831623808" y2="49.84933628105899" stroke="#d076ab" stroke-width="0.4713333333333333"/><line class="fl-radial-y-line" x1="0" y1="0" x2="1.2209566023243788e-14" y2="99.69867256211802" stroke="#d076ab" stroke-width="0.4713333333333333"/><line class="fl-radial-y-line" x1="0" y1="0" x2="-86.34158316238077" y2="49.84933628105905" stroke="#d076ab" stroke-width="0.4713333333333333"/><line class="fl-radial-y-line" x1="0" y1="0" x2="-86.34158316238079" y2="-49.849336281059024" stroke="#d076ab" stroke-width="0.4713333333333333"/></g><g class="y-labels"><g class="fl-radial-y-label" opacity="1" text-anchor="middle" font-weight="400" font-size="7.541333333333333" transform="translate(0, -13.140029907226562)"><text class="bg" stroke="#ffffff" stroke-width="2.8279999999999994" dy="0.33em">0.4</text><text class="fg" dy="0.33em" fill="#aaaaaa">0.4</text></g><g class="fl-radial-y-label" opacity="1" text-anchor="middle" font-weight="400" font-size="7.541333333333333" transform="translate(0, -39.42008972167969)"><text class="bg" stroke="#ffffff" stroke-width="2.8279999999999994" dy="0.33em">0.6</text><text class="fg" dy="0.33em" fill="#aaaaaa">0.6</text></g><g class="fl-radial-y-label" opacity="1" text-anchor="middle" font-weight="400" font-size="7.541333333333333" transform="translate(0, -65.70014953613281)"><text class="bg" stroke="#ffffff" stroke-width="2.8279999999999994" dy="0.33em">0.8</text><text class="fg" dy="0.33em" fill="#aaaaaa">0.8</text></g></g><g class="x-labels"><g class="fl-radial-x-label" opacity="1" text-anchor="middle" font-size="3.7706666666666666" font-weight="400" fill="#050505" transform="translate(0, -99.69866943359375)"><text class="bg" stroke="#ffffff" stroke-width="0.9426666666666667" dy="0.33em">SUM of Clear Vision W</text><text class="fg" dy="0.33em">SUM of Clear Vision W</text></g><g class="fl-radial-x-label" opacity="1" text-anchor="middle" font-size="3.7706666666666666" font-weight="400" fill="#050505" transform="translate(86.34158325195312, -49.849334716796875)"><text class="bg" stroke="#ffffff" stroke-width="0.9426666666666667" dy="0.33em">SUM of Redefines Category W</text><text class="fg" dy="0.33em">SUM of Redefines Category W</text></g><g class="fl-radial-x-label" opacity="1" text-anchor="middle" font-size="3.7706666666666666" font-weight="400" fill="#050505" transform="translate(86.34158325195312, 49.849334716796875)"><text class="bg" stroke="#ffffff" stroke-width="0.9426666666666667" dy="0.33em">SUM of Deliver Value W</text><text class="fg" dy="0.33em">SUM of Deliver Value W</text></g><g class="fl-radial-x-label" opacity="1" text-anchor="middle" font-size="3.7706666666666666" font-weight="400" fill="#050505" transform="translate(1.2209565735559532e-14, 99.69866943359375)"><text class="bg" stroke="#ffffff" stroke-width="0.9426666666666667" dy="0.33em">SUM of Builds Connection W</text><text class="fg" dy="0.33em">SUM of Builds Connection W</text></g><g class="fl-radial-x-label" opacity="1" text-anchor="middle" font-size="3.7706666666666666" font-weight="400" fill="#050505" transform="translate(-86.34158325195312, 49.849334716796875)"><text class="bg" stroke="#ffffff" stroke-width="0.9426666666666667" dy="0.33em">SUM of Engaging Experience W</text><text class="fg" dy="0.33em">SUM of Engaging Experience W</text></g><g class="fl-radial-x-label" opacity="1" text-anchor="middle" font-size="3.7706666666666666" font-weight="400" fill="#050505" transform="translate(-86.34158325195312, -49.849334716796875)"><text class="bg" stroke="#ffffff" stroke-width="0.9426666666666667" dy="0.33em">SUM of Life Better W</text><text class="fg" dy="0.33em">SUM of Life Better W</text></g></g></g></g></g><g class="fl-facet" transform="translate(0, 273.70466666666664)" opacity="1"><g class="fl-facet-title"><rect class="fl-facet-title-bg" height="24.037999999999997" width="0" fill="rgb(238, 238, 238)" x="90.59895833333333" opacity="1"/><text class="fl-facet-title-text" font-size="19.324666666666666" font-weight="600" dx="0" dy="17.816399999999998" x="90.59895833333333" opacity="1">IFOOD</text></g><g class="fl-facet-primary" transform="translate(0, 24.037999999999997)"><g class="fl-radial" transform="translate(117.83333333333333, 117.83333333333331)" opacity="1"><g class="group-labels"/><g class="y-lines"><circle class="fl-radial-x-line" fill="none" stroke="#cccccc" stroke-width="0.2828" stroke-dasharray="2.8279999999999994 4.713333333333333" r="13.14002997022582"/><circle class="fl-radial-x-line" fill="none" stroke="#cccccc" stroke-width="0.2828" stroke-dasharray="2.8279999999999994 4.713333333333333" r="39.42008991067745"/><circle class="fl-radial-x-line" fill="none" stroke="#cccccc" stroke-width="0.2828" stroke-dasharray="2.8279999999999994 4.713333333333333" r="65.70014985112908"/></g><g class="x-lines"><line class="fl-radial-y-line" x1="0" y1="0" x2="0" y2="-99.69867256211802" stroke="#d076ab" stroke-width="0.4713333333333333"/><line class="fl-radial-y-line" x1="0" y1="0" x2="86.34158316238079" y2="-49.849336281059024" stroke="#d076ab" stroke-width="0.4713333333333333"/><line class="fl-radial-y-line" x1="0" y1="0" x2="86.3415831623808" y2="49.84933628105899" stroke="#d076ab" stroke-width="0.4713333333333333"/><line class="fl-radial-y-line" x1="0" y1="0" x2="1.2209566023243788e-14" y2="99.69867256211802" stroke="#d076ab" stroke-width="0.4713333333333333"/><line class="fl-radial-y-line" x1="0" y1="0" x2="-86.34158316238077" y2="49.84933628105905" stroke="#d076ab" stroke-width="0.4713333333333333"/><line class="fl-radial-y-line" x1="0" y1="0" x2="-86.34158316238079" y2="-49.849336281059024" stroke="#d076ab" stroke-width="0.4713333333333333"/></g><g class="y-labels"><g class="fl-radial-y-label" opacity="1" text-anchor="middle" font-weight="400" font-size="7.541333333333333" transform="translate(0, -13.140029907226562)"><text class="bg" stroke="#ffffff" stroke-width="2.8279999999999994" dy="0.33em">0.4</text><text class="fg" dy="0.33em" fill="#aaaaaa">0.4</text></g><g class="fl-radial-y-label" opacity="1" text-anchor="middle" font-weight="400" font-size="7.541333333333333" transform="translate(0, -39.42008972167969)"><text class="bg" stroke="#ffffff" stroke-width="2.8279999999999994" dy="0.33em">0.6</text><text class="fg" dy="0.33em" fill="#aaaaaa">0.6</text></g><g class="fl-radial-y-label" opacity="1" text-anchor="middle" font-weight="400" font-size="7.541333333333333" transform="translate(0, -65.70014953613281)"><text class="bg" stroke="#ffffff" stroke-width="2.8279999999999994" dy="0.33em">0.8</text><text class="fg" dy="0.33em" fill="#aaaaaa">0.8</text></g></g><g class="x-labels"><g class="fl-radial-x-label" opacity="1" text-anchor="middle" font-size="3.7706666666666666" font-weight="400" fill="#050505" transform="translate(0, -99.69866943359375)"><text class="bg" stroke="#ffffff" stroke-width="0.9426666666666667" dy="0.33em">SUM of Clear Vision W</text><text class="fg" dy="0.33em">SUM of Clear Vision W</text></g><g class="fl-radial-x-label" opacity="1" text-anchor="middle" font-size="3.7706666666666666" font-weight="400" fill="#050505" transform="translate(86.34158325195312, -49.849334716796875)"><text class="bg" stroke="#ffffff" stroke-width="0.9426666666666667" dy="0.33em">SUM of Redefines Category W</text><text class="fg" dy="0.33em">SUM of Redefines Category W</text></g><g class="fl-radial-x-label" opacity="1" text-anchor="middle" font-size="3.7706666666666666" font-weight="400" fill="#050505" transform="translate(86.34158325195312, 49.849334716796875)"><text class="bg" stroke="#ffffff" stroke-width="0.9426666666666667" dy="0.33em">SUM of Deliver Value W</text><text class="fg" dy="0.33em">SUM of Deliver Value W</text></g><g class="fl-radial-x-label" opacity="1" text-anchor="middle" font-size="3.7706666666666666" font-weight="400" fill="#050505" transform="translate(1.2209565735559532e-14, 99.69866943359375)"><text class="bg" stroke="#ffffff" stroke-width="0.9426666666666667" dy="0.33em">SUM of Builds Connection W</text><text class="fg" dy="0.33em">SUM of Builds Connection W</text></g><g class="fl-radial-x-label" opacity="1" text-anchor="middle" font-size="3.7706666666666666" font-weight="400" fill="#050505" transform="translate(-86.34158325195312, 49.849334716796875)"><text class="bg" stroke="#ffffff" stroke-width="0.9426666666666667" dy="0.33em">SUM of Engaging Experience W</text><text class="fg" dy="0.33em">SUM of Engaging Experience W</text></g><g class="fl-radial-x-label" opacity="1" text-anchor="middle" font-size="3.7706666666666666" font-weight="400" fill="#050505" transform="translate(-86.34158325195312, -49.849334716796875)"><text class="bg" stroke="#ffffff" stroke-width="0.9426666666666667" dy="0.33em">SUM of Life Better W</text><text class="fg" dy="0.33em">SUM of Life Better W</text></g></g></g></g></g><g class="fl-facet" transform="translate(249.66666666666666, 273.70466666666664)" opacity="1"><g class="fl-facet-title"><rect class="fl-facet-title-bg" height="24.037999999999997" width="0" fill="rgb(238, 238, 238)" x="82.27864583333333" opacity="1"/><text class="fl-facet-title-text" font-size="19.324666666666666" font-weight="600" dx="0" dy="17.816399999999998" x="82.27864583333333" opacity="1">NETFLIX</text></g><g class="fl-facet-primary" transform="translate(0, 24.037999999999997)"><g class="fl-radial" transform="translate(117.83333333333333, 117.83333333333331)" opacity="1"><g class="group-labels"/><g class="y-lines"><circle class="fl-radial-x-line" fill="none" stroke="#cccccc" stroke-width="0.2828" stroke-dasharray="2.8279999999999994 4.713333333333333" r="13.14002997022582"/><circle class="fl-radial-x-line" fill="none" stroke="#cccccc" stroke-width="0.2828" stroke-dasharray="2.8279999999999994 4.713333333333333" r="39.42008991067745"/><circle class="fl-radial-x-line" fill="none" stroke="#cccccc" stroke-width="0.2828" stroke-dasharray="2.8279999999999994 4.713333333333333" r="65.70014985112908"/></g><g class="x-lines"><line class="fl-radial-y-line" x1="0" y1="0" x2="0" y2="-99.69867256211802" stroke="#d076ab" stroke-width="0.4713333333333333"/><line class="fl-radial-y-line" x1="0" y1="0" x2="86.34158316238079" y2="-49.849336281059024" stroke="#d076ab" stroke-width="0.4713333333333333"/><line class="fl-radial-y-line" x1="0" y1="0" x2="86.3415831623808" y2="49.84933628105899" stroke="#d076ab" stroke-width="0.4713333333333333"/><line class="fl-radial-y-line" x1="0" y1="0" x2="1.2209566023243788e-14" y2="99.69867256211802" stroke="#d076ab" stroke-width="0.4713333333333333"/><line class="fl-radial-y-line" x1="0" y1="0" x2="-86.34158316238077" y2="49.84933628105905" stroke="#d076ab" stroke-width="0.4713333333333333"/><line class="fl-radial-y-line" x1="0" y1="0" x2="-86.34158316238079" y2="-49.849336281059024" stroke="#d076ab" stroke-width="0.4713333333333333"/></g><g class="y-labels"><g class="fl-radial-y-label" opacity="1" text-anchor="middle" font-weight="400" font-size="7.541333333333333" transform="translate(0, -13.140029907226562)"><text class="bg" stroke="#ffffff" stroke-width="2.8279999999999994" dy="0.33em">0.4</text><text class="fg" dy="0.33em" fill="#aaaaaa">0.4</text></g><g class="fl-radial-y-label" opacity="1" text-anchor="middle" font-weight="400" font-size="7.541333333333333" transform="translate(0, -39.42008972167969)"><text class="bg" stroke="#ffffff" stroke-width="2.8279999999999994" dy="0.33em">0.6</text><text class="fg" dy="0.33em" fill="#aaaaaa">0.6</text></g><g class="fl-radial-y-label" opacity="1" text-anchor="middle" font-weight="400" font-size="7.541333333333333" transform="translate(0, -65.70014953613281)"><text class="bg" stroke="#ffffff" stroke-width="2.8279999999999994" dy="0.33em">0.8</text><text class="fg" dy="0.33em" fill="#aaaaaa">0.8</text></g></g><g class="x-labels"><g class="fl-radial-x-label" opacity="1" text-anchor="middle" font-size="3.7706666666666666" font-weight="400" fill="#050505" transform="translate(0, -99.69866943359375)"><text class="bg" stroke="#ffffff" stroke-width="0.9426666666666667" dy="0.33em">SUM of Clear Vision W</text><text class="fg" dy="0.33em">SUM of Clear Vision W</text></g><g class="fl-radial-x-label" opacity="1" text-anchor="middle" font-size="3.7706666666666666" font-weight="400" fill="#050505" transform="translate(86.34158325195312, -49.849334716796875)"><text class="bg" stroke="#ffffff" stroke-width="0.9426666666666667" dy="0.33em">SUM of Redefines Category W</text><text class="fg" dy="0.33em">SUM of Redefines Category W</text></g><g class="fl-radial-x-label" opacity="1" text-anchor="middle" font-size="3.7706666666666666" font-weight="400" fill="#050505" transform="translate(86.34158325195312, 49.849334716796875)"><text class="bg" stroke="#ffffff" stroke-width="0.9426666666666667" dy="0.33em">SUM of Deliver Value W</text><text class="fg" dy="0.33em">SUM of Deliver Value W</text></g><g class="fl-radial-x-label" opacity="1" text-anchor="middle" font-size="3.7706666666666666" font-weight="400" fill="#050505" transform="translate(1.2209565735559532e-14, 99.69866943359375)"><text class="bg" stroke="#ffffff" stroke-width="0.9426666666666667" dy="0.33em">SUM of Builds Connection W</text><text class="fg" dy="0.33em">SUM of Builds Connection W</text></g><g class="fl-radial-x-label" opacity="1" text-anchor="middle" font-size="3.7706666666666666" font-weight="400" fill="#050505" transform="translate(-86.34158325195312, 49.849334716796875)"><text class="bg" stroke="#ffffff" stroke-width="0.9426666666666667" dy="0.33em">SUM of Engaging Experience W</text><text class="fg" dy="0.33em">SUM of Engaging Experience W</text></g><g class="fl-radial-x-label" opacity="1" text-anchor="middle" font-size="3.7706666666666666" font-weight="400" fill="#050505" transform="translate(-86.34158325195312, -49.849334716796875)"><text class="bg" stroke="#ffffff" stroke-width="0.9426666666666667" dy="0.33em">SUM of Life Better W</text><text class="fg" dy="0.33em">SUM of Life Better W</text></g></g></g></g></g></g></g><g id="comparison-lines"><g class="comparison-group"><path class="line-comparison" d="M60.19808273412646,-34.7553792712473C67.95517657100666,-19.239193881405654,56.57557681030222,9.80027235279341,46.54256302128115,26.87136128911178C36.50954923226007,43.94245022543015,14.508989694898167,68.25150567034791,8.287326256524726e-15,67.67115434666293C-14.50898969489815,67.09080302297795,-33.96810528570276,38.44553768788569,-40.51137514810781,23.389253347001937C-47.05464501051286,8.332969006118187,-46.011515032448244,-7.730717632482895,-39.259619174430284,-22.66655169863957C-32.507723316412324,-37.602385764796246,-16.576283651426152,-64.21094645450349,-2.941014145549397e-14,-66.22575104993811C16.576283651426095,-68.24055564537274,52.440988897246264,-50.271564661088945,60.19808273412646,-34.7553792712473" stroke="#aaaaaa" fill="#ffffff" stroke-width="0.4713333333333333" transform="translate(117.83333333333333, 141.87133333333333)" stroke-opacity="0.5" fill-opacity="0" stroke-dashoffset="0"/><path class="line-comparison" d="M67.59482257858436,-39.025889011570705C76.926094382362,-25.513558192188494,67.25343458576323,15.154834565660423,55.987630822665835,32.32447372675549C44.72182705956845,49.49411288785056,17.27802563666958,64.79129777818846,7.836753178500084e-15,63.99194595499973C-17.278025636669565,63.19259413181099,-37.81820320474109,43.88770010055421,-47.680522997351595,27.52836278762306C-57.5428427899621,11.16902547469191,-67.12067258855497,-21.451098926393712,-59.17391875566304,-34.16407792258718C-51.22716492277111,-46.87705691878065,-21.12812355570792,-47.939209341373854,-2.1649131904738618e-14,-48.74951118953778C21.128123555707877,-49.5598130377017,58.26355077480672,-52.53821983095291,67.59482257858436,-39.025889011570705" stroke="#aaaaaa" fill="#ffffff" stroke-width="0.4713333333333333" transform="translate(117.83333333333333, 141.87133333333333)" stroke-opacity="0.5" fill-opacity="0" stroke-dashoffset="0"/><path class="line-comparison" d="M53.59791487291789,-30.944770579881816C62.13261469344623,-12.132627672508523,60.14118473532295,11.114275349815987,51.208198923169974,29.56506743300807C42.275213111016996,48.01585951620015,12.138239744751411,82.60698841281963,9.767780655748563e-15,79.7599819192707C-12.138239744751393,76.91297542572177,-12.327899740763147,31.141871029435183,-21.621239545338433,12.483028471714515C-30.91457934991372,-6.175814086006152,-59.36357875167478,-16.22793701322894,-55.760038827451716,-32.19307342705331C-52.15649890322865,-48.158209840877674,-18.226325616728303,-83.51584048576026,-3.699609064044282e-14,-83.30779001123169C18.226325616728232,-83.09973953670311,45.06321505238955,-49.756913487255105,53.59791487291789,-30.944770579881816" stroke="#aaaaaa" fill="#ffffff" stroke-width="0.4713333333333333" transform="translate(117.83333333333333, 141.87133333333333)" stroke-opacity="0.5" fill-opacity="0" stroke-dashoffset="0"/><path class="line-comparison" d="M57.35318279395035,-33.11287552496908C67.76551657499492,-15.143884540685278,72.03286648525909,18.28654170856424,62.47400268626736,36.06938226826985C52.91513888727564,53.85222282797545,18.20735961712711,75.09527127984055,9.011461560492908e-15,73.58416783326457C-18.20735961712709,72.0730643866886,-36.96473322268827,44.92795247319708,-46.770155016495245,27.002761588814028C-56.57557681030222,9.077570704430972,-66.62755659892443,-17.509089935325953,-58.83253076284189,-33.96697747303378C-51.037504926759354,-50.424865010741605,-19.36428559279874,-71.8869139621104,-3.186098657678513e-14,-71.74456363743295C19.364285592798677,-71.6022133127555,46.94084901290579,-51.081866509252876,57.35318279395035,-33.11287552496908" stroke="#aaaaaa" fill="#ffffff" stroke-width="0.4713333333333333" transform="translate(117.83333333333333, 141.87133333333333)" stroke-opacity="0.5" fill-opacity="0" stroke-dashoffset="0"/><path class="line-comparison" d="M78.17785035603947,-45.13600294772571C80.56756630578741,-35.87228181871651,27.367937424494166,-12.055977497682193,14.338295698487592,8.27821888124226C1.3086539724810162,28.612415260166713,10.108877787425785,73.79221830779315,9.41375895158634e-15,76.86917532582102C-10.108877787425767,79.94613234384889,-33.98707128530393,46.669006444252005,-46.31497102606706,26.73996098940951C-58.6428707668302,6.8109155345670125,-81.68656028225664,-30.364419256196896,-73.96739844457879,-42.70509740323397C-66.24823660690095,-55.045775550271046,-25.35754146676973,-46.89895696873098,-2.1007243896781408e-14,-47.30410789281294C25.35754146676969,-47.709258816894895,75.78813440629153,-54.399724076734906,78.17785035603947,-45.13600294772571" stroke="#aaaaaa" fill="#ffffff" stroke-width="0.4713333333333333" transform="translate(117.83333333333333, 141.87133333333333)" stroke-opacity="0.5" fill-opacity="0" stroke-dashoffset="0"/></g><g class="comparison-group"><path class="line-comparison" d="M60.19808273412646,-34.7553792712473C67.95517657100666,-19.239193881405654,56.57557681030222,9.80027235279341,46.54256302128115,26.87136128911178C36.50954923226007,43.94245022543015,14.508989694898167,68.25150567034791,8.287326256524726e-15,67.67115434666293C-14.50898969489815,67.09080302297795,-33.96810528570276,38.44553768788569,-40.51137514810781,23.389253347001937C-47.05464501051286,8.332969006118187,-46.011515032448244,-7.730717632482895,-39.259619174430284,-22.66655169863957C-32.507723316412324,-37.602385764796246,-16.576283651426152,-64.21094645450349,-2.941014145549397e-14,-66.22575104993811C16.576283651426095,-68.24055564537274,52.440988897246264,-50.271564661088945,60.19808273412646,-34.7553792712473" stroke="#aaaaaa" fill="#ffffff" stroke-width="0.4713333333333333" transform="translate(367.5, 141.87133333333333)" stroke-opacity="0.5" fill-opacity="0" stroke-dashoffset="0"/><path class="line-comparison" d="M67.59482257858436,-39.025889011570705C76.926094382362,-25.513558192188494,67.25343458576323,15.154834565660423,55.987630822665835,32.32447372675549C44.72182705956845,49.49411288785056,17.27802563666958,64.79129777818846,7.836753178500084e-15,63.99194595499973C-17.278025636669565,63.19259413181099,-37.81820320474109,43.88770010055421,-47.680522997351595,27.52836278762306C-57.5428427899621,11.16902547469191,-67.12067258855497,-21.451098926393712,-59.17391875566304,-34.16407792258718C-51.22716492277111,-46.87705691878065,-21.12812355570792,-47.939209341373854,-2.1649131904738618e-14,-48.74951118953778C21.128123555707877,-49.5598130377017,58.26355077480672,-52.53821983095291,67.59482257858436,-39.025889011570705" stroke="#aaaaaa" fill="#ffffff" stroke-width="0.4713333333333333" transform="translate(367.5, 141.87133333333333)" stroke-opacity="0.5" fill-opacity="0" stroke-dashoffset="0"/><path class="line-comparison" d="M53.59791487291789,-30.944770579881816C62.13261469344623,-12.132627672508523,60.14118473532295,11.114275349815987,51.208198923169974,29.56506743300807C42.275213111016996,48.01585951620015,12.138239744751411,82.60698841281963,9.767780655748563e-15,79.7599819192707C-12.138239744751393,76.91297542572177,-12.327899740763147,31.141871029435183,-21.621239545338433,12.483028471714515C-30.91457934991372,-6.175814086006152,-59.36357875167478,-16.22793701322894,-55.760038827451716,-32.19307342705331C-52.15649890322865,-48.158209840877674,-18.226325616728303,-83.51584048576026,-3.699609064044282e-14,-83.30779001123169C18.226325616728232,-83.09973953670311,45.06321505238955,-49.756913487255105,53.59791487291789,-30.944770579881816" stroke="#aaaaaa" fill="#ffffff" stroke-width="0.4713333333333333" transform="translate(367.5, 141.87133333333333)" stroke-opacity="0.5" fill-opacity="0" stroke-dashoffset="0"/><path class="line-comparison" d="M57.35318279395035,-33.11287552496908C67.76551657499492,-15.143884540685278,72.03286648525909,18.28654170856424,62.47400268626736,36.06938226826985C52.91513888727564,53.85222282797545,18.20735961712711,75.09527127984055,9.011461560492908e-15,73.58416783326457C-18.20735961712709,72.0730643866886,-36.96473322268827,44.92795247319708,-46.770155016495245,27.002761588814028C-56.57557681030222,9.077570704430972,-66.62755659892443,-17.509089935325953,-58.83253076284189,-33.96697747303378C-51.037504926759354,-50.424865010741605,-19.36428559279874,-71.8869139621104,-3.186098657678513e-14,-71.74456363743295C19.364285592798677,-71.6022133127555,46.94084901290579,-51.081866509252876,57.35318279395035,-33.11287552496908" stroke="#aaaaaa" fill="#ffffff" stroke-width="0.4713333333333333" transform="translate(367.5, 141.87133333333333)" stroke-opacity="0.5" fill-opacity="0" stroke-dashoffset="0"/><path class="line-comparison" d="M78.17785035603947,-45.13600294772571C80.56756630578741,-35.87228181871651,27.367937424494166,-12.055977497682193,14.338295698487592,8.27821888124226C1.3086539724810162,28.612415260166713,10.108877787425785,73.79221830779315,9.41375895158634e-15,76.86917532582102C-10.108877787425767,79.94613234384889,-33.98707128530393,46.669006444252005,-46.31497102606706,26.73996098940951C-58.6428707668302,6.8109155345670125,-81.68656028225664,-30.364419256196896,-73.96739844457879,-42.70509740323397C-66.24823660690095,-55.045775550271046,-25.35754146676973,-46.89895696873098,-2.1007243896781408e-14,-47.30410789281294C25.35754146676969,-47.709258816894895,75.78813440629153,-54.399724076734906,78.17785035603947,-45.13600294772571" stroke="#aaaaaa" fill="#ffffff" stroke-width="0.4713333333333333" transform="translate(367.5, 141.87133333333333)" stroke-opacity="0.5" fill-opacity="0" stroke-dashoffset="0"/></g><g class="comparison-group"><path class="line-comparison" d="M60.19808273412646,-34.7553792712473C67.95517657100666,-19.239193881405654,56.57557681030222,9.80027235279341,46.54256302128115,26.87136128911178C36.50954923226007,43.94245022543015,14.508989694898167,68.25150567034791,8.287326256524726e-15,67.67115434666293C-14.50898969489815,67.09080302297795,-33.96810528570276,38.44553768788569,-40.51137514810781,23.389253347001937C-47.05464501051286,8.332969006118187,-46.011515032448244,-7.730717632482895,-39.259619174430284,-22.66655169863957C-32.507723316412324,-37.602385764796246,-16.576283651426152,-64.21094645450349,-2.941014145549397e-14,-66.22575104993811C16.576283651426095,-68.24055564537274,52.440988897246264,-50.271564661088945,60.19808273412646,-34.7553792712473" stroke="#aaaaaa" fill="#ffffff" stroke-width="0.4713333333333333" transform="translate(617.1666666666666, 141.87133333333333)" stroke-opacity="0.5" fill-opacity="0" stroke-dashoffset="0"/><path class="line-comparison" d="M67.59482257858436,-39.025889011570705C76.926094382362,-25.513558192188494,67.25343458576323,15.154834565660423,55.987630822665835,32.32447372675549C44.72182705956845,49.49411288785056,17.27802563666958,64.79129777818846,7.836753178500084e-15,63.99194595499973C-17.278025636669565,63.19259413181099,-37.81820320474109,43.88770010055421,-47.680522997351595,27.52836278762306C-57.5428427899621,11.16902547469191,-67.12067258855497,-21.451098926393712,-59.17391875566304,-34.16407792258718C-51.22716492277111,-46.87705691878065,-21.12812355570792,-47.939209341373854,-2.1649131904738618e-14,-48.74951118953778C21.128123555707877,-49.5598130377017,58.26355077480672,-52.53821983095291,67.59482257858436,-39.025889011570705" stroke="#aaaaaa" fill="#ffffff" stroke-width="0.4713333333333333" transform="translate(617.1666666666666, 141.87133333333333)" stroke-opacity="0.5" fill-opacity="0" stroke-dashoffset="0"/><path class="line-comparison" d="M53.59791487291789,-30.944770579881816C62.13261469344623,-12.132627672508523,60.14118473532295,11.114275349815987,51.208198923169974,29.56506743300807C42.275213111016996,48.01585951620015,12.138239744751411,82.60698841281963,9.767780655748563e-15,79.7599819192707C-12.138239744751393,76.91297542572177,-12.327899740763147,31.141871029435183,-21.621239545338433,12.483028471714515C-30.91457934991372,-6.175814086006152,-59.36357875167478,-16.22793701322894,-55.760038827451716,-32.19307342705331C-52.15649890322865,-48.158209840877674,-18.226325616728303,-83.51584048576026,-3.699609064044282e-14,-83.30779001123169C18.226325616728232,-83.09973953670311,45.06321505238955,-49.756913487255105,53.59791487291789,-30.944770579881816" stroke="#aaaaaa" fill="#ffffff" stroke-width="0.4713333333333333" transform="translate(617.1666666666666, 141.87133333333333)" stroke-opacity="0.5" fill-opacity="0" stroke-dashoffset="0"/><path class="line-comparison" d="M57.35318279395035,-33.11287552496908C67.76551657499492,-15.143884540685278,72.03286648525909,18.28654170856424,62.47400268626736,36.06938226826985C52.91513888727564,53.85222282797545,18.20735961712711,75.09527127984055,9.011461560492908e-15,73.58416783326457C-18.20735961712709,72.0730643866886,-36.96473322268827,44.92795247319708,-46.770155016495245,27.002761588814028C-56.57557681030222,9.077570704430972,-66.62755659892443,-17.509089935325953,-58.83253076284189,-33.96697747303378C-51.037504926759354,-50.424865010741605,-19.36428559279874,-71.8869139621104,-3.186098657678513e-14,-71.74456363743295C19.364285592798677,-71.6022133127555,46.94084901290579,-51.081866509252876,57.35318279395035,-33.11287552496908" stroke="#aaaaaa" fill="#ffffff" stroke-width="0.4713333333333333" transform="translate(617.1666666666666, 141.87133333333333)" stroke-opacity="0.5" fill-opacity="0" stroke-dashoffset="0"/><path class="line-comparison" d="M78.17785035603947,-45.13600294772571C80.56756630578741,-35.87228181871651,27.367937424494166,-12.055977497682193,14.338295698487592,8.27821888124226C1.3086539724810162,28.612415260166713,10.108877787425785,73.79221830779315,9.41375895158634e-15,76.86917532582102C-10.108877787425767,79.94613234384889,-33.98707128530393,46.669006444252005,-46.31497102606706,26.73996098940951C-58.6428707668302,6.8109155345670125,-81.68656028225664,-30.364419256196896,-73.96739844457879,-42.70509740323397C-66.24823660690095,-55.045775550271046,-25.35754146676973,-46.89895696873098,-2.1007243896781408e-14,-47.30410789281294C25.35754146676969,-47.709258816894895,75.78813440629153,-54.399724076734906,78.17785035603947,-45.13600294772571" stroke="#aaaaaa" fill="#ffffff" stroke-width="0.4713333333333333" transform="translate(617.1666666666666, 141.87133333333333)" stroke-opacity="0.5" fill-opacity="0" stroke-dashoffset="0"/></g><g class="comparison-group"><path class="line-comparison" d="M60.19808273412646,-34.7553792712473C67.95517657100666,-19.239193881405654,56.57557681030222,9.80027235279341,46.54256302128115,26.87136128911178C36.50954923226007,43.94245022543015,14.508989694898167,68.25150567034791,8.287326256524726e-15,67.67115434666293C-14.50898969489815,67.09080302297795,-33.96810528570276,38.44553768788569,-40.51137514810781,23.389253347001937C-47.05464501051286,8.332969006118187,-46.011515032448244,-7.730717632482895,-39.259619174430284,-22.66655169863957C-32.507723316412324,-37.602385764796246,-16.576283651426152,-64.21094645450349,-2.941014145549397e-14,-66.22575104993811C16.576283651426095,-68.24055564537274,52.440988897246264,-50.271564661088945,60.19808273412646,-34.7553792712473" stroke="#aaaaaa" fill="#ffffff" stroke-width="0.4713333333333333" transform="translate(117.83333333333333, 415.57599999999996)" stroke-opacity="0.5" fill-opacity="0" stroke-dashoffset="0"/><path class="line-comparison" d="M67.59482257858436,-39.025889011570705C76.926094382362,-25.513558192188494,67.25343458576323,15.154834565660423,55.987630822665835,32.32447372675549C44.72182705956845,49.49411288785056,17.27802563666958,64.79129777818846,7.836753178500084e-15,63.99194595499973C-17.278025636669565,63.19259413181099,-37.81820320474109,43.88770010055421,-47.680522997351595,27.52836278762306C-57.5428427899621,11.16902547469191,-67.12067258855497,-21.451098926393712,-59.17391875566304,-34.16407792258718C-51.22716492277111,-46.87705691878065,-21.12812355570792,-47.939209341373854,-2.1649131904738618e-14,-48.74951118953778C21.128123555707877,-49.5598130377017,58.26355077480672,-52.53821983095291,67.59482257858436,-39.025889011570705" stroke="#aaaaaa" fill="#ffffff" stroke-width="0.4713333333333333" transform="translate(117.83333333333333, 415.57599999999996)" stroke-opacity="0.5" fill-opacity="0" stroke-dashoffset="0"/><path class="line-comparison" d="M53.59791487291789,-30.944770579881816C62.13261469344623,-12.132627672508523,60.14118473532295,11.114275349815987,51.208198923169974,29.56506743300807C42.275213111016996,48.01585951620015,12.138239744751411,82.60698841281963,9.767780655748563e-15,79.7599819192707C-12.138239744751393,76.91297542572177,-12.327899740763147,31.141871029435183,-21.621239545338433,12.483028471714515C-30.91457934991372,-6.175814086006152,-59.36357875167478,-16.22793701322894,-55.760038827451716,-32.19307342705331C-52.15649890322865,-48.158209840877674,-18.226325616728303,-83.51584048576026,-3.699609064044282e-14,-83.30779001123169C18.226325616728232,-83.09973953670311,45.06321505238955,-49.756913487255105,53.59791487291789,-30.944770579881816" stroke="#aaaaaa" fill="#ffffff" stroke-width="0.4713333333333333" transform="translate(117.83333333333333, 415.57599999999996)" stroke-opacity="0.5" fill-opacity="0" stroke-dashoffset="0"/><path class="line-comparison" d="M57.35318279395035,-33.11287552496908C67.76551657499492,-15.143884540685278,72.03286648525909,18.28654170856424,62.47400268626736,36.06938226826985C52.91513888727564,53.85222282797545,18.20735961712711,75.09527127984055,9.011461560492908e-15,73.58416783326457C-18.20735961712709,72.0730643866886,-36.96473322268827,44.92795247319708,-46.770155016495245,27.002761588814028C-56.57557681030222,9.077570704430972,-66.62755659892443,-17.509089935325953,-58.83253076284189,-33.96697747303378C-51.037504926759354,-50.424865010741605,-19.36428559279874,-71.8869139621104,-3.186098657678513e-14,-71.74456363743295C19.364285592798677,-71.6022133127555,46.94084901290579,-51.081866509252876,57.35318279395035,-33.11287552496908" stroke="#aaaaaa" fill="#ffffff" stroke-width="0.4713333333333333" transform="translate(117.83333333333333, 415.57599999999996)" stroke-opacity="0.5" fill-opacity="0" stroke-dashoffset="0"/><path class="line-comparison" d="M78.17785035603947,-45.13600294772571C80.56756630578741,-35.87228181871651,27.367937424494166,-12.055977497682193,14.338295698487592,8.27821888124226C1.3086539724810162,28.612415260166713,10.108877787425785,73.79221830779315,9.41375895158634e-15,76.86917532582102C-10.108877787425767,79.94613234384889,-33.98707128530393,46.669006444252005,-46.31497102606706,26.73996098940951C-58.6428707668302,6.8109155345670125,-81.68656028225664,-30.364419256196896,-73.96739844457879,-42.70509740323397C-66.24823660690095,-55.045775550271046,-25.35754146676973,-46.89895696873098,-2.1007243896781408e-14,-47.30410789281294C25.35754146676969,-47.709258816894895,75.78813440629153,-54.399724076734906,78.17785035603947,-45.13600294772571" stroke="#aaaaaa" fill="#ffffff" stroke-width="0.4713333333333333" transform="translate(117.83333333333333, 415.57599999999996)" stroke-opacity="0.5" fill-opacity="0" stroke-dashoffset="0"/></g><g class="comparison-group"><path class="line-comparison" d="M60.19808273412646,-34.7553792712473C67.95517657100666,-19.239193881405654,56.57557681030222,9.80027235279341,46.54256302128115,26.87136128911178C36.50954923226007,43.94245022543015,14.508989694898167,68.25150567034791,8.287326256524726e-15,67.67115434666293C-14.50898969489815,67.09080302297795,-33.96810528570276,38.44553768788569,-40.51137514810781,23.389253347001937C-47.05464501051286,8.332969006118187,-46.011515032448244,-7.730717632482895,-39.259619174430284,-22.66655169863957C-32.507723316412324,-37.602385764796246,-16.576283651426152,-64.21094645450349,-2.941014145549397e-14,-66.22575104993811C16.576283651426095,-68.24055564537274,52.440988897246264,-50.271564661088945,60.19808273412646,-34.7553792712473" stroke="#aaaaaa" fill="#ffffff" stroke-width="0.4713333333333333" transform="translate(367.5, 415.57599999999996)" stroke-opacity="0.5" fill-opacity="0" stroke-dashoffset="0"/><path class="line-comparison" d="M67.59482257858436,-39.025889011570705C76.926094382362,-25.513558192188494,67.25343458576323,15.154834565660423,55.987630822665835,32.32447372675549C44.72182705956845,49.49411288785056,17.27802563666958,64.79129777818846,7.836753178500084e-15,63.99194595499973C-17.278025636669565,63.19259413181099,-37.81820320474109,43.88770010055421,-47.680522997351595,27.52836278762306C-57.5428427899621,11.16902547469191,-67.12067258855497,-21.451098926393712,-59.17391875566304,-34.16407792258718C-51.22716492277111,-46.87705691878065,-21.12812355570792,-47.939209341373854,-2.1649131904738618e-14,-48.74951118953778C21.128123555707877,-49.5598130377017,58.26355077480672,-52.53821983095291,67.59482257858436,-39.025889011570705" stroke="#aaaaaa" fill="#ffffff" stroke-width="0.4713333333333333" transform="translate(367.5, 415.57599999999996)" stroke-opacity="0.5" fill-opacity="0" stroke-dashoffset="0"/><path class="line-comparison" d="M53.59791487291789,-30.944770579881816C62.13261469344623,-12.132627672508523,60.14118473532295,11.114275349815987,51.208198923169974,29.56506743300807C42.275213111016996,48.01585951620015,12.138239744751411,82.60698841281963,9.767780655748563e-15,79.7599819192707C-12.138239744751393,76.91297542572177,-12.327899740763147,31.141871029435183,-21.621239545338433,12.483028471714515C-30.91457934991372,-6.175814086006152,-59.36357875167478,-16.22793701322894,-55.760038827451716,-32.19307342705331C-52.15649890322865,-48.158209840877674,-18.226325616728303,-83.51584048576026,-3.699609064044282e-14,-83.30779001123169C18.226325616728232,-83.09973953670311,45.06321505238955,-49.756913487255105,53.59791487291789,-30.944770579881816" stroke="#aaaaaa" fill="#ffffff" stroke-width="0.4713333333333333" transform="translate(367.5, 415.57599999999996)" stroke-opacity="0.5" fill-opacity="0" stroke-dashoffset="0"/><path class="line-comparison" d="M57.35318279395035,-33.11287552496908C67.76551657499492,-15.143884540685278,72.03286648525909,18.28654170856424,62.47400268626736,36.06938226826985C52.91513888727564,53.85222282797545,18.20735961712711,75.09527127984055,9.011461560492908e-15,73.58416783326457C-18.20735961712709,72.0730643866886,-36.96473322268827,44.92795247319708,-46.770155016495245,27.002761588814028C-56.57557681030222,9.077570704430972,-66.62755659892443,-17.509089935325953,-58.83253076284189,-33.96697747303378C-51.037504926759354,-50.424865010741605,-19.36428559279874,-71.8869139621104,-3.186098657678513e-14,-71.74456363743295C19.364285592798677,-71.6022133127555,46.94084901290579,-51.081866509252876,57.35318279395035,-33.11287552496908" stroke="#aaaaaa" fill="#ffffff" stroke-width="0.4713333333333333" transform="translate(367.5, 415.57599999999996)" stroke-opacity="0.5" fill-opacity="0" stroke-dashoffset="0"/><path class="line-comparison" d="M78.17785035603947,-45.13600294772571C80.56756630578741,-35.87228181871651,27.367937424494166,-12.055977497682193,14.338295698487592,8.27821888124226C1.3086539724810162,28.612415260166713,10.108877787425785,73.79221830779315,9.41375895158634e-15,76.86917532582102C-10.108877787425767,79.94613234384889,-33.98707128530393,46.669006444252005,-46.31497102606706,26.73996098940951C-58.6428707668302,6.8109155345670125,-81.68656028225664,-30.364419256196896,-73.96739844457879,-42.70509740323397C-66.24823660690095,-55.045775550271046,-25.35754146676973,-46.89895696873098,-2.1007243896781408e-14,-47.30410789281294C25.35754146676969,-47.709258816894895,75.78813440629153,-54.399724076734906,78.17785035603947,-45.13600294772571" stroke="#aaaaaa" fill="#ffffff" stroke-width="0.4713333333333333" transform="translate(367.5, 415.57599999999996)" stroke-opacity="0.5" fill-opacity="0" stroke-dashoffset="0"/></g></g><g id="lines"><path class="line-main" d="M60.19808273412646,-34.7553792712473C67.95517657100666,-19.239193881405654,56.57557681030222,9.80027235279341,46.54256302128115,26.87136128911178C36.50954923226007,43.94245022543015,14.508989694898167,68.25150567034791,8.287326256524726e-15,67.67115434666293C-14.50898969489815,67.09080302297795,-33.96810528570276,38.44553768788569,-40.51137514810781,23.389253347001937C-47.05464501051286,8.332969006118187,-46.011515032448244,-7.730717632482895,-39.259619174430284,-22.66655169863957C-32.507723316412324,-37.602385764796246,-16.576283651426152,-64.21094645450349,-2.941014145549397e-14,-66.22575104993811C16.576283651426095,-68.24055564537274,52.440988897246264,-50.271564661088945,60.19808273412646,-34.7553792712473" id="line-0" stroke="#1D6996" fill="#1D6996" fill-opacity="0.3" stroke-opacity="1" stroke-width="0.9426666666666667" transform="translate(117.83333587646484, 141.871337890625)" stroke-dashoffset="0"/><path class="line-main" d="M67.59482257858436,-39.025889011570705C76.926094382362,-25.513558192188494,67.25343458576323,15.154834565660423,55.987630822665835,32.32447372675549C44.72182705956845,49.49411288785056,17.27802563666958,64.79129777818846,7.836753178500084e-15,63.99194595499973C-17.278025636669565,63.19259413181099,-37.81820320474109,43.88770010055421,-47.680522997351595,27.52836278762306C-57.5428427899621,11.16902547469191,-67.12067258855497,-21.451098926393712,-59.17391875566304,-34.16407792258718C-51.22716492277111,-46.87705691878065,-21.12812355570792,-47.939209341373854,-2.1649131904738618e-14,-48.74951118953778C21.128123555707877,-49.5598130377017,58.26355077480672,-52.53821983095291,67.59482257858436,-39.025889011570705" id="line-1" stroke="#EDAD08" fill="#EDAD08" fill-opacity="0.3" stroke-opacity="1" stroke-width="0.9426666666666667" transform="translate(367.5, 141.871337890625)" stroke-dashoffset="0"/><path class="line-main" d="M53.59791487291789,-30.944770579881816C62.13261469344623,-12.132627672508523,60.14118473532295,11.114275349815987,51.208198923169974,29.56506743300807C42.275213111016996,48.01585951620015,12.138239744751411,82.60698841281963,9.767780655748563e-15,79.7599819192707C-12.138239744751393,76.91297542572177,-12.327899740763147,31.141871029435183,-21.621239545338433,12.483028471714515C-30.91457934991372,-6.175814086006152,-59.36357875167478,-16.22793701322894,-55.760038827451716,-32.19307342705331C-52.15649890322865,-48.158209840877674,-18.226325616728303,-83.51584048576026,-3.699609064044282e-14,-83.30779001123169C18.226325616728232,-83.09973953670311,45.06321505238955,-49.756913487255105,53.59791487291789,-30.944770579881816" id="line-2" stroke="rgb(115, 175, 72)" fill="rgb(115, 175, 72)" stroke-opacity="1" stroke-width="0.9426666666666667" transform="translate(617.1666870117188, 141.871337890625)" stroke-dashoffset="0" fill-opacity="0.3"/><path class="line-main" d="M57.35318279395035,-33.11287552496908C67.76551657499492,-15.143884540685278,72.03286648525909,18.28654170856424,62.47400268626736,36.06938226826985C52.91513888727564,53.85222282797545,18.20735961712711,75.09527127984055,9.011461560492908e-15,73.58416783326457C-18.20735961712709,72.0730643866886,-36.96473322268827,44.92795247319708,-46.770155016495245,27.002761588814028C-56.57557681030222,9.077570704430972,-66.62755659892443,-17.509089935325953,-58.83253076284189,-33.96697747303378C-51.037504926759354,-50.424865010741605,-19.36428559279874,-71.8869139621104,-3.186098657678513e-14,-71.74456363743295C19.364285592798677,-71.6022133127555,46.94084901290579,-51.081866509252876,57.35318279395035,-33.11287552496908" id="line-3" stroke="#94346E" fill="#94346E" fill-opacity="0.3" stroke-opacity="1" stroke-width="0.9426666666666667" transform="translate(117.83333587646484, 415.57598876953125)" stroke-dashoffset="0"/><path class="line-main" d="M78.17785035603947,-45.13600294772571C80.56756630578741,-35.87228181871651,27.367937424494166,-12.055977497682193,14.338295698487592,8.27821888124226C1.3086539724810162,28.612415260166713,10.108877787425785,73.79221830779315,9.41375895158634e-15,76.86917532582102C-10.108877787425767,79.94613234384889,-33.98707128530393,46.669006444252005,-46.31497102606706,26.73996098940951C-58.6428707668302,6.8109155345670125,-81.68656028225664,-30.364419256196896,-73.96739844457879,-42.70509740323397C-66.24823660690095,-55.045775550271046,-25.35754146676973,-46.89895696873098,-2.1007243896781408e-14,-47.30410789281294C25.35754146676969,-47.709258816894895,75.78813440629153,-54.399724076734906,78.17785035603947,-45.13600294772571" id="line-4" stroke="#94346E" fill="#94346E" fill-opacity="0.3" stroke-opacity="1" stroke-width="0.9426666666666667" transform="translate(367.5, 415.57598876953125)" stroke-dashoffset="0"/></g></g></svg><svg xmlns="http://www.w3.org/2000/svg" class="flourish-panel-close" viewBox="0 0 40 40" style="width: 1.25rem; height: 1.25rem; position: absolute; right: 1rem; top: 1rem; cursor: pointer; opacity: 0;" x="-21" y="100.30000305175781"><path stroke="#333333" stroke-width="0.5rem" stroke-linecap="round" d="M 10,10 L 30,30 M 30,10 L 10,30" style="stroke: rgb(51, 51, 51);"/></svg></svg>