<svg xmlns='http://www.w3.org/2000/svg' version='1.1' width='1188px' height='360px'><svg xmlns="http://www.w3.org/2000/svg" fill="currentColor" style="width: 1176px; height: 260.085px;" x="12" y="99.3125"><g id="wrapper-g"><g id="axes"><g class="fl-facets"><g class="fl-facet" transform="translate(0, 0)" opacity="1"><g class="fl-facet-title"><rect class="fl-facet-title-bg" height="22.6848" width="0" fill="rgb(238, 238, 238)" x="76.60625" opacity="1"/><text class="fl-facet-title-text" font-size="18.2368" font-weight="600" dx="0" dy="16.81344" x="76.60625" opacity="1">NUBANK</text></g><g class="fl-facet-primary" transform="translate(0, 22.684799194335938)"><g class="fl-radial" transform="translate(111.19999694824219, 111.19999694824219)" opacity="1"><g class="group-labels"/><g class="y-lines"><circle class="fl-radial-x-line" fill="none" stroke="#cccccc" stroke-width="0.26688" stroke-dasharray="2.6688 4.448" r="14.01755658139857"/><circle class="fl-radial-x-line" fill="none" stroke="#cccccc" stroke-width="0.26688" stroke-dasharray="2.6688 4.448" r="42.05266974419569"/><circle class="fl-radial-x-line" fill="none" stroke="#cccccc" stroke-width="0.26688" stroke-dasharray="2.6688 4.448" r="70.08778290699283"/></g><g class="x-lines"><line class="fl-radial-y-line" x1="0" y1="0" x2="0" y2="-105.19661371420814" stroke="#d076ab" stroke-width="0.44480000000000003"/><line class="fl-radial-y-line" x1="0" y1="0" x2="91.10293986860272" y2="-52.598306857104085" stroke="#d076ab" stroke-width="0.44480000000000003"/><line class="fl-radial-y-line" x1="0" y1="0" x2="91.10293986860273" y2="52.59830685710405" stroke="#d076ab" stroke-width="0.44480000000000003"/><line class="fl-radial-y-line" x1="0" y1="0" x2="1.2882869626624556e-14" y2="105.19661371420814" stroke="#d076ab" stroke-width="0.44480000000000003"/><line class="fl-radial-y-line" x1="0" y1="0" x2="-91.1029398686027" y2="52.59830685710412" stroke="#d076ab" stroke-width="0.44480000000000003"/><line class="fl-radial-y-line" x1="0" y1="0" x2="-91.10293986860272" y2="-52.598306857104085" stroke="#d076ab" stroke-width="0.44480000000000003"/></g><g class="y-labels"><g class="fl-radial-y-label" opacity="1" text-anchor="middle" font-weight="400" font-size="7.1168000000000005" transform="translate(0, -14.017556190490723)"><text class="bg" stroke="#ffffff" stroke-width="2.6688" dy="0.33em">0.4</text><text class="fg" dy="0.33em" fill="#aaaaaa">0.4</text></g><g class="fl-radial-y-label" opacity="1" text-anchor="middle" font-weight="400" font-size="7.1168000000000005" transform="translate(0, -42.052669525146484)"><text class="bg" stroke="#ffffff" stroke-width="2.6688" dy="0.33em">0.6</text><text class="fg" dy="0.33em" fill="#aaaaaa">0.6</text></g><g class="fl-radial-y-label" opacity="1" text-anchor="middle" font-weight="400" font-size="7.1168000000000005" transform="translate(0, -70.08778381347656)"><text class="bg" stroke="#ffffff" stroke-width="2.6688" dy="0.33em">0.8</text><text class="fg" dy="0.33em" fill="#aaaaaa">0.8</text></g></g><g class="x-labels"><g class="fl-radial-x-label" opacity="1" text-anchor="middle" font-size="3.5584000000000002" font-weight="400" fill="#050505" transform="translate(0, -105.19661712646484)"><text class="bg" stroke="#ffffff" stroke-width="0.8896000000000001" dy="0.33em">Clear Vision</text><text class="fg" dy="0.33em">Clear Vision</text></g><g class="fl-radial-x-label" opacity="1" text-anchor="middle" font-size="3.5584000000000002" font-weight="400" fill="#050505" transform="translate(91.10294342041016, -52.59830856323242)"><text class="bg" stroke="#ffffff" stroke-width="0.8896000000000001" dy="0.33em">Redefines Category</text><text class="fg" dy="0.33em">Redefines Category</text></g><g class="fl-radial-x-label" opacity="1" text-anchor="middle" font-size="3.5584000000000002" font-weight="400" fill="#050505" transform="translate(91.10294342041016, 52.59830856323242)"><text class="bg" stroke="#ffffff" stroke-width="0.8896000000000001" dy="0.33em">Deliver Value</text><text class="fg" dy="0.33em">Deliver Value</text></g><g class="fl-radial-x-label" opacity="1" text-anchor="middle" font-size="3.5584000000000002" font-weight="400" fill="#050505" transform="translate(1.2882868837200186e-14, 105.19661712646484)"><text class="bg" stroke="#ffffff" stroke-width="0.8896000000000001" dy="0.33em">Builds Connection</text><text class="fg" dy="0.33em">Builds Connection</text></g><g class="fl-radial-x-label" opacity="1" text-anchor="middle" font-size="3.5584000000000002" font-weight="400" fill="#050505" transform="translate(-91.10294342041016, 52.59830856323242)"><text class="bg" stroke="#ffffff" stroke-width="0.8896000000000001" dy="0.33em">Engaging Experience</text><text class="fg" dy="0.33em">Engaging Experience</text></g><g class="fl-radial-x-label" opacity="1" text-anchor="middle" font-size="3.5584000000000002" font-weight="400" fill="#050505" transform="translate(-91.10294342041016, -52.59830856323242)"><text class="bg" stroke="#ffffff" stroke-width="0.8896000000000001" dy="0.33em">Makes life better</text><text class="fg" dy="0.33em">Makes life better</text></g></g></g></g></g><g class="fl-facet" transform="translate(238.39999389648438, 0)" opacity="1"><g class="fl-facet-title"><rect class="fl-facet-title-bg" height="22.6848" width="0" fill="rgb(238, 238, 238)" x="78.6375" opacity="1"/><text class="fl-facet-title-text" font-size="18.2368" font-weight="600" dx="0" dy="16.81344" x="78.6375" opacity="1">NATURA</text></g><g class="fl-facet-primary" transform="translate(0, 22.684799194335938)"><g class="fl-radial" transform="translate(111.19999694824219, 111.19999694824219)" opacity="1"><g class="group-labels"/><g class="y-lines"><circle class="fl-radial-x-line" fill="none" stroke="#cccccc" stroke-width="0.26688" stroke-dasharray="2.6688 4.448" r="14.01755658139857"/><circle class="fl-radial-x-line" fill="none" stroke="#cccccc" stroke-width="0.26688" stroke-dasharray="2.6688 4.448" r="42.05266974419569"/><circle class="fl-radial-x-line" fill="none" stroke="#cccccc" stroke-width="0.26688" stroke-dasharray="2.6688 4.448" r="70.08778290699283"/></g><g class="x-lines"><line class="fl-radial-y-line" x1="0" y1="0" x2="0" y2="-105.19661371420814" stroke="#d076ab" stroke-width="0.44480000000000003"/><line class="fl-radial-y-line" x1="0" y1="0" x2="91.10293986860272" y2="-52.598306857104085" stroke="#d076ab" stroke-width="0.44480000000000003"/><line class="fl-radial-y-line" x1="0" y1="0" x2="91.10293986860273" y2="52.59830685710405" stroke="#d076ab" stroke-width="0.44480000000000003"/><line class="fl-radial-y-line" x1="0" y1="0" x2="1.2882869626624556e-14" y2="105.19661371420814" stroke="#d076ab" stroke-width="0.44480000000000003"/><line class="fl-radial-y-line" x1="0" y1="0" x2="-91.1029398686027" y2="52.59830685710412" stroke="#d076ab" stroke-width="0.44480000000000003"/><line class="fl-radial-y-line" x1="0" y1="0" x2="-91.10293986860272" y2="-52.598306857104085" stroke="#d076ab" stroke-width="0.44480000000000003"/></g><g class="y-labels"><g class="fl-radial-y-label" opacity="1" text-anchor="middle" font-weight="400" font-size="7.1168000000000005" transform="translate(0, -14.017556190490723)"><text class="bg" stroke="#ffffff" stroke-width="2.6688" dy="0.33em">0.4</text><text class="fg" dy="0.33em" fill="#aaaaaa">0.4</text></g><g class="fl-radial-y-label" opacity="1" text-anchor="middle" font-weight="400" font-size="7.1168000000000005" transform="translate(0, -42.052669525146484)"><text class="bg" stroke="#ffffff" stroke-width="2.6688" dy="0.33em">0.6</text><text class="fg" dy="0.33em" fill="#aaaaaa">0.6</text></g><g class="fl-radial-y-label" opacity="1" text-anchor="middle" font-weight="400" font-size="7.1168000000000005" transform="translate(0, -70.08778381347656)"><text class="bg" stroke="#ffffff" stroke-width="2.6688" dy="0.33em">0.8</text><text class="fg" dy="0.33em" fill="#aaaaaa">0.8</text></g></g><g class="x-labels"><g class="fl-radial-x-label" opacity="1" text-anchor="middle" font-size="3.5584000000000002" font-weight="400" fill="#050505" transform="translate(0, -105.19661712646484)"><text class="bg" stroke="#ffffff" stroke-width="0.8896000000000001" dy="0.33em">Clear Vision</text><text class="fg" dy="0.33em">Clear Vision</text></g><g class="fl-radial-x-label" opacity="1" text-anchor="middle" font-size="3.5584000000000002" font-weight="400" fill="#050505" transform="translate(91.10294342041016, -52.59830856323242)"><text class="bg" stroke="#ffffff" stroke-width="0.8896000000000001" dy="0.33em">Redefines Category</text><text class="fg" dy="0.33em">Redefines Category</text></g><g class="fl-radial-x-label" opacity="1" text-anchor="middle" font-size="3.5584000000000002" font-weight="400" fill="#050505" transform="translate(91.10294342041016, 52.59830856323242)"><text class="bg" stroke="#ffffff" stroke-width="0.8896000000000001" dy="0.33em">Deliver Value</text><text class="fg" dy="0.33em">Deliver Value</text></g><g class="fl-radial-x-label" opacity="1" text-anchor="middle" font-size="3.5584000000000002" font-weight="400" fill="#050505" transform="translate(1.2882868837200186e-14, 105.19661712646484)"><text class="bg" stroke="#ffffff" stroke-width="0.8896000000000001" dy="0.33em">Builds Connection</text><text class="fg" dy="0.33em">Builds Connection</text></g><g class="fl-radial-x-label" opacity="1" text-anchor="middle" font-size="3.5584000000000002" font-weight="400" fill="#050505" transform="translate(-91.10294342041016, 52.59830856323242)"><text class="bg" stroke="#ffffff" stroke-width="0.8896000000000001" dy="0.33em">Engaging Experience</text><text class="fg" dy="0.33em">Engaging Experience</text></g><g class="fl-radial-x-label" opacity="1" text-anchor="middle" font-size="3.5584000000000002" font-weight="400" fill="#050505" transform="translate(-91.10294342041016, -52.59830856323242)"><text class="bg" stroke="#ffffff" stroke-width="0.8896000000000001" dy="0.33em">Makes life better</text><text class="fg" dy="0.33em">Makes life better</text></g></g></g></g></g><g class="fl-facet" transform="translate(476.79998779296875, 0)" opacity="1"><g class="fl-facet-title"><rect class="fl-facet-title-bg" height="22.6848" width="0" fill="rgb(238, 238, 238)" x="77.6921875" opacity="1"/><text class="fl-facet-title-text" font-size="18.2368" font-weight="600" dx="0" dy="16.81344" x="77.6921875" opacity="1">MAGALU</text></g><g class="fl-facet-primary" transform="translate(0, 22.684799194335938)"><g class="fl-radial" transform="translate(111.19999694824219, 111.19999694824219)" opacity="1"><g class="group-labels"/><g class="y-lines"><circle class="fl-radial-x-line" fill="none" stroke="#cccccc" stroke-width="0.26688" stroke-dasharray="2.6688 4.448" r="14.01755658139857"/><circle class="fl-radial-x-line" fill="none" stroke="#cccccc" stroke-width="0.26688" stroke-dasharray="2.6688 4.448" r="42.05266974419569"/><circle class="fl-radial-x-line" fill="none" stroke="#cccccc" stroke-width="0.26688" stroke-dasharray="2.6688 4.448" r="70.08778290699283"/></g><g class="x-lines"><line class="fl-radial-y-line" x1="0" y1="0" x2="0" y2="-105.19661371420814" stroke="#d076ab" stroke-width="0.44480000000000003"/><line class="fl-radial-y-line" x1="0" y1="0" x2="91.10293986860272" y2="-52.598306857104085" stroke="#d076ab" stroke-width="0.44480000000000003"/><line class="fl-radial-y-line" x1="0" y1="0" x2="91.10293986860273" y2="52.59830685710405" stroke="#d076ab" stroke-width="0.44480000000000003"/><line class="fl-radial-y-line" x1="0" y1="0" x2="1.2882869626624556e-14" y2="105.19661371420814" stroke="#d076ab" stroke-width="0.44480000000000003"/><line class="fl-radial-y-line" x1="0" y1="0" x2="-91.1029398686027" y2="52.59830685710412" stroke="#d076ab" stroke-width="0.44480000000000003"/><line class="fl-radial-y-line" x1="0" y1="0" x2="-91.10293986860272" y2="-52.598306857104085" stroke="#d076ab" stroke-width="0.44480000000000003"/></g><g class="y-labels"><g class="fl-radial-y-label" opacity="1" text-anchor="middle" font-weight="400" font-size="7.1168000000000005" transform="translate(0, -14.017556190490723)"><text class="bg" stroke="#ffffff" stroke-width="2.6688" dy="0.33em">0.4</text><text class="fg" dy="0.33em" fill="#aaaaaa">0.4</text></g><g class="fl-radial-y-label" opacity="1" text-anchor="middle" font-weight="400" font-size="7.1168000000000005" transform="translate(0, -42.052669525146484)"><text class="bg" stroke="#ffffff" stroke-width="2.6688" dy="0.33em">0.6</text><text class="fg" dy="0.33em" fill="#aaaaaa">0.6</text></g><g class="fl-radial-y-label" opacity="1" text-anchor="middle" font-weight="400" font-size="7.1168000000000005" transform="translate(0, -70.08778381347656)"><text class="bg" stroke="#ffffff" stroke-width="2.6688" dy="0.33em">0.8</text><text class="fg" dy="0.33em" fill="#aaaaaa">0.8</text></g></g><g class="x-labels"><g class="fl-radial-x-label" opacity="1" text-anchor="middle" font-size="3.5584000000000002" font-weight="400" fill="#050505" transform="translate(0, -105.19661712646484)"><text class="bg" stroke="#ffffff" stroke-width="0.8896000000000001" dy="0.33em">Clear Vision</text><text class="fg" dy="0.33em">Clear Vision</text></g><g class="fl-radial-x-label" opacity="1" text-anchor="middle" font-size="3.5584000000000002" font-weight="400" fill="#050505" transform="translate(91.10294342041016, -52.59830856323242)"><text class="bg" stroke="#ffffff" stroke-width="0.8896000000000001" dy="0.33em">Redefines Category</text><text class="fg" dy="0.33em">Redefines Category</text></g><g class="fl-radial-x-label" opacity="1" text-anchor="middle" font-size="3.5584000000000002" font-weight="400" fill="#050505" transform="translate(91.10294342041016, 52.59830856323242)"><text class="bg" stroke="#ffffff" stroke-width="0.8896000000000001" dy="0.33em">Deliver Value</text><text class="fg" dy="0.33em">Deliver Value</text></g><g class="fl-radial-x-label" opacity="1" text-anchor="middle" font-size="3.5584000000000002" font-weight="400" fill="#050505" transform="translate(1.2882868837200186e-14, 105.19661712646484)"><text class="bg" stroke="#ffffff" stroke-width="0.8896000000000001" dy="0.33em">Builds Connection</text><text class="fg" dy="0.33em">Builds Connection</text></g><g class="fl-radial-x-label" opacity="1" text-anchor="middle" font-size="3.5584000000000002" font-weight="400" fill="#050505" transform="translate(-91.10294342041016, 52.59830856323242)"><text class="bg" stroke="#ffffff" stroke-width="0.8896000000000001" dy="0.33em">Engaging Experience</text><text class="fg" dy="0.33em">Engaging Experience</text></g><g class="fl-radial-x-label" opacity="1" text-anchor="middle" font-size="3.5584000000000002" font-weight="400" fill="#050505" transform="translate(-91.10294342041016, -52.59830856323242)"><text class="bg" stroke="#ffffff" stroke-width="0.8896000000000001" dy="0.33em">Makes life better</text><text class="fg" dy="0.33em">Makes life better</text></g></g></g></g></g><g class="fl-facet" transform="translate(715.2000122070312, 0)" opacity="1"><g class="fl-facet-title"><rect class="fl-facet-title-bg" height="22.6848" width="0" fill="rgb(238, 238, 238)" x="85.496875" opacity="1"/><text class="fl-facet-title-text" font-size="18.2368" font-weight="600" dx="0" dy="16.81344" x="85.496875" opacity="1">IFOOD</text></g><g class="fl-facet-primary" transform="translate(0, 22.684799194335938)"><g class="fl-radial" transform="translate(111.19999694824219, 111.19999694824219)" opacity="1"><g class="group-labels"/><g class="y-lines"><circle class="fl-radial-x-line" fill="none" stroke="#cccccc" stroke-width="0.26688" stroke-dasharray="2.6688 4.448" r="14.01755658139857"/><circle class="fl-radial-x-line" fill="none" stroke="#cccccc" stroke-width="0.26688" stroke-dasharray="2.6688 4.448" r="42.05266974419569"/><circle class="fl-radial-x-line" fill="none" stroke="#cccccc" stroke-width="0.26688" stroke-dasharray="2.6688 4.448" r="70.08778290699283"/></g><g class="x-lines"><line class="fl-radial-y-line" x1="0" y1="0" x2="0" y2="-105.19661371420814" stroke="#d076ab" stroke-width="0.44480000000000003"/><line class="fl-radial-y-line" x1="0" y1="0" x2="91.10293986860272" y2="-52.598306857104085" stroke="#d076ab" stroke-width="0.44480000000000003"/><line class="fl-radial-y-line" x1="0" y1="0" x2="91.10293986860273" y2="52.59830685710405" stroke="#d076ab" stroke-width="0.44480000000000003"/><line class="fl-radial-y-line" x1="0" y1="0" x2="1.2882869626624556e-14" y2="105.19661371420814" stroke="#d076ab" stroke-width="0.44480000000000003"/><line class="fl-radial-y-line" x1="0" y1="0" x2="-91.1029398686027" y2="52.59830685710412" stroke="#d076ab" stroke-width="0.44480000000000003"/><line class="fl-radial-y-line" x1="0" y1="0" x2="-91.10293986860272" y2="-52.598306857104085" stroke="#d076ab" stroke-width="0.44480000000000003"/></g><g class="y-labels"><g class="fl-radial-y-label" opacity="1" text-anchor="middle" font-weight="400" font-size="7.1168000000000005" transform="translate(0, -14.017556190490723)"><text class="bg" stroke="#ffffff" stroke-width="2.6688" dy="0.33em">0.4</text><text class="fg" dy="0.33em" fill="#aaaaaa">0.4</text></g><g class="fl-radial-y-label" opacity="1" text-anchor="middle" font-weight="400" font-size="7.1168000000000005" transform="translate(0, -42.052669525146484)"><text class="bg" stroke="#ffffff" stroke-width="2.6688" dy="0.33em">0.6</text><text class="fg" dy="0.33em" fill="#aaaaaa">0.6</text></g><g class="fl-radial-y-label" opacity="1" text-anchor="middle" font-weight="400" font-size="7.1168000000000005" transform="translate(0, -70.08778381347656)"><text class="bg" stroke="#ffffff" stroke-width="2.6688" dy="0.33em">0.8</text><text class="fg" dy="0.33em" fill="#aaaaaa">0.8</text></g></g><g class="x-labels"><g class="fl-radial-x-label" opacity="1" text-anchor="middle" font-size="3.5584000000000002" font-weight="400" fill="#050505" transform="translate(0, -105.19661712646484)"><text class="bg" stroke="#ffffff" stroke-width="0.8896000000000001" dy="0.33em">Clear Vision</text><text class="fg" dy="0.33em">Clear Vision</text></g><g class="fl-radial-x-label" opacity="1" text-anchor="middle" font-size="3.5584000000000002" font-weight="400" fill="#050505" transform="translate(91.10294342041016, -52.59830856323242)"><text class="bg" stroke="#ffffff" stroke-width="0.8896000000000001" dy="0.33em">Redefines Category</text><text class="fg" dy="0.33em">Redefines Category</text></g><g class="fl-radial-x-label" opacity="1" text-anchor="middle" font-size="3.5584000000000002" font-weight="400" fill="#050505" transform="translate(91.10294342041016, 52.59830856323242)"><text class="bg" stroke="#ffffff" stroke-width="0.8896000000000001" dy="0.33em">Deliver Value</text><text class="fg" dy="0.33em">Deliver Value</text></g><g class="fl-radial-x-label" opacity="1" text-anchor="middle" font-size="3.5584000000000002" font-weight="400" fill="#050505" transform="translate(1.2882868837200186e-14, 105.19661712646484)"><text class="bg" stroke="#ffffff" stroke-width="0.8896000000000001" dy="0.33em">Builds Connection</text><text class="fg" dy="0.33em">Builds Connection</text></g><g class="fl-radial-x-label" opacity="1" text-anchor="middle" font-size="3.5584000000000002" font-weight="400" fill="#050505" transform="translate(-91.10294342041016, 52.59830856323242)"><text class="bg" stroke="#ffffff" stroke-width="0.8896000000000001" dy="0.33em">Engaging Experience</text><text class="fg" dy="0.33em">Engaging Experience</text></g><g class="fl-radial-x-label" opacity="1" text-anchor="middle" font-size="3.5584000000000002" font-weight="400" fill="#050505" transform="translate(-91.10294342041016, -52.59830856323242)"><text class="bg" stroke="#ffffff" stroke-width="0.8896000000000001" dy="0.33em">Makes life better</text><text class="fg" dy="0.33em">Makes life better</text></g></g></g></g></g><g class="fl-facet" transform="translate(953.5999755859375, 0)" opacity="1"><g class="fl-facet-title"><rect class="fl-facet-title-bg" height="22.6848" width="0" fill="rgb(238, 238, 238)" x="77.6453125" opacity="1"/><text class="fl-facet-title-text" font-size="18.2368" font-weight="600" dx="0" dy="16.81344" x="77.6453125" opacity="1">NETFLIX</text></g><g class="fl-facet-primary" transform="translate(0, 22.684799194335938)"><g class="fl-radial" transform="translate(111.19999694824219, 111.19999694824219)" opacity="1"><g class="group-labels"/><g class="y-lines"><circle class="fl-radial-x-line" fill="none" stroke="#cccccc" stroke-width="0.26688" stroke-dasharray="2.6688 4.448" r="14.01755658139857"/><circle class="fl-radial-x-line" fill="none" stroke="#cccccc" stroke-width="0.26688" stroke-dasharray="2.6688 4.448" r="42.05266974419569"/><circle class="fl-radial-x-line" fill="none" stroke="#cccccc" stroke-width="0.26688" stroke-dasharray="2.6688 4.448" r="70.08778290699283"/></g><g class="x-lines"><line class="fl-radial-y-line" x1="0" y1="0" x2="0" y2="-105.19661371420814" stroke="#d076ab" stroke-width="0.44480000000000003"/><line class="fl-radial-y-line" x1="0" y1="0" x2="91.10293986860272" y2="-52.598306857104085" stroke="#d076ab" stroke-width="0.44480000000000003"/><line class="fl-radial-y-line" x1="0" y1="0" x2="91.10293986860273" y2="52.59830685710405" stroke="#d076ab" stroke-width="0.44480000000000003"/><line class="fl-radial-y-line" x1="0" y1="0" x2="1.2882869626624556e-14" y2="105.19661371420814" stroke="#d076ab" stroke-width="0.44480000000000003"/><line class="fl-radial-y-line" x1="0" y1="0" x2="-91.1029398686027" y2="52.59830685710412" stroke="#d076ab" stroke-width="0.44480000000000003"/><line class="fl-radial-y-line" x1="0" y1="0" x2="-91.10293986860272" y2="-52.598306857104085" stroke="#d076ab" stroke-width="0.44480000000000003"/></g><g class="y-labels"><g class="fl-radial-y-label" opacity="1" text-anchor="middle" font-weight="400" font-size="7.1168000000000005" transform="translate(0, -14.017556190490723)"><text class="bg" stroke="#ffffff" stroke-width="2.6688" dy="0.33em">0.4</text><text class="fg" dy="0.33em" fill="#aaaaaa">0.4</text></g><g class="fl-radial-y-label" opacity="1" text-anchor="middle" font-weight="400" font-size="7.1168000000000005" transform="translate(0, -42.052669525146484)"><text class="bg" stroke="#ffffff" stroke-width="2.6688" dy="0.33em">0.6</text><text class="fg" dy="0.33em" fill="#aaaaaa">0.6</text></g><g class="fl-radial-y-label" opacity="1" text-anchor="middle" font-weight="400" font-size="7.1168000000000005" transform="translate(0, -70.08778381347656)"><text class="bg" stroke="#ffffff" stroke-width="2.6688" dy="0.33em">0.8</text><text class="fg" dy="0.33em" fill="#aaaaaa">0.8</text></g></g><g class="x-labels"><g class="fl-radial-x-label" opacity="1" text-anchor="middle" font-size="3.5584000000000002" font-weight="400" fill="#050505" transform="translate(0, -105.19661712646484)"><text class="bg" stroke="#ffffff" stroke-width="0.8896000000000001" dy="0.33em">Clear Vision</text><text class="fg" dy="0.33em">Clear Vision</text></g><g class="fl-radial-x-label" opacity="1" text-anchor="middle" font-size="3.5584000000000002" font-weight="400" fill="#050505" transform="translate(91.10294342041016, -52.59830856323242)"><text class="bg" stroke="#ffffff" stroke-width="0.8896000000000001" dy="0.33em">Redefines Category</text><text class="fg" dy="0.33em">Redefines Category</text></g><g class="fl-radial-x-label" opacity="1" text-anchor="middle" font-size="3.5584000000000002" font-weight="400" fill="#050505" transform="translate(91.10294342041016, 52.59830856323242)"><text class="bg" stroke="#ffffff" stroke-width="0.8896000000000001" dy="0.33em">Deliver Value</text><text class="fg" dy="0.33em">Deliver Value</text></g><g class="fl-radial-x-label" opacity="1" text-anchor="middle" font-size="3.5584000000000002" font-weight="400" fill="#050505" transform="translate(1.2882868837200186e-14, 105.19661712646484)"><text class="bg" stroke="#ffffff" stroke-width="0.8896000000000001" dy="0.33em">Builds Connection</text><text class="fg" dy="0.33em">Builds Connection</text></g><g class="fl-radial-x-label" opacity="1" text-anchor="middle" font-size="3.5584000000000002" font-weight="400" fill="#050505" transform="translate(-91.10294342041016, 52.59830856323242)"><text class="bg" stroke="#ffffff" stroke-width="0.8896000000000001" dy="0.33em">Engaging Experience</text><text class="fg" dy="0.33em">Engaging Experience</text></g><g class="fl-radial-x-label" opacity="1" text-anchor="middle" font-size="3.5584000000000002" font-weight="400" fill="#050505" transform="translate(-91.10294342041016, -52.59830856323242)"><text class="bg" stroke="#ffffff" stroke-width="0.8896000000000001" dy="0.33em">Makes life better</text><text class="fg" dy="0.33em">Makes life better</text></g></g></g></g></g></g></g><g id="comparison-lines"><g class="comparison-group"><path class="line-comparison" d="M64.21827292094282,-37.07643715779922C72.49340638807125,-20.524039094597754,60.353846289594344,10.454760950293078,49.65080080277055,28.665903208960046C38.94775531594675,46.87704546762701,15.477939125558065,72.80952514321436,8.840776236627482e-15,72.19041639420259C-15.477939125558047,71.57130764519081,-36.236586893953586,41.01303429774195,-43.2168339505778,24.95125071488943C-50.197081007202016,8.889467132036906,-49.08428799817493,-8.246995788722867,-41.881482339745304,-24.180285102912563C-34.67867668131568,-40.11357441710226,-17.68329254344805,-68.49912649443432,-3.137422995635964e-14,-70.64848517024876C17.683292543447987,-72.7978438460632,55.943139453814396,-53.628835221000685,64.21827292094282,-37.07643715779922" stroke="#aaaaaa" fill="#ffffff" stroke-width="0.44480000000000003" transform="translate(111.19999694824219, 133.88479614257812)" stroke-opacity="0.3" fill-opacity="0" stroke-dashoffset="0"/><path class="line-comparison" d="M72.10898698495282,-41.63214304675377C82.0634262657039,-27.217422362215583,71.74480018199851,16.16691525721299,59.726635684506384,34.48318919024045C47.708471187014254,52.79946312326791,18.431898749520776,69.1182352434461,8.360112674247737e-15,68.26550055141101C-18.431898749520762,67.41276585937592,-40.3438047272716,46.81863898187119,-50.864756812618246,29.36678103802997C-61.38570889796489,11.914923094188747,-71.60317198084958,-22.883661119133222,-63.12571251207987,-36.445647111636326C-54.64825304331017,-50.00763310413943,-22.539116582838805,-51.14071892780243,-2.3094919273431402e-14,-52.00513491698867C22.539116582838755,-52.869550906174915,62.154547704201754,-56.04686373129195,72.10898698495282,-41.63214304675377" stroke="#aaaaaa" fill="#ffffff" stroke-width="0.44480000000000003" transform="translate(111.19999694824219, 133.88479614257812)" stroke-opacity="0.3" fill-opacity="0" stroke-dashoffset="0"/><path class="line-comparison" d="M57.17732806382622,-33.01134574919364C66.2819981376839,-12.94287724349136,64.15757512045045,11.856516608432937,54.628020443146085,31.539502308146755C45.098465765841716,51.222488007860576,12.948864105042045,88.1237057083923,1.0420099370160935e-14,85.08656844908927C-12.948864105042023,82.04943118978625,-13.151190106683321,33.221609097914595,-23.065164187106124,13.316678752328624C-32.979138267528924,-6.588251593257343,-63.328038513721154,-17.311682378027292,-59.48384448253681,-34.34301362442655C-55.639650451352466,-51.3743448708258,-19.443528757727208,-89.09325337193907,-3.946678927050003e-14,-88.87130872606691C19.44352875772713,-88.64936408019476,48.07265798996853,-53.079814254895915,57.17732806382622,-33.01134574919364" stroke="#aaaaaa" fill="#ffffff" stroke-width="0.44480000000000003" transform="translate(111.19999694824219, 133.88479614257812)" stroke-opacity="0.3" fill-opacity="0" stroke-dashoffset="0"/><path class="line-comparison" d="M61.1833828963236,-35.3242425851244C72.29108038642997,-16.15523396006187,76.84341542335882,19.507766242446316,66.64618494063822,38.47819281593904C56.44895445791762,57.44861938943176,19.423296157563062,80.11033586269279,9.613271247594933e-15,78.49831685583196C-19.42329615756304,76.88629784897113,-39.43333771988583,47.928362211231914,-49.89359200474009,28.806078774774026C-60.35384628959436,9.683795338316141,-71.07712437658225,-18.67839414471365,-62.761525709125564,-36.23538376291535C-54.44592704166889,-53.792373381117045,-20.657484767574896,-76.68771579740132,-3.398874911938961e-14,-76.53585893443616C20.657484767574825,-76.384002071471,50.075685406217225,-54.49325121018693,61.1833828963236,-35.3242425851244" stroke="#aaaaaa" fill="#ffffff" stroke-width="0.44480000000000003" transform="translate(111.19999694824219, 133.88479614257812)" stroke-opacity="0.3" fill-opacity="0" stroke-dashoffset="0"/><path class="line-comparison" d="M83.39877787653634,-48.150306857104106C85.9480854972165,-38.26792946721812,29.195642036836958,-12.86110816343319,15.295845724080904,8.831060646281092C1.3960494113248494,30.523229455995374,10.783975887480329,78.7202615017041,1.004243514257685e-14,82.0027060011816C-10.783975887480308,85.28515050065909,-36.25681949411771,49.78568845826722,-49.408009600801016,28.525727643146052C-62.559199707484325,7.265766828024887,-87.14180890690001,-32.39223700018193,-78.90714064009984,-45.55705888954541C-70.67247237329967,-58.72188077890889,-27.050986419439383,-50.03099569844172,-2.2410164254542602e-14,-50.463203693034835C27.05098641943934,-50.89541168762795,80.84947025585619,-58.032684246990094,83.39877787653634,-48.150306857104106" stroke="#aaaaaa" fill="#ffffff" stroke-width="0.44480000000000003" transform="translate(111.19999694824219, 133.88479614257812)" stroke-opacity="0.3" fill-opacity="0" stroke-dashoffset="0"/></g><g class="comparison-group"><path class="line-comparison" d="M64.21827292094282,-37.07643715779922C72.49340638807125,-20.524039094597754,60.353846289594344,10.454760950293078,49.65080080277055,28.665903208960046C38.94775531594675,46.87704546762701,15.477939125558065,72.80952514321436,8.840776236627482e-15,72.19041639420259C-15.477939125558047,71.57130764519081,-36.236586893953586,41.01303429774195,-43.2168339505778,24.95125071488943C-50.197081007202016,8.889467132036906,-49.08428799817493,-8.246995788722867,-41.881482339745304,-24.180285102912563C-34.67867668131568,-40.11357441710226,-17.68329254344805,-68.49912649443432,-3.137422995635964e-14,-70.64848517024876C17.683292543447987,-72.7978438460632,55.943139453814396,-53.628835221000685,64.21827292094282,-37.07643715779922" stroke="#aaaaaa" fill="#ffffff" stroke-width="0.44480000000000003" transform="translate(349.6000061035156, 133.88479614257812)" stroke-opacity="0.3" fill-opacity="0" stroke-dashoffset="0"/><path class="line-comparison" d="M72.10898698495282,-41.63214304675377C82.0634262657039,-27.217422362215583,71.74480018199851,16.16691525721299,59.726635684506384,34.48318919024045C47.708471187014254,52.79946312326791,18.431898749520776,69.1182352434461,8.360112674247737e-15,68.26550055141101C-18.431898749520762,67.41276585937592,-40.3438047272716,46.81863898187119,-50.864756812618246,29.36678103802997C-61.38570889796489,11.914923094188747,-71.60317198084958,-22.883661119133222,-63.12571251207987,-36.445647111636326C-54.64825304331017,-50.00763310413943,-22.539116582838805,-51.14071892780243,-2.3094919273431402e-14,-52.00513491698867C22.539116582838755,-52.869550906174915,62.154547704201754,-56.04686373129195,72.10898698495282,-41.63214304675377" stroke="#aaaaaa" fill="#ffffff" stroke-width="0.44480000000000003" transform="translate(349.6000061035156, 133.88479614257812)" stroke-opacity="0.3" fill-opacity="0" stroke-dashoffset="0"/><path class="line-comparison" d="M57.17732806382622,-33.01134574919364C66.2819981376839,-12.94287724349136,64.15757512045045,11.856516608432937,54.628020443146085,31.539502308146755C45.098465765841716,51.222488007860576,12.948864105042045,88.1237057083923,1.0420099370160935e-14,85.08656844908927C-12.948864105042023,82.04943118978625,-13.151190106683321,33.221609097914595,-23.065164187106124,13.316678752328624C-32.979138267528924,-6.588251593257343,-63.328038513721154,-17.311682378027292,-59.48384448253681,-34.34301362442655C-55.639650451352466,-51.3743448708258,-19.443528757727208,-89.09325337193907,-3.946678927050003e-14,-88.87130872606691C19.44352875772713,-88.64936408019476,48.07265798996853,-53.079814254895915,57.17732806382622,-33.01134574919364" stroke="#aaaaaa" fill="#ffffff" stroke-width="0.44480000000000003" transform="translate(349.6000061035156, 133.88479614257812)" stroke-opacity="0.3" fill-opacity="0" stroke-dashoffset="0"/><path class="line-comparison" d="M61.1833828963236,-35.3242425851244C72.29108038642997,-16.15523396006187,76.84341542335882,19.507766242446316,66.64618494063822,38.47819281593904C56.44895445791762,57.44861938943176,19.423296157563062,80.11033586269279,9.613271247594933e-15,78.49831685583196C-19.42329615756304,76.88629784897113,-39.43333771988583,47.928362211231914,-49.89359200474009,28.806078774774026C-60.35384628959436,9.683795338316141,-71.07712437658225,-18.67839414471365,-62.761525709125564,-36.23538376291535C-54.44592704166889,-53.792373381117045,-20.657484767574896,-76.68771579740132,-3.398874911938961e-14,-76.53585893443616C20.657484767574825,-76.384002071471,50.075685406217225,-54.49325121018693,61.1833828963236,-35.3242425851244" stroke="#aaaaaa" fill="#ffffff" stroke-width="0.44480000000000003" transform="translate(349.6000061035156, 133.88479614257812)" stroke-opacity="0.3" fill-opacity="0" stroke-dashoffset="0"/><path class="line-comparison" d="M83.39877787653634,-48.150306857104106C85.9480854972165,-38.26792946721812,29.195642036836958,-12.86110816343319,15.295845724080904,8.831060646281092C1.3960494113248494,30.523229455995374,10.783975887480329,78.7202615017041,1.004243514257685e-14,82.0027060011816C-10.783975887480308,85.28515050065909,-36.25681949411771,49.78568845826722,-49.408009600801016,28.525727643146052C-62.559199707484325,7.265766828024887,-87.14180890690001,-32.39223700018193,-78.90714064009984,-45.55705888954541C-70.67247237329967,-58.72188077890889,-27.050986419439383,-50.03099569844172,-2.2410164254542602e-14,-50.463203693034835C27.05098641943934,-50.89541168762795,80.84947025585619,-58.032684246990094,83.39877787653634,-48.150306857104106" stroke="#aaaaaa" fill="#ffffff" stroke-width="0.44480000000000003" transform="translate(349.6000061035156, 133.88479614257812)" stroke-opacity="0.3" fill-opacity="0" stroke-dashoffset="0"/></g><g class="comparison-group"><path class="line-comparison" d="M64.21827292094282,-37.07643715779922C72.49340638807125,-20.524039094597754,60.353846289594344,10.454760950293078,49.65080080277055,28.665903208960046C38.94775531594675,46.87704546762701,15.477939125558065,72.80952514321436,8.840776236627482e-15,72.19041639420259C-15.477939125558047,71.57130764519081,-36.236586893953586,41.01303429774195,-43.2168339505778,24.95125071488943C-50.197081007202016,8.889467132036906,-49.08428799817493,-8.246995788722867,-41.881482339745304,-24.180285102912563C-34.67867668131568,-40.11357441710226,-17.68329254344805,-68.49912649443432,-3.137422995635964e-14,-70.64848517024876C17.683292543447987,-72.7978438460632,55.943139453814396,-53.628835221000685,64.21827292094282,-37.07643715779922" stroke="#aaaaaa" fill="#ffffff" stroke-width="0.44480000000000003" transform="translate(588, 133.88479614257812)" stroke-opacity="0.3" fill-opacity="0" stroke-dashoffset="0"/><path class="line-comparison" d="M72.10898698495282,-41.63214304675377C82.0634262657039,-27.217422362215583,71.74480018199851,16.16691525721299,59.726635684506384,34.48318919024045C47.708471187014254,52.79946312326791,18.431898749520776,69.1182352434461,8.360112674247737e-15,68.26550055141101C-18.431898749520762,67.41276585937592,-40.3438047272716,46.81863898187119,-50.864756812618246,29.36678103802997C-61.38570889796489,11.914923094188747,-71.60317198084958,-22.883661119133222,-63.12571251207987,-36.445647111636326C-54.64825304331017,-50.00763310413943,-22.539116582838805,-51.14071892780243,-2.3094919273431402e-14,-52.00513491698867C22.539116582838755,-52.869550906174915,62.154547704201754,-56.04686373129195,72.10898698495282,-41.63214304675377" stroke="#aaaaaa" fill="#ffffff" stroke-width="0.44480000000000003" transform="translate(588, 133.88479614257812)" stroke-opacity="0.3" fill-opacity="0" stroke-dashoffset="0"/><path class="line-comparison" d="M57.17732806382622,-33.01134574919364C66.2819981376839,-12.94287724349136,64.15757512045045,11.856516608432937,54.628020443146085,31.539502308146755C45.098465765841716,51.222488007860576,12.948864105042045,88.1237057083923,1.0420099370160935e-14,85.08656844908927C-12.948864105042023,82.04943118978625,-13.151190106683321,33.221609097914595,-23.065164187106124,13.316678752328624C-32.979138267528924,-6.588251593257343,-63.328038513721154,-17.311682378027292,-59.48384448253681,-34.34301362442655C-55.639650451352466,-51.3743448708258,-19.443528757727208,-89.09325337193907,-3.946678927050003e-14,-88.87130872606691C19.44352875772713,-88.64936408019476,48.07265798996853,-53.079814254895915,57.17732806382622,-33.01134574919364" stroke="#aaaaaa" fill="#ffffff" stroke-width="0.44480000000000003" transform="translate(588, 133.88479614257812)" stroke-opacity="0.3" fill-opacity="0" stroke-dashoffset="0"/><path class="line-comparison" d="M61.1833828963236,-35.3242425851244C72.29108038642997,-16.15523396006187,76.84341542335882,19.507766242446316,66.64618494063822,38.47819281593904C56.44895445791762,57.44861938943176,19.423296157563062,80.11033586269279,9.613271247594933e-15,78.49831685583196C-19.42329615756304,76.88629784897113,-39.43333771988583,47.928362211231914,-49.89359200474009,28.806078774774026C-60.35384628959436,9.683795338316141,-71.07712437658225,-18.67839414471365,-62.761525709125564,-36.23538376291535C-54.44592704166889,-53.792373381117045,-20.657484767574896,-76.68771579740132,-3.398874911938961e-14,-76.53585893443616C20.657484767574825,-76.384002071471,50.075685406217225,-54.49325121018693,61.1833828963236,-35.3242425851244" stroke="#aaaaaa" fill="#ffffff" stroke-width="0.44480000000000003" transform="translate(588, 133.88479614257812)" stroke-opacity="0.3" fill-opacity="0" stroke-dashoffset="0"/><path class="line-comparison" d="M83.39877787653634,-48.150306857104106C85.9480854972165,-38.26792946721812,29.195642036836958,-12.86110816343319,15.295845724080904,8.831060646281092C1.3960494113248494,30.523229455995374,10.783975887480329,78.7202615017041,1.004243514257685e-14,82.0027060011816C-10.783975887480308,85.28515050065909,-36.25681949411771,49.78568845826722,-49.408009600801016,28.525727643146052C-62.559199707484325,7.265766828024887,-87.14180890690001,-32.39223700018193,-78.90714064009984,-45.55705888954541C-70.67247237329967,-58.72188077890889,-27.050986419439383,-50.03099569844172,-2.2410164254542602e-14,-50.463203693034835C27.05098641943934,-50.89541168762795,80.84947025585619,-58.032684246990094,83.39877787653634,-48.150306857104106" stroke="#aaaaaa" fill="#ffffff" stroke-width="0.44480000000000003" transform="translate(588, 133.88479614257812)" stroke-opacity="0.3" fill-opacity="0" stroke-dashoffset="0"/></g><g class="comparison-group"><path class="line-comparison" d="M64.21827292094282,-37.07643715779922C72.49340638807125,-20.524039094597754,60.353846289594344,10.454760950293078,49.65080080277055,28.665903208960046C38.94775531594675,46.87704546762701,15.477939125558065,72.80952514321436,8.840776236627482e-15,72.19041639420259C-15.477939125558047,71.57130764519081,-36.236586893953586,41.01303429774195,-43.2168339505778,24.95125071488943C-50.197081007202016,8.889467132036906,-49.08428799817493,-8.246995788722867,-41.881482339745304,-24.180285102912563C-34.67867668131568,-40.11357441710226,-17.68329254344805,-68.49912649443432,-3.137422995635964e-14,-70.64848517024876C17.683292543447987,-72.7978438460632,55.943139453814396,-53.628835221000685,64.21827292094282,-37.07643715779922" stroke="#aaaaaa" fill="#ffffff" stroke-width="0.44480000000000003" transform="translate(826.4000244140625, 133.88479614257812)" stroke-opacity="0.3" fill-opacity="0" stroke-dashoffset="0"/><path class="line-comparison" d="M72.10898698495282,-41.63214304675377C82.0634262657039,-27.217422362215583,71.74480018199851,16.16691525721299,59.726635684506384,34.48318919024045C47.708471187014254,52.79946312326791,18.431898749520776,69.1182352434461,8.360112674247737e-15,68.26550055141101C-18.431898749520762,67.41276585937592,-40.3438047272716,46.81863898187119,-50.864756812618246,29.36678103802997C-61.38570889796489,11.914923094188747,-71.60317198084958,-22.883661119133222,-63.12571251207987,-36.445647111636326C-54.64825304331017,-50.00763310413943,-22.539116582838805,-51.14071892780243,-2.3094919273431402e-14,-52.00513491698867C22.539116582838755,-52.869550906174915,62.154547704201754,-56.04686373129195,72.10898698495282,-41.63214304675377" stroke="#aaaaaa" fill="#ffffff" stroke-width="0.44480000000000003" transform="translate(826.4000244140625, 133.88479614257812)" stroke-opacity="0.3" fill-opacity="0" stroke-dashoffset="0"/><path class="line-comparison" d="M57.17732806382622,-33.01134574919364C66.2819981376839,-12.94287724349136,64.15757512045045,11.856516608432937,54.628020443146085,31.539502308146755C45.098465765841716,51.222488007860576,12.948864105042045,88.1237057083923,1.0420099370160935e-14,85.08656844908927C-12.948864105042023,82.04943118978625,-13.151190106683321,33.221609097914595,-23.065164187106124,13.316678752328624C-32.979138267528924,-6.588251593257343,-63.328038513721154,-17.311682378027292,-59.48384448253681,-34.34301362442655C-55.639650451352466,-51.3743448708258,-19.443528757727208,-89.09325337193907,-3.946678927050003e-14,-88.87130872606691C19.44352875772713,-88.64936408019476,48.07265798996853,-53.079814254895915,57.17732806382622,-33.01134574919364" stroke="#aaaaaa" fill="#ffffff" stroke-width="0.44480000000000003" transform="translate(826.4000244140625, 133.88479614257812)" stroke-opacity="0.3" fill-opacity="0" stroke-dashoffset="0"/><path class="line-comparison" d="M61.1833828963236,-35.3242425851244C72.29108038642997,-16.15523396006187,76.84341542335882,19.507766242446316,66.64618494063822,38.47819281593904C56.44895445791762,57.44861938943176,19.423296157563062,80.11033586269279,9.613271247594933e-15,78.49831685583196C-19.42329615756304,76.88629784897113,-39.43333771988583,47.928362211231914,-49.89359200474009,28.806078774774026C-60.35384628959436,9.683795338316141,-71.07712437658225,-18.67839414471365,-62.761525709125564,-36.23538376291535C-54.44592704166889,-53.792373381117045,-20.657484767574896,-76.68771579740132,-3.398874911938961e-14,-76.53585893443616C20.657484767574825,-76.384002071471,50.075685406217225,-54.49325121018693,61.1833828963236,-35.3242425851244" stroke="#aaaaaa" fill="#ffffff" stroke-width="0.44480000000000003" transform="translate(826.4000244140625, 133.88479614257812)" stroke-opacity="0.3" fill-opacity="0" stroke-dashoffset="0"/><path class="line-comparison" d="M83.39877787653634,-48.150306857104106C85.9480854972165,-38.26792946721812,29.195642036836958,-12.86110816343319,15.295845724080904,8.831060646281092C1.3960494113248494,30.523229455995374,10.783975887480329,78.7202615017041,1.004243514257685e-14,82.0027060011816C-10.783975887480308,85.28515050065909,-36.25681949411771,49.78568845826722,-49.408009600801016,28.525727643146052C-62.559199707484325,7.265766828024887,-87.14180890690001,-32.39223700018193,-78.90714064009984,-45.55705888954541C-70.67247237329967,-58.72188077890889,-27.050986419439383,-50.03099569844172,-2.2410164254542602e-14,-50.463203693034835C27.05098641943934,-50.89541168762795,80.84947025585619,-58.032684246990094,83.39877787653634,-48.150306857104106" stroke="#aaaaaa" fill="#ffffff" stroke-width="0.44480000000000003" transform="translate(826.4000244140625, 133.88479614257812)" stroke-opacity="0.3" fill-opacity="0" stroke-dashoffset="0"/></g><g class="comparison-group"><path class="line-comparison" d="M64.21827292094282,-37.07643715779922C72.49340638807125,-20.524039094597754,60.353846289594344,10.454760950293078,49.65080080277055,28.665903208960046C38.94775531594675,46.87704546762701,15.477939125558065,72.80952514321436,8.840776236627482e-15,72.19041639420259C-15.477939125558047,71.57130764519081,-36.236586893953586,41.01303429774195,-43.2168339505778,24.95125071488943C-50.197081007202016,8.889467132036906,-49.08428799817493,-8.246995788722867,-41.881482339745304,-24.180285102912563C-34.67867668131568,-40.11357441710226,-17.68329254344805,-68.49912649443432,-3.137422995635964e-14,-70.64848517024876C17.683292543447987,-72.7978438460632,55.943139453814396,-53.628835221000685,64.21827292094282,-37.07643715779922" stroke="#aaaaaa" fill="#ffffff" stroke-width="0.44480000000000003" transform="translate(1064.800048828125, 133.88479614257812)" stroke-opacity="0.3" fill-opacity="0" stroke-dashoffset="0"/><path class="line-comparison" d="M72.10898698495282,-41.63214304675377C82.0634262657039,-27.217422362215583,71.74480018199851,16.16691525721299,59.726635684506384,34.48318919024045C47.708471187014254,52.79946312326791,18.431898749520776,69.1182352434461,8.360112674247737e-15,68.26550055141101C-18.431898749520762,67.41276585937592,-40.3438047272716,46.81863898187119,-50.864756812618246,29.36678103802997C-61.38570889796489,11.914923094188747,-71.60317198084958,-22.883661119133222,-63.12571251207987,-36.445647111636326C-54.64825304331017,-50.00763310413943,-22.539116582838805,-51.14071892780243,-2.3094919273431402e-14,-52.00513491698867C22.539116582838755,-52.869550906174915,62.154547704201754,-56.04686373129195,72.10898698495282,-41.63214304675377" stroke="#aaaaaa" fill="#ffffff" stroke-width="0.44480000000000003" transform="translate(1064.800048828125, 133.88479614257812)" stroke-opacity="0.3" fill-opacity="0" stroke-dashoffset="0"/><path class="line-comparison" d="M57.17732806382622,-33.01134574919364C66.2819981376839,-12.94287724349136,64.15757512045045,11.856516608432937,54.628020443146085,31.539502308146755C45.098465765841716,51.222488007860576,12.948864105042045,88.1237057083923,1.0420099370160935e-14,85.08656844908927C-12.948864105042023,82.04943118978625,-13.151190106683321,33.221609097914595,-23.065164187106124,13.316678752328624C-32.979138267528924,-6.588251593257343,-63.328038513721154,-17.311682378027292,-59.48384448253681,-34.34301362442655C-55.639650451352466,-51.3743448708258,-19.443528757727208,-89.09325337193907,-3.946678927050003e-14,-88.87130872606691C19.44352875772713,-88.64936408019476,48.07265798996853,-53.079814254895915,57.17732806382622,-33.01134574919364" stroke="#aaaaaa" fill="#ffffff" stroke-width="0.44480000000000003" transform="translate(1064.800048828125, 133.88479614257812)" stroke-opacity="0.3" fill-opacity="0" stroke-dashoffset="0"/><path class="line-comparison" d="M61.1833828963236,-35.3242425851244C72.29108038642997,-16.15523396006187,76.84341542335882,19.507766242446316,66.64618494063822,38.47819281593904C56.44895445791762,57.44861938943176,19.423296157563062,80.11033586269279,9.613271247594933e-15,78.49831685583196C-19.42329615756304,76.88629784897113,-39.43333771988583,47.928362211231914,-49.89359200474009,28.806078774774026C-60.35384628959436,9.683795338316141,-71.07712437658225,-18.67839414471365,-62.761525709125564,-36.23538376291535C-54.44592704166889,-53.792373381117045,-20.657484767574896,-76.68771579740132,-3.398874911938961e-14,-76.53585893443616C20.657484767574825,-76.384002071471,50.075685406217225,-54.49325121018693,61.1833828963236,-35.3242425851244" stroke="#aaaaaa" fill="#ffffff" stroke-width="0.44480000000000003" transform="translate(1064.800048828125, 133.88479614257812)" stroke-opacity="0.3" fill-opacity="0" stroke-dashoffset="0"/><path class="line-comparison" d="M83.39877787653634,-48.150306857104106C85.9480854972165,-38.26792946721812,29.195642036836958,-12.86110816343319,15.295845724080904,8.831060646281092C1.3960494113248494,30.523229455995374,10.783975887480329,78.7202615017041,1.004243514257685e-14,82.0027060011816C-10.783975887480308,85.28515050065909,-36.25681949411771,49.78568845826722,-49.408009600801016,28.525727643146052C-62.559199707484325,7.265766828024887,-87.14180890690001,-32.39223700018193,-78.90714064009984,-45.55705888954541C-70.67247237329967,-58.72188077890889,-27.050986419439383,-50.03099569844172,-2.2410164254542602e-14,-50.463203693034835C27.05098641943934,-50.89541168762795,80.84947025585619,-58.032684246990094,83.39877787653634,-48.150306857104106" stroke="#aaaaaa" fill="#ffffff" stroke-width="0.44480000000000003" transform="translate(1064.800048828125, 133.88479614257812)" stroke-opacity="0.3" fill-opacity="0" stroke-dashoffset="0"/></g></g><g id="lines"><path class="line-main" d="M64.21827292094282,-37.07643715779922C72.49340638807125,-20.524039094597754,60.353846289594344,10.454760950293078,49.65080080277055,28.665903208960046C38.94775531594675,46.87704546762701,15.477939125558065,72.80952514321436,8.840776236627482e-15,72.19041639420259C-15.477939125558047,71.57130764519081,-36.236586893953586,41.01303429774195,-43.2168339505778,24.95125071488943C-50.197081007202016,8.889467132036906,-49.08428799817493,-8.246995788722867,-41.881482339745304,-24.180285102912563C-34.67867668131568,-40.11357441710226,-17.68329254344805,-68.49912649443432,-3.137422995635964e-14,-70.64848517024876C17.683292543447987,-72.7978438460632,55.943139453814396,-53.628835221000685,64.21827292094282,-37.07643715779922" id="line-0" stroke="#1D6996" fill="#1D6996" fill-opacity="0.2" stroke-opacity="0.8" stroke-width="0.8896000000000001" transform="translate(111.19999694824219, 133.88479614257812)" stroke-dashoffset="0"/><path class="line-main" d="M72.10898698495282,-41.63214304675377C82.0634262657039,-27.217422362215583,71.74480018199851,16.16691525721299,59.726635684506384,34.48318919024045C47.708471187014254,52.79946312326791,18.431898749520776,69.1182352434461,8.360112674247737e-15,68.26550055141101C-18.431898749520762,67.41276585937592,-40.3438047272716,46.81863898187119,-50.864756812618246,29.36678103802997C-61.38570889796489,11.914923094188747,-71.60317198084958,-22.883661119133222,-63.12571251207987,-36.445647111636326C-54.64825304331017,-50.00763310413943,-22.539116582838805,-51.14071892780243,-2.3094919273431402e-14,-52.00513491698867C22.539116582838755,-52.869550906174915,62.154547704201754,-56.04686373129195,72.10898698495282,-41.63214304675377" id="line-1" stroke="#EDAD08" fill="#EDAD08" fill-opacity="0.2" stroke-opacity="0.8" stroke-width="0.8896000000000001" transform="translate(349.6000061035156, 133.88479614257812)" stroke-dashoffset="0"/><path class="line-main" d="M57.17732806382622,-33.01134574919364C66.2819981376839,-12.94287724349136,64.15757512045045,11.856516608432937,54.628020443146085,31.539502308146755C45.098465765841716,51.222488007860576,12.948864105042045,88.1237057083923,1.0420099370160935e-14,85.08656844908927C-12.948864105042023,82.04943118978625,-13.151190106683321,33.221609097914595,-23.065164187106124,13.316678752328624C-32.979138267528924,-6.588251593257343,-63.328038513721154,-17.311682378027292,-59.48384448253681,-34.34301362442655C-55.639650451352466,-51.3743448708258,-19.443528757727208,-89.09325337193907,-3.946678927050003e-14,-88.87130872606691C19.44352875772713,-88.64936408019476,48.07265798996853,-53.079814254895915,57.17732806382622,-33.01134574919364" id="line-2" stroke="rgb(115, 175, 72)" fill="rgb(115, 175, 72)" stroke-opacity="0.8" stroke-width="0.8896000000000001" transform="translate(588, 133.88479614257812)" stroke-dashoffset="0" fill-opacity="0.2"/><path class="line-main" d="M61.1833828963236,-35.3242425851244C72.29108038642997,-16.15523396006187,76.84341542335882,19.507766242446316,66.64618494063822,38.47819281593904C56.44895445791762,57.44861938943176,19.423296157563062,80.11033586269279,9.613271247594933e-15,78.49831685583196C-19.42329615756304,76.88629784897113,-39.43333771988583,47.928362211231914,-49.89359200474009,28.806078774774026C-60.35384628959436,9.683795338316141,-71.07712437658225,-18.67839414471365,-62.761525709125564,-36.23538376291535C-54.44592704166889,-53.792373381117045,-20.657484767574896,-76.68771579740132,-3.398874911938961e-14,-76.53585893443616C20.657484767574825,-76.384002071471,50.075685406217225,-54.49325121018693,61.1833828963236,-35.3242425851244" id="line-3" stroke="#94346E" fill="#94346E" fill-opacity="0.2" stroke-opacity="0.8" stroke-width="0.8896000000000001" transform="translate(826.4000244140625, 133.88479614257812)" stroke-dashoffset="0"/><path class="line-main" d="M83.39877787653634,-48.150306857104106C85.9480854972165,-38.26792946721812,29.195642036836958,-12.86110816343319,15.295845724080904,8.831060646281092C1.3960494113248494,30.523229455995374,10.783975887480329,78.7202615017041,1.004243514257685e-14,82.0027060011816C-10.783975887480308,85.28515050065909,-36.25681949411771,49.78568845826722,-49.408009600801016,28.525727643146052C-62.559199707484325,7.265766828024887,-87.14180890690001,-32.39223700018193,-78.90714064009984,-45.55705888954541C-70.67247237329967,-58.72188077890889,-27.050986419439383,-50.03099569844172,-2.2410164254542602e-14,-50.463203693034835C27.05098641943934,-50.89541168762795,80.84947025585619,-58.032684246990094,83.39877787653634,-48.150306857104106" id="line-4" stroke="#94346E" fill="#94346E" fill-opacity="0.2" stroke-opacity="0.8" stroke-width="0.8896000000000001" transform="translate(1064.800048828125, 133.88479614257812)" stroke-dashoffset="0"/></g></g></svg><svg xmlns="http://www.w3.org/2000/svg" class="flourish-panel-close" viewBox="0 0 40 40" style="width: 1.25rem; height: 1.25rem; position: absolute; right: 1rem; top: 1rem; cursor: pointer; opacity: 0;" x="-24" y="115.3125"><path stroke="#333333" stroke-width="0.5rem" stroke-linecap="round" d="M 10,10 L 30,30 M 30,10 L 10,30" style="stroke: rgb(51, 51, 51);"/></svg></svg>