<svg xmlns="http://www.w3.org/2000/svg" width="1600" height="900"><rect width="1600" height="900" x="0" y="0" fill="#FFFFFF" id="backgorund"/><g transform="translate(50,40)" id="viz"><g id="arcs"><path d="M79.56732440523653,643A31.283662202618267,31.283662202618267 0,0,0 17,643" fill="none" stroke="gray" stroke-width="17" opacity="0.7"/><path d="M51.92097097271144,643A17.46048548635572,17.46048548635572 0,0,0 17,643" fill="none" stroke="gray" stroke-width="10.2" opacity="0.7"/><path d="M107.21367783776162,643A45.10683891888081,45.10683891888081 0,0,0 17,643" fill="none" stroke="gray" stroke-width="17" opacity="0.7"/><path d="M179.540893564799,643A49.98678457978124,49.98678457978124 0,0,0 79.56732440523653,643" fill="none" stroke="gray" stroke-width="10.2" opacity="0.7"/><path d="M179.540893564799,643A63.80996129604378,63.80996129604378 0,0,0 51.92097097271144,643" fill="none" stroke="gray" stroke-width="10.2" opacity="0.7"/><path d="M179.540893564799,643A36.16360786351869,36.16360786351869 0,0,0 107.21367783776162,643" fill="none" stroke="gray" stroke-width="10.2" opacity="0.7"/><path d="M132.20707012765223,643A23.666911718573388,23.666911718573388 0,0,1 179.540893564799,643" fill="none" stroke="gray" stroke-width="5.1" opacity="0.7"/><path d="M154.54750127490837,643A12.496696144945318,12.496696144945318 0,0,1 179.540893564799,643" fill="none" stroke="gray" stroke-width="5.1" opacity="0.7"/><path d="M292.8996389181759,643A80.34628439526185,80.34628439526185 0,0,0 132.20707012765223,643" fill="none" stroke="gray" stroke-width="3.74" opacity="0.7"/><path d="M890.5259070475491,643A367.9892028863204,367.9892028863204 0,0,0 154.54750127490837,643" fill="none" stroke="gray" stroke-width="3.74" opacity="0.7"/><path d="M374.82546846703303,643A40.962914774428555,40.962914774428555 0,0,0 292.8996389181759,643" fill="none" stroke="gray" stroke-width="1.7000000000000002" opacity="0.7"/><path d="M409.3560516279778,643A58.22820635490095,58.22820635490095 0,0,0 292.8996389181759,643" fill="none" stroke="gray" stroke-width="1.7000000000000002" opacity="0.7"/><path d="M547.2292614981712,643A127.16481128999766,127.16481128999766 0,0,0 292.8996389181759,643" fill="none" stroke="gray" stroke-width="1.7000000000000002" opacity="0.7"/><path d="M778.1881133336806,643A242.64423720775233,242.64423720775233 0,0,0 292.8996389181759,643" fill="none" stroke="gray" stroke-width="1.7000000000000002" opacity="0.7"/><path d="M1028.2960728588423,643A367.6982169703332,367.6982169703332 0,0,0 292.8996389181759,643" fill="none" stroke="gray" stroke-width="1.7000000000000002" opacity="0.7"/><path d="M1342.8435952913405,643A524.9719781865823,524.9719781865823 0,0,0 292.8996389181759,643" fill="none" stroke="gray" stroke-width="1.7000000000000002" opacity="0.7"/><path d="M1494.254374108064,643A600.677367594944,600.677367594944 0,0,0 292.8996389181759,643" fill="none" stroke="gray" stroke-width="1.7000000000000002" opacity="0.7"/><path d="M1418.4040529807648,643A263.93907296660785,263.93907296660785 0,0,0 890.5259070475491,643" fill="none" stroke="gray" stroke-width="1.7000000000000002" opacity="0.7"/><path d="M456.85434207479045,643A216.83578248637934,216.83578248637934 0,0,1 890.5259070475491,643" fill="none" stroke="gray" stroke-width="1.7000000000000002" opacity="0.7"/><path d="M1281.868992501441,643A195.67154272694592,195.67154272694592 0,0,0 890.5259070475491,643" fill="none" stroke="gray" stroke-width="1.7000000000000002" opacity="0.7"/><path d="M1077.511365663047,643A93.4927293077489,93.4927293077489 0,0,0 890.5259070475491,643" fill="none" stroke="gray" stroke-width="1.7000000000000002" opacity="0.7"/><path d="M672.5626429061848,643A108.98163207068217,108.98163207068217 0,0,1 890.5259070475491,643" fill="none" stroke="gray" stroke-width="1.7000000000000002" opacity="0.7"/><path d="M853.6426054914449,643A18.44165077805212,18.44165077805212 0,0,1 890.5259070475491,643" fill="none" stroke="gray" stroke-width="1.7000000000000002" opacity="0.7"/><path d="M567.1781583739693,643A161.67387433678994,161.67387433678994 0,0,1 890.5259070475491,643" fill="none" stroke="gray" stroke-width="1.7000000000000002" opacity="0.7"/><path d="M200.46186453751045,643A87.18180196476129,87.18180196476129 0,0,1 374.82546846703303,643" fill="none" stroke="gray" stroke-width="0.34" opacity="0.7"/><path d="M214.65745305040824,643A80.0840077083124,80.0840077083124 0,0,1 374.82546846703303,643" fill="none" stroke="gray" stroke-width="0.34" opacity="0.7"/><path d="M243.0486300762038,643A65.88841919541461,65.88841919541461 0,0,1 374.82546846703303,643" fill="none" stroke="gray" stroke-width="0.34" opacity="0.7"/><path d="M271.43980710199935,643A51.69283068251684,51.69283068251684 0,0,1 374.82546846703303,643" fill="none" stroke="gray" stroke-width="0.34" opacity="0.7"/><path d="M911.9857388637257,643A268.58013519834634,268.58013519834634 0,0,0 374.82546846703303,643" fill="none" stroke="gray" stroke-width="0.34" opacity="0.7"/><path d="M926.1813273766235,643A275.6779294547952,275.6779294547952 0,0,0 374.82546846703303,643" fill="none" stroke="gray" stroke-width="0.34" opacity="0.7"/><path d="M940.3769158895212,643A282.7757237112441,282.7757237112441 0,0,0 374.82546846703303,643" fill="none" stroke="gray" stroke-width="0.34" opacity="0.7"/><path d="M1359.4949462582981,643A492.33473889563254,492.33473889563254 0,0,0 374.82546846703303,643" fill="none" stroke="gray" stroke-width="0.34" opacity="0.7"/><path d="M1402.0817117969914,643A513.6281216649792,513.6281216649792 0,0,0 374.82546846703303,643" fill="none" stroke="gray" stroke-width="0.34" opacity="0.7"/><path d="M314.3594707343525,643A47.49829044681266,47.49829044681266 0,0,1 409.3560516279778,643" fill="none" stroke="gray" stroke-width="0.34" opacity="0.7"/><path d="M426.00740259493523,643A8.325675483478705,8.325675483478705 0,0,0 409.3560516279778,643" fill="none" stroke="gray" stroke-width="0.34" opacity="0.7"/><path d="M809.8279587257218,643A200.235953548872,200.235953548872 0,0,0 409.3560516279778,643" fill="none" stroke="gray" stroke-width="0.34" opacity="0.7"/><path d="M1265.9369177042943,643A428.2904330381582,428.2904330381582 0,0,0 409.3560516279778,643" fill="none" stroke="gray" stroke-width="0.34" opacity="0.7"/><path d="M257.2442185891016,643A144.99252145453482,144.99252145453482 0,0,1 547.2292614981712,643" fill="none" stroke="gray" stroke-width="0.34" opacity="0.7"/><path d="M530.288047093339,643A8.470607202416147,8.470607202416147 0,0,1 547.2292614981712,643" fill="none" stroke="gray" stroke-width="0.34" opacity="0.7"/><path d="M795.6323702128241,643A124.20155435732642,124.20155435732642 0,0,0 547.2292614981712,643" fill="none" stroke="gray" stroke-width="0.34" opacity="0.7"/><path d="M954.572504402419,643A203.67162145212387,203.67162145212387 0,0,0 547.2292614981712,643" fill="none" stroke="gray" stroke-width="0.34" opacity="0.7"/><path d="M1045.2372872636747,643A249.00401288275174,249.00401288275174 0,0,0 547.2292614981712,643" fill="none" stroke="gray" stroke-width="0.34" opacity="0.7"/><path d="M328.55505924725026,643A224.81652704321516,224.81652704321516 0,0,1 778.1881133336806,643" fill="none" stroke="gray" stroke-width="0.34" opacity="0.7"/><path d="M342.750647760148,643A217.71873278676628,217.71873278676628 0,0,1 778.1881133336806,643" fill="none" stroke="gray" stroke-width="0.34" opacity="0.7"/><path d="M426.00740259493523,643A176.09035536937267,176.09035536937267 0,0,1 778.1881133336806,643" fill="none" stroke="gray" stroke-width="0.34" opacity="0.7"/><path d="M440.202991107833,643A168.9925611129238,168.9925611129238 0,0,1 778.1881133336806,643" fill="none" stroke="gray" stroke-width="0.34" opacity="0.7"/><path d="M824.0235472386196,643A22.917716952469505,22.917716952469505 0,0,0 778.1881133336806,643" fill="none" stroke="gray" stroke-width="0.34" opacity="0.7"/><path d="M838.2191357515173,643A30.015511208918383,30.015511208918383 0,0,0 778.1881133336806,643" fill="none" stroke="gray" stroke-width="0.34" opacity="0.7"/><path d="M1011.35485845401,643A116.58337256016472,116.58337256016472 0,0,0 778.1881133336806,643" fill="none" stroke="gray" stroke-width="0.34" opacity="0.7"/><path d="M228.85304156330602,643A399.7215156477681,399.7215156477681 0,0,1 1028.2960728588423,643" fill="none" stroke="gray" stroke-width="0.34" opacity="0.7"/><path d="M356.94623627304577,643A335.67491829289827,335.67491829289827 0,0,1 1028.2960728588423,643" fill="none" stroke="gray" stroke-width="0.34" opacity="0.7"/><path d="M1059.4328757765725,643A15.568401458865083,15.568401458865083 0,0,0 1028.2960728588423,643" fill="none" stroke="gray" stroke-width="0.34" opacity="0.7"/><path d="M1237.5457406784988,643A104.62483390982823,104.62483390982823 0,0,0 1028.2960728588423,643" fill="none" stroke="gray" stroke-width="0.34" opacity="0.7"/><path d="M1477.3131597032316,643A224.50854342219463,224.50854342219463 0,0,0 1028.2960728588423,643" fill="none" stroke="gray" stroke-width="0.34" opacity="0.7"/><path d="M392.70470066102035,643A475.0694473151601,475.0694473151601 0,0,1 1342.8435952913405,643" fill="none" stroke="gray" stroke-width="0.34" opacity="0.7"/><path d="M982.9636814282145,643A179.93995693156302,179.93995693156302 0,0,1 1342.8435952913405,643" fill="none" stroke="gray" stroke-width="0.34" opacity="0.7"/><path d="M997.1592699411123,643A172.84216267511414,172.84216267511414 0,0,1 1342.8435952913405,643" fill="none" stroke="gray" stroke-width="0.34" opacity="0.7"/><path d="M1297.8010672985877,643A22.521263996376433,22.521263996376433 0,0,1 1342.8435952913405,643" fill="none" stroke="gray" stroke-width="0.34" opacity="0.7"/><path d="M392.70470066102035,643A550.7748367235218,550.7748367235218 0,0,1 1494.254374108064,643" fill="none" stroke="gray" stroke-width="0.34" opacity="0.7"/><path d="M968.7680929153167,643A262.7431405963736,262.7431405963736 0,0,1 1494.254374108064,643" fill="none" stroke="gray" stroke-width="0.34" opacity="0.7"/><path d="M1251.7413291913965,643A121.25652245833373,121.25652245833373 0,0,1 1494.254374108064,643" fill="none" stroke="gray" stroke-width="0.34" opacity="0.7"/><path d="M1373.6905347711959,643A60.28191966843406,60.28191966843406 0,0,1 1494.254374108064,643" fill="none" stroke="gray" stroke-width="0.34" opacity="0.7"/><path d="M1387.8861232840936,643A53.18412541198518,53.18412541198518 0,0,1 1494.254374108064,643" fill="none" stroke="gray" stroke-width="0.34" opacity="0.7"/><path d="M584.3814293578326,643A8.601635491931688,8.601635491931688 0,0,0 567.1781583739693,643" fill="none" stroke="gray" stroke-width="0.34" opacity="0.7"/><path d="M598.5770178707304,643A15.699429748380567,15.699429748380567 0,0,0 567.1781583739693,643" fill="none" stroke="gray" stroke-width="0.34" opacity="0.7"/><path d="M612.7726063836282,643A22.797224004829445,22.797224004829445 0,0,0 567.1781583739693,643" fill="none" stroke="gray" stroke-width="0.34" opacity="0.7"/><path d="M626.9681948965259,643A29.895018261278324,29.895018261278324 0,0,0 567.1781583739693,643" fill="none" stroke="gray" stroke-width="0.34" opacity="0.7"/><path d="M641.1637834094237,643A36.9928125177272,36.9928125177272 0,0,0 567.1781583739693,643" fill="none" stroke="gray" stroke-width="0.34" opacity="0.7"/><path d="M655.3593719223214,643A44.09060677417608,44.09060677417608 0,0,0 567.1781583739693,643" fill="none" stroke="gray" stroke-width="0.34" opacity="0.7"/><path d="M689.7659138900482,643A8.601635491931688,8.601635491931688 0,0,0 672.5626429061848,643" fill="none" stroke="gray" stroke-width="0.34" opacity="0.7"/><path d="M703.9615024029459,643A15.699429748380567,15.699429748380567 0,0,0 672.5626429061848,643" fill="none" stroke="gray" stroke-width="0.34" opacity="0.7"/><path d="M718.1570909158437,643A22.797224004829445,22.797224004829445 0,0,0 672.5626429061848,643" fill="none" stroke="gray" stroke-width="0.34" opacity="0.7"/><path d="M732.3526794287415,643A29.895018261278324,29.895018261278324 0,0,0 672.5626429061848,643" fill="none" stroke="gray" stroke-width="0.34" opacity="0.7"/><path d="M746.5482679416392,643A36.9928125177272,36.9928125177272 0,0,0 672.5626429061848,643" fill="none" stroke="gray" stroke-width="0.34" opacity="0.7"/><path d="M760.743856454537,643A44.09060677417608,44.09060677417608 0,0,0 672.5626429061848,643" fill="none" stroke="gray" stroke-width="0.34" opacity="0.7"/><path d="M869.0660752313726,643A7.711734869963834,7.711734869963834 0,0,0 853.6426054914449,643" fill="none" stroke="gray" stroke-width="0.34" opacity="0.7"/><path d="M1095.5898555495212,643A9.039244943237122,9.039244943237122 0,0,0 1077.511365663047,643" fill="none" stroke="gray" stroke-width="0.34" opacity="0.7"/><path d="M1109.785444062419,643A16.137039199686,16.137039199686 0,0,0 1077.511365663047,643" fill="none" stroke="gray" stroke-width="0.34" opacity="0.7"/><path d="M1123.9810325753167,643A23.23483345613488,23.23483345613488 0,0,0 1077.511365663047,643" fill="none" stroke="gray" stroke-width="0.34" opacity="0.7"/><path d="M1138.1766210882145,643A30.332627712583758,30.332627712583758 0,0,0 1077.511365663047,643" fill="none" stroke="gray" stroke-width="0.34" opacity="0.7"/><path d="M1180.7633866269077,643A51.62601048193039,51.62601048193039 0,0,0 1077.511365663047,643" fill="none" stroke="gray" stroke-width="0.34" opacity="0.7"/><path d="M1194.9589751398055,643A58.72380473837927,58.72380473837927 0,0,0 1077.511365663047,643" fill="none" stroke="gray" stroke-width="0.34" opacity="0.7"/><path d="M1152.3722096011122,643A37.430421969032636,37.430421969032636 0,0,0 1077.511365663047,643" fill="none" stroke="gray" stroke-width="0.34" opacity="0.7"/><path d="M1166.56779811401,643A44.528216225481515,44.528216225481515 0,0,0 1077.511365663047,643" fill="none" stroke="gray" stroke-width="0.34" opacity="0.7"/><path d="M1209.1545636527032,643A65.82159899482815,65.82159899482815 0,0,0 1077.511365663047,643" fill="none" stroke="gray" stroke-width="0.34" opacity="0.7"/><path d="M1223.350152165601,643A72.91939325127703,72.91939325127703 0,0,0 1077.511365663047,643" fill="none" stroke="gray" stroke-width="0.34" opacity="0.7"/><path d="M1311.9966558114854,643A15.063831655022227,15.063831655022227 0,0,0 1281.868992501441,643" fill="none" stroke="gray" stroke-width="0.34" opacity="0.7"/><path d="M1326.1922443243832,643A22.161625911471106,22.161625911471106 0,0,0 1281.868992501441,643" fill="none" stroke="gray" stroke-width="0.34" opacity="0.7"/><path d="M473.5056930417479,643A8.325675483478733,8.325675483478733 0,0,0 456.85434207479045,643" fill="none" stroke="gray" stroke-width="0.34" opacity="0.7"/><path d="M487.7012815546457,643A15.423469739927611,15.423469739927611 0,0,0 456.85434207479045,643" fill="none" stroke="gray" stroke-width="0.34" opacity="0.7"/><path d="M501.89687006754343,643A22.52126399637649,22.52126399637649 0,0,0 456.85434207479045,643" fill="none" stroke="gray" stroke-width="0.34" opacity="0.7"/><path d="M516.0924585804412,643A29.61905825282537,29.61905825282537 0,0,0 456.85434207479045,643" fill="none" stroke="gray" stroke-width="0.34" opacity="0.7"/><path d="M1434.7263941645383,643A8.16117059188673,8.16117059188673 0,0,0 1418.4040529807648,643" fill="none" stroke="gray" stroke-width="0.34" opacity="0.7"/><path d="M1448.921982677436,643A15.258964848335609,15.258964848335609 0,0,0 1418.4040529807648,643" fill="none" stroke="gray" stroke-width="0.34" opacity="0.7"/><path d="M1463.1175711903338,643A22.356759104784487,22.356759104784487 0,0,0 1418.4040529807648,643" fill="none" stroke="gray" stroke-width="0.34" opacity="0.7"/></g><g id="nodes"><g><circle cx="17" cy="643" r="17"/><text transform="translate(17,665) rotate(-90)" alignment-baseline="middle" font-family="Helvetica, Arial, sans-serif" font-size="12" text-anchor="end">   FutureProof Score</text></g><g><circle cx="51.92097097271144" cy="643" r="9.725382459813659"/><text transform="translate(51.92097097271144,657.7253824598137) rotate(-90)" alignment-baseline="middle" font-family="Helvetica, Arial, sans-serif" font-size="12" text-anchor="end">  C-Level Score</text></g><g><circle cx="79.56732440523653" cy="643" r="9.725382459813659"/><text transform="translate(79.56732440523653,657.7253824598137) rotate(-90)" alignment-baseline="middle" font-family="Helvetica, Arial, sans-serif" font-size="12" text-anchor="end">  Decode Score</text></g><g><circle cx="107.21367783776162" cy="643" r="9.725382459813659"/><text transform="translate(107.21367783776162,657.7253824598137) rotate(-90)" alignment-baseline="middle" font-family="Helvetica, Arial, sans-serif" font-size="12" text-anchor="end">  FutureBrand Score </text></g><g><circle cx="132.20707012765223" cy="643" r="7.072421317179177"/><text transform="translate(132.20707012765223,655.0724213171792) rotate(-90)" alignment-baseline="middle" font-family="Helvetica, Arial, sans-serif" font-size="12" text-anchor="end"> Decode Score 1</text></g><g><circle cx="154.54750127490837" cy="643" r="7.072421317179177"/><text transform="translate(154.54750127490837,655.0724213171792) rotate(-90)" alignment-baseline="middle" font-family="Helvetica, Arial, sans-serif" font-size="12" text-anchor="end"> Decode Score 2</text></g><g><circle cx="179.540893564799" cy="643" r="9.725382459813659"/><text transform="translate(179.540893564799,657.7253824598137) rotate(-90)" alignment-baseline="middle" font-family="Helvetica, Arial, sans-serif" font-size="12" text-anchor="end"> Decode Score 3</text></g><g><circle cx="200.46186453751045" cy="643" r="3"/><text transform="translate(200.46186453751045,651) rotate(-90)" alignment-baseline="middle" font-family="Helvetica, Arial, sans-serif" font-size="12" text-anchor="end">ADWORDS COST</text></g><g><circle cx="214.65745305040824" cy="643" r="3"/><text transform="translate(214.65745305040824,651) rotate(-90)" alignment-baseline="middle" font-family="Helvetica, Arial, sans-serif" font-size="12" text-anchor="end">ADWORDS TRAFFIC</text></g><g><circle cx="228.85304156330602" cy="643" r="3"/><text transform="translate(228.85304156330602,651) rotate(-90)" alignment-baseline="middle" font-family="Helvetica, Arial, sans-serif" font-size="12" text-anchor="end">ANSWERED</text></g><g><circle cx="243.0486300762038" cy="643" r="3"/><text transform="translate(243.0486300762038,651) rotate(-90)" alignment-baseline="middle" font-family="Helvetica, Arial, sans-serif" font-size="12" text-anchor="end">AVG VISIT DURATION</text></g><g><circle cx="257.2442185891016" cy="643" r="3"/><text transform="translate(257.2442185891016,651) rotate(-90)" alignment-baseline="middle" font-family="Helvetica, Arial, sans-serif" font-size="12" text-anchor="end">BENEFICIOS</text></g><g><circle cx="271.43980710199935" cy="643" r="3"/><text transform="translate(271.43980710199935,651) rotate(-90)" alignment-baseline="middle" font-family="Helvetica, Arial, sans-serif" font-size="12" text-anchor="end">BOUNCE RATE</text></g><g><circle cx="292.8996389181759" cy="643" r="10.264243303278791"/><text transform="translate(292.8996389181759,658.2642433032788) rotate(-90)" alignment-baseline="middle" font-family="Helvetica, Arial, sans-serif" font-size="12" text-anchor="end">CHANNELS</text></g><g><circle cx="314.3594707343525" cy="643" r="3"/><text transform="translate(314.3594707343525,651) rotate(-90)" alignment-baseline="middle" font-family="Helvetica, Arial, sans-serif" font-size="12" text-anchor="end">CHECKINS</text></g><g><circle cx="328.55505924725026" cy="643" r="3"/><text transform="translate(328.55505924725026,651) rotate(-90)" alignment-baseline="middle" font-family="Helvetica, Arial, sans-serif" font-size="12" text-anchor="end">COMMENTS MED</text></g><g><circle cx="342.750647760148" cy="643" r="3"/><text transform="translate(342.750647760148,651) rotate(-90)" alignment-baseline="middle" font-family="Helvetica, Arial, sans-serif" font-size="12" text-anchor="end">COMMENTS TOTAL</text></g><g><circle cx="356.94623627304577" cy="643" r="3"/><text transform="translate(356.94623627304577,651) rotate(-90)" alignment-baseline="middle" font-family="Helvetica, Arial, sans-serif" font-size="12" text-anchor="end">CONSUMER SCORE</text></g><g><circle cx="374.82546846703303" cy="643" r="6.683643681089523"/><text transform="translate(374.82546846703303,654.6836436810895) rotate(-90)" alignment-baseline="middle" font-family="Helvetica, Arial, sans-serif" font-size="12" text-anchor="end">DOMAIN</text></g><g><circle cx="392.70470066102035" cy="643" r="3"/><text transform="translate(392.70470066102035,651) rotate(-90)" alignment-baseline="middle" font-family="Helvetica, Arial, sans-serif" font-size="12" text-anchor="end">ENGAGEMENT</text></g><g><circle cx="409.3560516279778" cy="643" r="5.455762454059682"/><text transform="translate(409.3560516279778,653.4557624540597) rotate(-90)" alignment-baseline="middle" font-family="Helvetica, Arial, sans-serif" font-size="12" text-anchor="end">FACEBOOK</text></g><g><circle cx="426.00740259493523" cy="643" r="3"/><text transform="translate(426.00740259493523,651) rotate(-90)" alignment-baseline="middle" font-family="Helvetica, Arial, sans-serif" font-size="12" text-anchor="end">FOLLOWERS</text></g><g><circle cx="440.202991107833" cy="643" r="3"/><text transform="translate(440.202991107833,651) rotate(-90)" alignment-baseline="middle" font-family="Helvetica, Arial, sans-serif" font-size="12" text-anchor="end">FOLLOWING</text></g><g><circle cx="456.85434207479045" cy="643" r="5.455762454059682"/><text transform="translate(456.85434207479045,653.4557624540597) rotate(-90)" alignment-baseline="middle" font-family="Helvetica, Arial, sans-serif" font-size="12" text-anchor="end">FORECAST</text></g><g><circle cx="473.5056930417479" cy="643" r="3"/><text transform="translate(473.5056930417479,651) rotate(-90)" alignment-baseline="middle" font-family="Helvetica, Arial, sans-serif" font-size="12" text-anchor="end">FORECAST-NEG-Y</text></g><g><circle cx="487.7012815546457" cy="643" r="3"/><text transform="translate(487.7012815546457,651) rotate(-90)" alignment-baseline="middle" font-family="Helvetica, Arial, sans-serif" font-size="12" text-anchor="end">FORECAST-POS-FCST</text></g><g><circle cx="501.89687006754343" cy="643" r="3"/><text transform="translate(501.89687006754343,651) rotate(-90)" alignment-baseline="middle" font-family="Helvetica, Arial, sans-serif" font-size="12" text-anchor="end">FORECAST-POS-FCST-GROWTH</text></g><g><circle cx="516.0924585804412" cy="643" r="3"/><text transform="translate(516.0924585804412,651) rotate(-90)" alignment-baseline="middle" font-family="Helvetica, Arial, sans-serif" font-size="12" text-anchor="end">FORECAST-POS-Y</text></g><g><circle cx="530.288047093339" cy="643" r="3"/><text transform="translate(530.288047093339,651) rotate(-90)" alignment-baseline="middle" font-family="Helvetica, Arial, sans-serif" font-size="12" text-anchor="end">GERAL</text></g><g><circle cx="547.2292614981712" cy="643" r="5.745625891934576"/><text transform="translate(547.2292614981712,653.7456258919345) rotate(-90)" alignment-baseline="middle" font-family="Helvetica, Arial, sans-serif" font-size="12" text-anchor="end">GLASSDOOR</text></g><g><circle cx="567.1781583739693" cy="643" r="6.007682470965618"/><text transform="translate(567.1781583739693,654.0076824709656) rotate(-90)" alignment-baseline="middle" font-family="Helvetica, Arial, sans-serif" font-size="12" text-anchor="end">INFLUENTIAL</text></g><g><circle cx="584.3814293578326" cy="643" r="3"/><text transform="translate(584.3814293578326,651) rotate(-90)" alignment-baseline="middle" font-family="Helvetica, Arial, sans-serif" font-size="12" text-anchor="end">INFLUENTIAL-NEG-FCST-GROWTH</text></g><g><circle cx="598.5770178707304" cy="643" r="3"/><text transform="translate(598.5770178707304,651) rotate(-90)" alignment-baseline="middle" font-family="Helvetica, Arial, sans-serif" font-size="12" text-anchor="end">INFLUENTIAL-NEG-FORECAST</text></g><g><circle cx="612.7726063836282" cy="643" r="3"/><text transform="translate(612.7726063836282,651) rotate(-90)" alignment-baseline="middle" font-family="Helvetica, Arial, sans-serif" font-size="12" text-anchor="end">INFLUENTIAL-NEG-TOTAL</text></g><g><circle cx="626.9681948965259" cy="643" r="3"/><text transform="translate(626.9681948965259,651) rotate(-90)" alignment-baseline="middle" font-family="Helvetica, Arial, sans-serif" font-size="12" text-anchor="end">INFLUENTIAL-POS-FCST-GROWTH</text></g><g><circle cx="641.1637834094237" cy="643" r="3"/><text transform="translate(641.1637834094237,651) rotate(-90)" alignment-baseline="middle" font-family="Helvetica, Arial, sans-serif" font-size="12" text-anchor="end">INFLUENTIAL-POS-FORECAST</text></g><g><circle cx="655.3593719223214" cy="643" r="3"/><text transform="translate(655.3593719223214,651) rotate(-90)" alignment-baseline="middle" font-family="Helvetica, Arial, sans-serif" font-size="12" text-anchor="end">INFLUENTIAL-POS-TOTAL</text></g><g><circle cx="672.5626429061848" cy="643" r="6.007682470965618"/><text transform="translate(672.5626429061848,654.0076824709656) rotate(-90)" alignment-baseline="middle" font-family="Helvetica, Arial, sans-serif" font-size="12" text-anchor="end">INNOV</text></g><g><circle cx="689.7659138900482" cy="643" r="3"/><text transform="translate(689.7659138900482,651) rotate(-90)" alignment-baseline="middle" font-family="Helvetica, Arial, sans-serif" font-size="12" text-anchor="end">INNOV-NEG</text></g><g><circle cx="703.9615024029459" cy="643" r="3"/><text transform="translate(703.9615024029459,651) rotate(-90)" alignment-baseline="middle" font-family="Helvetica, Arial, sans-serif" font-size="12" text-anchor="end">INNOV-NEG-FCST</text></g><g><circle cx="718.1570909158437" cy="643" r="3"/><text transform="translate(718.1570909158437,651) rotate(-90)" alignment-baseline="middle" font-family="Helvetica, Arial, sans-serif" font-size="12" text-anchor="end">INNOV-NEG-FCST-GROWTH</text></g><g><circle cx="732.3526794287415" cy="643" r="3"/><text transform="translate(732.3526794287415,651) rotate(-90)" alignment-baseline="middle" font-family="Helvetica, Arial, sans-serif" font-size="12" text-anchor="end">INNOV-POS</text></g><g><circle cx="746.5482679416392" cy="643" r="3"/><text transform="translate(746.5482679416392,651) rotate(-90)" alignment-baseline="middle" font-family="Helvetica, Arial, sans-serif" font-size="12" text-anchor="end">INNOV-POS-FCST</text></g><g><circle cx="760.743856454537" cy="643" r="3"/><text transform="translate(760.743856454537,651) rotate(-90)" alignment-baseline="middle" font-family="Helvetica, Arial, sans-serif" font-size="12" text-anchor="end">INNOV-POS-FCST-GROWTH</text></g><g><circle cx="778.1881133336806" cy="643" r="6.2486683662458"/><text transform="translate(778.1881133336806,654.2486683662459) rotate(-90)" alignment-baseline="middle" font-family="Helvetica, Arial, sans-serif" font-size="12" text-anchor="end">INSTAGRAM</text></g><g><circle cx="795.6323702128241" cy="643" r="3"/><text transform="translate(795.6323702128241,651) rotate(-90)" alignment-baseline="middle" font-family="Helvetica, Arial, sans-serif" font-size="12" text-anchor="end">LEADERSHIP</text></g><g><circle cx="809.8279587257218" cy="643" r="3"/><text transform="translate(809.8279587257218,651) rotate(-90)" alignment-baseline="middle" font-family="Helvetica, Arial, sans-serif" font-size="12" text-anchor="end">LIKES</text></g><g><circle cx="824.0235472386196" cy="643" r="3"/><text transform="translate(824.0235472386196,651) rotate(-90)" alignment-baseline="middle" font-family="Helvetica, Arial, sans-serif" font-size="12" text-anchor="end">LIKES MED</text></g><g><circle cx="838.2191357515173" cy="643" r="3"/><text transform="translate(838.2191357515173,651) rotate(-90)" alignment-baseline="middle" font-family="Helvetica, Arial, sans-serif" font-size="12" text-anchor="end">LIKES TOTAL</text></g><g><circle cx="853.6426054914449" cy="643" r="4.227881227029841"/><text transform="translate(853.6426054914449,652.2278812270298) rotate(-90)" alignment-baseline="middle" font-family="Helvetica, Arial, sans-serif" font-size="12" text-anchor="end">MENTION</text></g><g><circle cx="869.0660752313726" cy="643" r="3"/><text transform="translate(869.0660752313726,651) rotate(-90)" alignment-baseline="middle" font-family="Helvetica, Arial, sans-serif" font-size="12" text-anchor="end">MENTION-VOLUME-TOTAL</text></g><g><circle cx="890.5259070475491" cy="643" r="10.264243303278791"/><text transform="translate(890.5259070475491,658.2642433032788) rotate(-90)" alignment-baseline="middle" font-family="Helvetica, Arial, sans-serif" font-size="12" text-anchor="end">MONITORING</text></g><g><circle cx="911.9857388637257" cy="643" r="3"/><text transform="translate(911.9857388637257,651) rotate(-90)" alignment-baseline="middle" font-family="Helvetica, Arial, sans-serif" font-size="12" text-anchor="end">ORGANIC COST</text></g><g><circle cx="926.1813273766235" cy="643" r="3"/><text transform="translate(926.1813273766235,651) rotate(-90)" alignment-baseline="middle" font-family="Helvetica, Arial, sans-serif" font-size="12" text-anchor="end">ORGANIC TRAFFIC</text></g><g><circle cx="940.3769158895212" cy="643" r="3"/><text transform="translate(940.3769158895212,651) rotate(-90)" alignment-baseline="middle" font-family="Helvetica, Arial, sans-serif" font-size="12" text-anchor="end">PAGES/VISIT</text></g><g><circle cx="954.572504402419" cy="643" r="3"/><text transform="translate(954.572504402419,651) rotate(-90)" alignment-baseline="middle" font-family="Helvetica, Arial, sans-serif" font-size="12" text-anchor="end">POSITIVE PERSPECTIVE</text></g><g><circle cx="968.7680929153167" cy="643" r="3"/><text transform="translate(968.7680929153167,651) rotate(-90)" alignment-baseline="middle" font-family="Helvetica, Arial, sans-serif" font-size="12" text-anchor="end">POST INTERACTION</text></g><g><circle cx="982.9636814282145" cy="643" r="3"/><text transform="translate(982.9636814282145,651) rotate(-90)" alignment-baseline="middle" font-family="Helvetica, Arial, sans-serif" font-size="12" text-anchor="end">POST INTERACTIONS</text></g><g><circle cx="997.1592699411123" cy="643" r="3"/><text transform="translate(997.1592699411123,651) rotate(-90)" alignment-baseline="middle" font-family="Helvetica, Arial, sans-serif" font-size="12" text-anchor="end">POSTS</text></g><g><circle cx="1011.35485845401" cy="643" r="3"/><text transform="translate(1011.35485845401,651) rotate(-90)" alignment-baseline="middle" font-family="Helvetica, Arial, sans-serif" font-size="12" text-anchor="end">POSTS TOTAL</text></g><g><circle cx="1028.2960728588423" cy="643" r="5.745625891934576"/><text transform="translate(1028.2960728588423,653.7456258919345) rotate(-90)" alignment-baseline="middle" font-family="Helvetica, Arial, sans-serif" font-size="12" text-anchor="end">RECLAMEAQUI</text></g><g><circle cx="1045.2372872636747" cy="643" r="3"/><text transform="translate(1045.2372872636747,651) rotate(-90)" alignment-baseline="middle" font-family="Helvetica, Arial, sans-serif" font-size="12" text-anchor="end">RECOMMENDS</text></g><g><circle cx="1059.4328757765725" cy="643" r="3"/><text transform="translate(1059.4328757765725,651) rotate(-90)" alignment-baseline="middle" font-family="Helvetica, Arial, sans-serif" font-size="12" text-anchor="end">RESOLVED</text></g><g><circle cx="1077.511365663047" cy="643" r="6.882901373576604"/><text transform="translate(1077.511365663047,654.8829013735766) rotate(-90)" alignment-baseline="middle" font-family="Helvetica, Arial, sans-serif" font-size="12" text-anchor="end">SENTIMENT</text></g><g><circle cx="1095.5898555495212" cy="643" r="3"/><text transform="translate(1095.5898555495212,651) rotate(-90)" alignment-baseline="middle" font-family="Helvetica, Arial, sans-serif" font-size="12" text-anchor="end">SENTIMENT-NEGATIVE</text></g><g><circle cx="1109.785444062419" cy="643" r="3"/><text transform="translate(1109.785444062419,651) rotate(-90)" alignment-baseline="middle" font-family="Helvetica, Arial, sans-serif" font-size="12" text-anchor="end">SENTIMENT-POSITIVE</text></g><g><circle cx="1123.9810325753167" cy="643" r="3"/><text transform="translate(1123.9810325753167,651) rotate(-90)" alignment-baseline="middle" font-family="Helvetica, Arial, sans-serif" font-size="12" text-anchor="end">SENTIMENT-POST-NEGATIVE</text></g><g><circle cx="1138.1766210882145" cy="643" r="3"/><text transform="translate(1138.1766210882145,651) rotate(-90)" alignment-baseline="middle" font-family="Helvetica, Arial, sans-serif" font-size="12" text-anchor="end">SENTIMENT-POST-POSITIVE</text></g><g><circle cx="1152.3722096011122" cy="643" r="3"/><text transform="translate(1152.3722096011122,651) rotate(-90)" alignment-baseline="middle" font-family="Helvetica, Arial, sans-serif" font-size="12" text-anchor="end">SENTIMENT-RANK</text></g><g><circle cx="1166.56779811401" cy="643" r="3"/><text transform="translate(1166.56779811401,651) rotate(-90)" alignment-baseline="middle" font-family="Helvetica, Arial, sans-serif" font-size="12" text-anchor="end">SENTIMENT-RATIO</text></g><g><circle cx="1180.7633866269077" cy="643" r="3"/><text transform="translate(1180.7633866269077,651) rotate(-90)" alignment-baseline="middle" font-family="Helvetica, Arial, sans-serif" font-size="12" text-anchor="end">SENTIMENT-REPLY-NEG</text></g><g><circle cx="1194.9589751398055" cy="643" r="3"/><text transform="translate(1194.9589751398055,651) rotate(-90)" alignment-baseline="middle" font-family="Helvetica, Arial, sans-serif" font-size="12" text-anchor="end">SENTIMENT-REPLY-POS</text></g><g><circle cx="1209.1545636527032" cy="643" r="3"/><text transform="translate(1209.1545636527032,651) rotate(-90)" alignment-baseline="middle" font-family="Helvetica, Arial, sans-serif" font-size="12" text-anchor="end">SENTIMENT-SHARE-NEG</text></g><g><circle cx="1223.350152165601" cy="643" r="3"/><text transform="translate(1223.350152165601,651) rotate(-90)" alignment-baseline="middle" font-family="Helvetica, Arial, sans-serif" font-size="12" text-anchor="end">SENTIMENT-SHARE-POS</text></g><g><circle cx="1237.5457406784988" cy="643" r="3"/><text transform="translate(1237.5457406784988,651) rotate(-90)" alignment-baseline="middle" font-family="Helvetica, Arial, sans-serif" font-size="12" text-anchor="end">SOLUTION INDEX</text></g><g><circle cx="1251.7413291913965" cy="643" r="3"/><text transform="translate(1251.7413291913965,651) rotate(-90)" alignment-baseline="middle" font-family="Helvetica, Arial, sans-serif" font-size="12" text-anchor="end">SUBSCRIBED</text></g><g><circle cx="1265.9369177042943" cy="643" r="3"/><text transform="translate(1265.9369177042943,651) rotate(-90)" alignment-baseline="middle" font-family="Helvetica, Arial, sans-serif" font-size="12" text-anchor="end">TALKING ABOUT</text></g><g><circle cx="1281.868992501441" cy="643" r="4.736486284248919"/><text transform="translate(1281.868992501441,652.7364862842489) rotate(-90)" alignment-baseline="middle" font-family="Helvetica, Arial, sans-serif" font-size="12" text-anchor="end">TOTAL</text></g><g><circle cx="1297.8010672985877" cy="643" r="3"/><text transform="translate(1297.8010672985877,651) rotate(-90)" alignment-baseline="middle" font-family="Helvetica, Arial, sans-serif" font-size="12" text-anchor="end">TOTAL INTERACTIONS</text></g><g><circle cx="1311.9966558114854" cy="643" r="3"/><text transform="translate(1311.9966558114854,651) rotate(-90)" alignment-baseline="middle" font-family="Helvetica, Arial, sans-serif" font-size="12" text-anchor="end">TOTAL-NEG-FCST</text></g><g><circle cx="1326.1922443243832" cy="643" r="3"/><text transform="translate(1326.1922443243832,651) rotate(-90)" alignment-baseline="middle" font-family="Helvetica, Arial, sans-serif" font-size="12" text-anchor="end">TOTAL-NEG-GROWTH</text></g><g><circle cx="1342.8435952913405" cy="643" r="5.455762454059682"/><text transform="translate(1342.8435952913405,653.4557624540597) rotate(-90)" alignment-baseline="middle" font-family="Helvetica, Arial, sans-serif" font-size="12" text-anchor="end">TWITTER</text></g><g><circle cx="1359.4949462582981" cy="643" r="3"/><text transform="translate(1359.4949462582981,651) rotate(-90)" alignment-baseline="middle" font-family="Helvetica, Arial, sans-serif" font-size="12" text-anchor="end">UNIQUE VISITORS</text></g><g><circle cx="1373.6905347711959" cy="643" r="3"/><text transform="translate(1373.6905347711959,651) rotate(-90)" alignment-baseline="middle" font-family="Helvetica, Arial, sans-serif" font-size="12" text-anchor="end">VIDEOS</text></g><g><circle cx="1387.8861232840936" cy="643" r="3"/><text transform="translate(1387.8861232840936,651) rotate(-90)" alignment-baseline="middle" font-family="Helvetica, Arial, sans-serif" font-size="12" text-anchor="end">VIEWS</text></g><g><circle cx="1402.0817117969914" cy="643" r="3"/><text transform="translate(1402.0817117969914,651) rotate(-90)" alignment-baseline="middle" font-family="Helvetica, Arial, sans-serif" font-size="12" text-anchor="end">VISITS</text></g><g><circle cx="1418.4040529807648" cy="643" r="5.1267526708757"/><text transform="translate(1418.4040529807648,653.1267526708757) rotate(-90)" alignment-baseline="middle" font-family="Helvetica, Arial, sans-serif" font-size="12" text-anchor="end">VOLUME</text></g><g><circle cx="1434.7263941645383" cy="643" r="3"/><text transform="translate(1434.7263941645383,651) rotate(-90)" alignment-baseline="middle" font-family="Helvetica, Arial, sans-serif" font-size="12" text-anchor="end">VOLUME-FORECAST</text></g><g><circle cx="1448.921982677436" cy="643" r="3"/><text transform="translate(1448.921982677436,651) rotate(-90)" alignment-baseline="middle" font-family="Helvetica, Arial, sans-serif" font-size="12" text-anchor="end">VOLUME-GROWTH</text></g><g><circle cx="1463.1175711903338" cy="643" r="3"/><text transform="translate(1463.1175711903338,651) rotate(-90)" alignment-baseline="middle" font-family="Helvetica, Arial, sans-serif" font-size="12" text-anchor="end">VOLUME-TOTAL</text></g><g><circle cx="1477.3131597032316" cy="643" r="3"/><text transform="translate(1477.3131597032316,651) rotate(-90)" alignment-baseline="middle" font-family="Helvetica, Arial, sans-serif" font-size="12" text-anchor="end">WILLING TO DO BUSINESS</text></g><g><circle cx="1494.254374108064" cy="643" r="5.745625891934576"/><text transform="translate(1494.254374108064,653.7456258919345) rotate(-90)" alignment-baseline="middle" font-family="Helvetica, Arial, sans-serif" font-size="12" text-anchor="end">YOUTUBE</text></g></g></g></svg>